<svg width="109" height="294" viewBox="0 0 109 294" fill="none" xmlns="http://www.w3.org/2000/svg">
<path d="M10.2689 291.335C6.29937 289.614 5.98949 284.104 9.74117 281.949L90.7622 235.419C93.3698 233.921 96.5206 233.703 99.3095 234.828C103.081 236.349 103.467 241.537 99.9612 243.598L19.7831 290.75C16.8871 292.454 13.3516 292.671 10.2689 291.335Z" fill="#151515" fill-opacity="0.15" stroke="#151515" stroke-width="0.868213" stroke-miterlimit="10"/>
<path d="M13.595 37.772L74.7313 2.49983C76.6597 1.38222 78.8486 0.792809 81.0773 0.79102C83.3061 0.78923 85.4959 1.37512 87.4261 2.48964C89.3563 3.60416 90.9587 5.20793 92.0718 7.1393C93.1849 9.07067 93.7693 11.2614 93.7661 13.4907L93.7661 191.644C93.7662 196.19 92.5705 200.655 90.299 204.592C88.0275 208.529 84.7603 211.799 80.8255 214.074L19.6976 249.371C17.769 250.491 15.5792 251.082 13.3492 251.085C11.1192 251.088 8.92793 250.502 6.99642 249.388C5.06492 248.273 3.46152 246.668 2.34802 244.736C1.23452 242.803 0.650303 240.611 0.654317 238.38L0.654317 60.2272C0.648894 55.677 1.84216 51.2058 4.11394 47.2637C6.38573 43.3216 9.65583 40.0478 13.595 37.772Z" fill="#F2F5F7" stroke="#151515" stroke-width="0.868213" stroke-miterlimit="10"/>
<path d="M23.1262 41.0034L84.2625 5.70589C86.1909 4.58827 88.3798 3.99886 90.6086 3.99707C92.8373 3.99528 95.0271 4.58118 96.9574 5.6957C98.8876 6.81022 100.49 8.41398 101.603 10.3454C102.716 12.2767 103.301 14.4675 103.297 16.6967L103.297 194.85C103.299 199.395 102.103 203.86 99.8315 207.796C97.5599 211.731 94.292 215 90.3567 217.271L29.2289 252.577C27.3002 253.697 25.1104 254.288 22.8805 254.291C20.6505 254.294 18.4592 253.708 16.5277 252.594C14.5962 251.479 12.9928 249.874 11.8793 247.942C10.7658 246.009 10.1816 243.817 10.1856 241.586L10.1856 63.4332C10.1872 58.8879 11.3836 54.4229 13.6549 50.4861C15.9262 46.5493 19.1925 43.279 23.1262 41.0034Z" fill="white" fill-opacity="0.7" stroke="#151515" stroke-width="0.868213" stroke-miterlimit="10"/>
<path d="M3.83105 48.0146L12.9164 52.1852" stroke="black" stroke-width="0.868213"/>
<path d="M1.09961 55.4961L10.5558 59.5534" stroke="black" stroke-width="0.868213"/>
<path d="M19.295 65.6723V88.8883C19.2942 90.1602 19.6281 91.4098 20.2632 92.5116C20.8982 93.6134 21.8121 94.5286 22.9128 95.1653C24.0135 95.8019 25.2624 96.1375 26.5339 96.1383C27.8054 96.1391 29.0548 95.8052 30.1563 95.17L43.5534 87.375C45.4587 86.2717 47.0399 84.686 48.1379 82.7774C49.2359 80.8688 49.812 78.7045 49.8082 76.5025V53.2864C49.8084 52.0141 49.4735 50.7641 48.8374 49.6623C48.2014 48.5605 47.2864 47.6456 46.1846 47.0098C45.0828 46.3739 43.8331 46.0394 42.561 46.04C41.289 46.0406 40.0396 46.3763 38.9384 47.0132L25.5667 54.7575C23.6538 55.8642 22.0666 57.4561 20.9654 59.3725C19.8643 61.2889 19.2881 63.4619 19.295 65.6723Z" fill="#B0ADAD" stroke="#151515" stroke-width="0.868213" stroke-miterlimit="10"/>
<path d="M20.7754 66.678L20.7754 89.8941C20.7752 91.1664 21.11 92.4164 21.7461 93.5182C22.3822 94.62 23.2972 95.5349 24.399 96.1708C25.5008 96.8066 26.7505 97.1411 28.0226 97.1405C29.2946 97.1399 30.544 96.8043 31.6452 96.1673L45.5241 88.2962C47.4336 87.1935 49.0192 85.6074 50.1216 83.6974C51.224 81.7873 51.8043 79.6207 51.8042 77.4153V54.1992C51.8058 52.9261 51.4721 51.6751 50.8366 50.5721C50.2011 49.4691 49.2863 48.553 48.1843 47.9162C47.0822 47.2793 45.8319 46.9441 44.5592 46.9443C43.2864 46.9446 42.0362 47.2802 40.9344 47.9175L27.0555 55.8055C25.1455 56.9056 23.5593 58.4899 22.4567 60.3988C21.3541 62.3076 20.7742 64.4735 20.7754 66.678Z" fill="white" stroke="#151515" stroke-width="0.868213" stroke-miterlimit="10"/>
<path d="M37.5934 67.2607C38.5938 63.2946 37.1885 59.5203 34.4546 58.8303C31.7207 58.1404 28.6935 60.7962 27.6932 64.7622C26.6928 68.7283 28.0981 72.5027 30.832 73.1926C33.5659 73.8825 36.5931 71.2267 37.5934 67.2607Z" fill="#5E17FE" stroke="#151515" stroke-width="0.868213" stroke-miterlimit="10"/>
<path opacity="0.5" fill-rule="evenodd" clip-rule="evenodd" d="M33.5445 61.1025C34.5607 62.1406 34.9691 64.0781 34.462 66.0886C33.8274 68.6045 31.9848 70.3396 30.2334 70.1539C30.5708 70.4986 30.9751 70.744 31.4352 70.8602C33.2812 71.326 35.3252 69.5328 36.0007 66.8549C36.6761 64.1769 35.7272 61.6284 33.8813 61.1626C33.7696 61.1344 33.6572 61.1145 33.5445 61.1025Z" fill="white"/>
<path d="M45.977 63.6208C46.3973 61.9548 45.8059 60.3689 44.6562 60.0788C43.5066 59.7887 42.2339 60.9041 41.8137 62.5702C41.3934 64.2363 41.9847 65.8221 43.1344 66.1122C44.2841 66.4024 45.5568 65.2869 45.977 63.6208Z" fill="white" stroke="#151515" stroke-width="0.868213" stroke-miterlimit="10"/>
<path d="M47.0097 74.4374C47.64 71.9382 46.7567 69.5604 45.0367 69.1264C43.3167 68.6923 41.4114 70.3664 40.781 72.8655C40.1507 75.3647 41.034 77.7425 42.754 78.1766C44.474 78.6106 46.3793 76.9365 47.0097 74.4374Z" fill="#FFAD28" stroke="#151515" stroke-width="0.868213" stroke-miterlimit="10"/>
<path d="M37.598 83.9625C38.6052 79.9693 37.2055 76.1729 34.4716 75.4829C31.7377 74.793 28.705 77.4708 27.6978 81.464C26.6905 85.4572 28.0903 89.2536 30.8242 89.9435C33.5581 90.6335 36.5908 87.9556 37.598 83.9625Z" fill="#5E17FE" stroke="#151515" stroke-width="0.868213" stroke-miterlimit="10"/>
<path opacity="0.5" fill-rule="evenodd" clip-rule="evenodd" d="M33.6148 77.9727C34.631 79.0107 35.0394 80.9482 34.5323 82.9587C33.8977 85.4746 32.0551 87.2097 30.3037 87.0241C30.6411 87.3687 31.0454 87.6142 31.5055 87.7303C33.3515 88.1961 35.3955 86.4029 36.071 83.725C36.7464 81.0471 35.7976 78.4985 33.9516 78.0327C33.8399 78.0045 33.7276 77.9846 33.6148 77.9727Z" fill="white"/>
<path d="M27.9499 115.9L85.1051 82.9276C86.1338 82.3336 87.3008 82.021 88.4886 82.0215C89.6764 82.0219 90.8431 82.3353 91.8714 82.9301C92.8996 83.5249 93.7531 84.3802 94.3458 85.4098C94.9386 86.4394 95.2498 87.607 95.248 88.7951V197.858C95.2476 200.381 94.5835 202.859 93.3224 205.043C92.0613 207.228 90.2475 209.042 88.0635 210.303L30.9251 243.216C29.8965 243.811 28.7295 244.123 27.5417 244.123C26.3539 244.122 25.1871 243.809 24.1589 243.214C23.1306 242.619 22.2772 241.764 21.6844 240.734C21.0916 239.705 20.7805 238.537 20.7822 237.349L20.7822 128.286C20.7912 125.775 21.4577 123.31 22.7153 121.137C23.9728 118.964 25.7776 117.159 27.9499 115.9Z" fill="#AD751A" stroke="#151515" stroke-width="0.868213" stroke-miterlimit="10"/>
<path d="M29.6927 120.627L86.8479 87.6542C87.876 87.0605 89.0422 86.748 90.2293 86.748C91.4164 86.7481 92.5825 87.0608 93.6105 87.6546C94.6385 88.2484 95.4921 89.1024 96.0855 90.1308C96.6789 91.1592 96.9911 92.3258 96.9908 93.5132V185.667C96.9905 188.19 96.3264 190.668 95.0652 192.852C93.8041 195.037 91.9904 196.851 89.8063 198.112L32.6595 231.085C31.6308 231.679 30.4639 231.991 29.276 231.991C28.0882 231.991 26.9215 231.677 25.8933 231.082C24.865 230.487 24.0116 229.632 23.4188 228.603C22.826 227.573 22.5149 226.405 22.5166 225.217L22.5166 133.063C22.5176 130.543 23.1811 128.067 24.4407 125.884C25.7002 123.702 27.5114 121.888 29.6927 120.627Z" fill="#2A0975" stroke="#151515" stroke-width="0.868213" stroke-miterlimit="10"/>
<path d="M31.4584 121.683L88.6136 88.7108C89.6422 88.1168 90.8092 87.8043 91.997 87.8047C93.1848 87.8051 94.3516 88.1185 95.3798 88.7133C96.408 89.3081 97.2615 90.1634 97.8543 91.193C98.447 92.2226 98.7582 93.3902 98.7565 94.5783V186.732C98.7555 189.253 98.0919 191.728 96.8324 193.911C95.5729 196.094 93.7616 197.907 91.5804 199.169L34.4251 232.141C33.3971 232.735 32.2309 233.048 31.0438 233.048C29.8567 233.048 28.6905 232.735 27.6626 232.141C26.6346 231.547 25.781 230.693 25.1876 229.665C24.5942 228.636 24.282 227.47 24.2823 226.282L24.2823 134.154C24.2773 131.628 24.938 129.145 26.1979 126.956C27.4577 124.766 29.2721 122.948 31.4584 121.683Z" fill="#5E17FE" stroke="#151515" stroke-width="0.868213" stroke-miterlimit="10"/>
<path d="M35.6616 132.819L47.2583 126.123C47.4676 126.003 47.7046 125.94 47.9457 125.94C48.1868 125.941 48.4236 126.005 48.6323 126.125C48.8411 126.246 49.0145 126.419 49.1353 126.628C49.2561 126.837 49.3201 127.074 49.3207 127.315V145.991C49.3238 146.504 49.191 147.009 48.9356 147.455C48.6803 147.9 48.3115 148.27 47.8669 148.527L36.2702 155.231C36.0622 155.341 35.8297 155.396 35.5947 155.39C35.3596 155.385 35.13 155.319 34.9275 155.199C34.725 155.08 34.5565 154.911 34.4379 154.708C34.3193 154.505 34.2547 154.274 34.2501 154.039V135.346C34.2467 134.839 34.3749 134.339 34.6223 133.896C34.8697 133.453 35.2278 133.082 35.6616 132.819Z" fill="#151515"/>
<path d="M31.4593 151.772L88.6145 118.8C89.6426 118.206 90.8088 117.893 91.9959 117.894C93.183 117.894 94.3491 118.206 95.3771 118.8C96.4051 119.394 97.2587 120.248 97.8521 121.276C98.4455 122.305 98.7577 123.471 98.7574 124.659V199.904C98.7579 202.425 98.0951 204.903 96.8355 207.087C95.5759 209.272 93.7638 211.086 91.5813 212.349L34.4261 245.321C33.3974 245.915 32.2305 246.228 31.0426 246.227C29.8548 246.227 28.6881 245.914 27.6599 245.319C26.6316 244.724 25.7782 243.869 25.1854 242.839C24.5926 241.81 24.2815 240.642 24.2832 239.454L24.2832 164.209C24.2842 161.689 24.9477 159.213 26.2073 157.03C27.4668 154.847 29.278 153.034 31.4593 151.772Z" fill="#FFAD28" stroke="#151515" stroke-width="0.868213" stroke-miterlimit="10"/>
<path d="M42.9456 209.88L65.6473 163.154C65.8281 162.787 66.1068 162.478 66.4529 162.258C66.7989 162.039 67.199 161.919 67.6092 161.912C68.0193 161.904 68.4236 162.009 68.7778 162.215C69.1319 162.421 69.4221 162.72 69.6166 163.08L73.5088 170.358C73.8579 171.014 74.0475 171.742 74.0625 172.485C74.0775 173.227 73.9175 173.962 73.5952 174.632L59.8195 203.243C59.2224 204.496 58.2746 205.55 57.0901 206.28L46.2937 212.885C44.2928 214.116 41.9136 211.985 42.9456 209.88Z" fill="white" stroke="#151515" stroke-width="0.5" stroke-miterlimit="10"/>
<path d="M71.9007 194.84L78.2701 182.059C78.3954 181.809 78.5831 181.595 78.8154 181.439C79.0476 181.282 79.3164 181.187 79.5961 181.164C79.8757 181.141 80.1566 181.189 80.4118 181.305C80.667 181.421 80.8879 181.601 81.0533 181.826L83.9975 185.81C84.2619 186.167 84.4516 186.574 84.5554 187.006C84.6593 187.438 84.6751 187.886 84.6019 188.324C84.5288 188.762 84.3682 189.181 84.1297 189.556C83.8911 189.931 83.5794 190.255 83.213 190.508L74.1561 196.783C73.8757 196.98 73.5371 197.078 73.1942 197.061C72.8513 197.044 72.524 196.914 72.2644 196.69C72.0048 196.466 71.8279 196.163 71.762 195.827C71.6961 195.492 71.7449 195.145 71.9007 194.84Z" fill="white" stroke="#151515" stroke-width="0.5" stroke-miterlimit="10"/>
<path d="M20.7653 163.499L24.2815 166.5L24.2815 239.42C24.2815 239.42 24.2815 242.295 26.0312 243.977C24.7491 243.665 23.5786 243.003 22.6492 242.066C21.7198 241.129 21.0678 239.953 20.7653 238.668C20.6254 236.868 20.5859 235.062 20.647 233.257C20.7231 229.233 20.7653 163.499 20.7653 163.499Z" fill="#AD751A" stroke="#151515" stroke-width="0.868213" stroke-miterlimit="10"/>
</svg>
