<svg width="222" height="331" viewBox="0 0 222 331" fill="none" xmlns="http://www.w3.org/2000/svg">
<path d="M0.679688 108.078L40.9554 294.529L101.378 282.876V259.569L161.801 247.916V224.61L221.319 213.479V190.172L181.939 3.19922V23.9221L121.516 38.1588V61.4651L61.0933 73.1183V96.4247L0.679688 108.078Z" fill="#FFB4A8" stroke="#211C16" stroke-width="0.5" stroke-miterlimit="10"/>
<path d="M182.19 5.60547V23.9119L221.082 211.062V190.21L182.19 5.60547Z" fill="#D09389"/>
<path d="M121.771 61.4422V40.4404L161.546 224.639V245.569L121.771 61.4422Z" fill="#D09389"/>
<path d="M61.3447 96.4353V75.1123L101.116 259.378V280.489L61.3447 96.4353Z" fill="#D09389"/>
<path d="M61.1016 96.4248L101.377 282.876" stroke="#211C16" stroke-width="0.5" stroke-miterlimit="10"/>
<path d="M61.1016 72.9746L101.377 259.426" stroke="#211C16" stroke-width="0.5" stroke-miterlimit="10"/>
<path d="M121.518 61.4648L161.802 247.916" stroke="#211C16" stroke-width="0.5" stroke-miterlimit="10"/>
<path d="M121.518 38.0947L161.802 224.555" stroke="#211C16" stroke-width="0.5" stroke-miterlimit="10"/>
<path d="M181.94 23.9219L221.32 213.479" stroke="#211C16" stroke-width="0.5" stroke-miterlimit="10"/>
<path d="M85.16 207.809C85.16 207.809 62.2524 219.388 56.6489 227.808C51.0454 236.227 44.8203 240.908 44.8203 244.298C44.8203 247.688 47.9374 250.574 49.7657 253.698C51.5939 256.822 62.097 264.343 64.9582 261.824C67.8193 259.304 75.3608 258.791 77.189 259.204C79.0172 259.616 97.2994 264.114 97.2994 264.114L85.16 207.809Z" fill="#56D62A" stroke="#211C16" stroke-width="0.5" stroke-miterlimit="10"/>
<path d="M73.9727 132.365C73.9727 132.365 84.7135 133.757 86.624 133.931C88.5344 134.105 92.1635 131.668 93.5529 132.365C96.6545 133.94 99.837 135.35 103.087 136.588C106.552 137.797 105.683 141.105 106.204 142.488C106.725 143.871 111.579 148.571 116.259 150.128C117.319 150.449 118.302 150.983 119.148 151.698C119.994 152.413 120.685 153.294 121.179 154.288C121.672 155.281 121.957 156.364 122.017 157.472C122.076 158.58 121.909 159.688 121.525 160.728C119.907 164.897 116.78 174.8 116.78 176.183C116.78 177.567 118.17 180.004 116.095 182.092C112.633 185.831 109.716 190.041 107.429 194.597C104.998 199.636 89.3846 203.704 89.3846 203.704L73.9727 132.365Z" fill="#56D62A" stroke="#211C16" stroke-width="0.5" stroke-miterlimit="10"/>
<path d="M116.494 191.346C116.494 191.346 114.986 193.719 115.178 194.965C115.37 196.211 115.626 199.051 115.827 199.774C116.028 200.498 115.315 203.063 116.165 203.659C117.015 204.254 118.204 202.477 119.063 201.094C119.922 199.71 122.719 196.678 122.719 193.847C122.719 191.016 121.01 188.643 119.831 189.266C118.652 189.889 116.494 191.346 116.494 191.346Z" fill="#56D62A" stroke="#211C16" stroke-width="0.5" stroke-miterlimit="10"/>
<path d="M123.103 68.7949C123.103 68.7949 116.832 74.1726 116.64 75.785C116.448 77.3974 116.832 83.2881 116.64 85.441C116.448 87.5939 112.7 92.0555 112.7 93.8419C112.7 95.6284 117.472 100.456 122.042 100.64C126.613 100.823 128.222 105.468 129.118 108.885C130.013 112.302 133.688 117.771 133.688 117.771L123.103 68.7949Z" fill="#56D62A" stroke="#211C16" stroke-width="0.5" stroke-miterlimit="10"/>
<path d="M122.63 66.623C122.63 66.623 127.155 72.9444 127.338 74.1995C127.52 75.4546 129.65 84.2128 130.363 85.6419C131.076 87.0711 132.639 89.5905 132.639 89.5905L141.095 128.728C141.095 128.728 137.557 126.895 136.844 125.063C136.079 123.402 135.203 121.795 134.221 120.253L122.63 66.623Z" fill="#56D62A" stroke="#211C16" stroke-width="0.5" stroke-miterlimit="10"/>
<path d="M133.443 93.2918C133.443 93.2918 136.076 92.8887 137.465 92.5406C138.855 92.1925 141.972 95.9028 143.361 96.425C144.751 96.9472 148.554 97.0296 149.477 97.6801C150.4 98.3305 153.755 101.574 158.38 103.653C163.006 105.733 163.344 111.99 163.344 114.647C163.344 117.304 167.622 124.953 167.85 127.473C168.079 129.992 164.752 133.95 161.799 138.008C158.846 142.067 155.72 139.392 153.755 139.392C151.79 139.392 151.588 137.889 150.647 136.497C149.705 135.104 146.936 135.809 145.162 135.69C143.389 135.571 141.606 131.284 141.606 131.284L133.443 93.2918Z" fill="#56D62A" stroke="#211C16" stroke-width="0.5" stroke-miterlimit="10"/>
<path d="M69.2344 71.5429C69.2344 71.5429 74.9019 77.1862 75.9988 77.5527C77.0957 77.9191 81.4835 85.4497 83.5128 85.4497C85.5421 85.4497 94.3267 85.0833 95.9813 84.5336C97.6358 83.9839 97.0142 76.6824 97.325 75.4639C97.6358 74.2455 100.259 65.5605 100.259 65.5605L69.2344 71.5429Z" fill="#56D62A" stroke="#211C16" stroke-width="0.5" stroke-miterlimit="10"/>
<path d="M185.566 156.972C185.566 156.972 180.548 160.371 180.548 162.295C180.548 164.219 185.118 166.207 185.566 167.948C186.014 169.688 187.486 175.322 191.051 176.193C194.616 177.063 197.45 187.14 200.192 186.554C202.934 185.968 207.432 178.712 207.578 173.829C207.724 168.946 210.576 161.745 210.576 161.745L206.079 140.253C206.079 140.253 201.929 145.09 197.057 146.574C192.184 148.058 192.77 150.862 191.298 152.492C189.516 154.144 187.599 155.643 185.566 156.972Z" fill="#56D62A" stroke="#211C16" stroke-width="0.5" stroke-miterlimit="10"/>
<path d="M206.654 142.909C207.597 144.136 208.63 145.29 209.744 146.363C210.658 147.05 210.329 149.487 210.576 150.174C210.823 150.861 213.172 155.213 213.172 155.671C213.172 156.129 213.4 163.376 213.172 164.447C212.943 165.519 209.707 157.586 209.707 157.586L206.654 142.909Z" fill="#56D62A" stroke="#211C16" stroke-width="0.5" stroke-miterlimit="10"/>
<path d="M184.451 155.323C185.181 155.01 185.805 154.489 186.243 153.825C186.682 153.161 186.917 152.382 186.919 151.586C186.919 148.791 186.096 146.446 184.771 145.31C183.445 144.174 182.869 146.51 181.736 148.159C180.602 149.808 179.77 152.667 180.977 153.042C182.184 153.418 181.983 156.469 184.451 155.323Z" fill="#56D62A" stroke="#211C16" stroke-width="0.5" stroke-miterlimit="10"/>
<path d="M188.627 142.515C189.029 143.633 189.541 144.989 190.775 143.725C192.009 142.46 194.889 142.515 194.889 139.474C194.889 136.432 193.371 133.198 191.762 134.215C190.153 135.232 189.514 136.176 187.612 135.415C185.711 134.655 184.87 131.549 185.144 130.789C185.418 130.028 185.144 125.842 182.74 127.747C180.336 129.653 182.493 130.028 182.493 130.981C182.493 131.934 181.634 133.07 181.936 133.519C182.237 133.968 183.864 133.83 183.654 134.435C183.444 135.04 184.075 136.02 184.203 136.78C184.331 137.541 186.662 139.052 187.301 140.262C187.785 140.988 188.227 141.74 188.627 142.515Z" fill="#56D62A" stroke="#211C16" stroke-width="0.5" stroke-miterlimit="10"/>
<path d="M75.0904 137.504C74.9451 140.25 74.9451 143.003 75.0904 145.749C75.3555 148.882 77.9607 157.045 77.9607 158.254C77.8739 159.759 77.8739 161.267 77.9607 162.771C78.1344 163.989 80.0358 171.282 80.0358 172.674C80.0358 174.067 82.4582 186.92 83.6922 188.826C84.9263 190.731 88.0434 197.391 88.0434 197.391L75.0904 137.504Z" fill="#7FDD58" stroke="#211C16" stroke-width="0.5" stroke-miterlimit="10"/>
<path d="M116.921 187.26C117.35 187.736 118.612 187.589 118.877 186.27C119.142 184.951 115.668 185.876 116.921 187.26Z" fill="#7FDD58" stroke="#211C16" stroke-width="0.5" stroke-miterlimit="10"/>
<path d="M66.589 231.93C66.589 231.93 29.7411 183.723 73.6916 154.691C73.6916 154.691 79.551 176.971 84.9443 184.007C84.9443 184.007 108.199 174.589 118.894 194.332C118.894 194.332 82.2111 133.409 118.894 92.5312C118.894 92.5312 117.752 120.125 136.994 133.024" stroke="#211C16" stroke-miterlimit="10" stroke-dasharray="1 1"/>
<path d="M138.385 139.528C138.385 139.528 141.319 143.532 144.336 143.724C144.336 143.724 148.952 133.271 157.791 132.245C157.791 132.245 161.85 114.041 178.551 117.77C195.252 121.499 201.632 148.864 201.632 148.864" stroke="#211C16" stroke-miterlimit="10" stroke-dasharray="1 1"/>
<path d="M206.508 146.76L201.336 148.847" stroke="black"/>
<path d="M207.783 149.212C209.378 149.212 210.672 147.916 210.672 146.317C210.672 144.718 209.378 143.422 207.783 143.422C206.188 143.422 204.895 144.718 204.895 146.317C204.895 147.916 206.188 149.212 207.783 149.212Z" fill="#5E17FE" stroke="#211C16" stroke-width="0.5" stroke-miterlimit="10"/>
<path d="M209.088 148.699C210.683 148.699 211.976 147.403 211.976 145.804C211.976 144.205 210.683 142.909 209.088 142.909C207.492 142.909 206.199 144.205 206.199 145.804C206.199 147.403 207.492 148.699 209.088 148.699Z" fill="#5E17FE" fill-opacity="0.7" stroke="#211C16" stroke-width="0.5" stroke-miterlimit="10"/>
<path d="M45.6184 325.167C44.0363 324.23 44.45 321.835 46.2546 321.483L103.573 310.309V288.169C103.573 286.723 104.605 285.483 106.026 285.219L155.738 275.999L157.631 256.892C157.765 255.54 158.79 254.447 160.13 254.227L201.359 247.45C202.57 247.251 203.538 246.333 203.802 245.134L206.33 233.641C206.689 232.01 208.31 230.986 209.937 231.362L214.083 232.322C216.185 232.808 217.522 234.874 217.107 236.99L214.047 252.567C213.806 253.791 212.833 254.738 211.603 254.946L170.264 261.939C168.929 262.165 167.91 263.257 167.779 264.605L166.139 281.417C166.009 282.747 165.014 283.832 163.7 284.075L117.632 292.614C116.183 292.882 115.143 294.163 115.179 295.636L115.648 314.962C115.684 316.41 114.679 317.677 113.261 317.972L54.9798 330.102C54.4914 330.204 53.9827 330.119 53.5534 329.865L45.6184 325.167Z" fill="white" fill-opacity="0.15" stroke="#151515" stroke-width="0.5" stroke-miterlimit="10"/>
<path d="M123.565 192.2L118.393 194.288" stroke="black"/>
<path d="M124.84 194.652C126.435 194.652 127.728 193.356 127.728 191.757C127.728 190.158 126.435 188.862 124.84 188.862C123.244 188.862 121.951 190.158 121.951 191.757C121.951 193.356 123.244 194.652 124.84 194.652Z" fill="#5E17FE" stroke="#211C16" stroke-width="0.5" stroke-miterlimit="10"/>
<path d="M126.144 194.14C127.74 194.14 129.033 192.843 129.033 191.245C129.033 189.646 127.74 188.35 126.144 188.35C124.549 188.35 123.256 189.646 123.256 191.245C123.256 192.843 124.549 194.14 126.144 194.14Z" fill="#5E17FE" fill-opacity="0.7" stroke="#211C16" stroke-width="0.5" stroke-miterlimit="10"/>
<path d="M124.494 89.2637L119.321 91.3514" stroke="black"/>
<path d="M125.768 91.7157C127.364 91.7157 128.657 90.4196 128.657 88.8208C128.657 87.2219 127.364 85.9258 125.768 85.9258C124.173 85.9258 122.88 87.2219 122.88 88.8208C122.88 90.4196 124.173 91.7157 125.768 91.7157Z" fill="#5E17FE" stroke="#211C16" stroke-width="0.5" stroke-miterlimit="10"/>
<path d="M127.073 91.203C128.668 91.203 129.962 89.9069 129.962 88.308C129.962 86.7092 128.668 85.4131 127.073 85.4131C125.478 85.4131 124.185 86.7092 124.185 88.308C124.185 89.9069 125.478 91.203 127.073 91.203Z" fill="#5E17FE" fill-opacity="0.7" stroke="#211C16" stroke-width="0.5" stroke-miterlimit="10"/>
<path d="M80.9496 242.209L81.6534 239.653L72.9328 238.856L75.6386 229.658L72.814 229.401L70.1448 238.599L61.3236 237.793L60.5283 240.633L69.3678 241.311L66.6711 250.619L69.4043 250.876L72.1467 241.531L80.9496 242.209Z" fill="#E84142" stroke="#211C16" stroke-width="0.5" stroke-miterlimit="10"/>
<path opacity="0.7" d="M73.0394 229.478L74.2035 228.864L71.7604 237.296L70.8252 237.213L73.0394 229.478Z" fill="#E84142"/>
<path d="M82.7284 241.192L83.4323 238.636L74.7117 237.839L77.4174 228.641L74.5928 228.385L71.9236 237.583L63.1025 236.777L62.3072 239.617L71.1467 240.294L68.45 249.602L71.1832 249.859L73.599 241.627L73.9255 240.514L82.7284 241.192Z" fill="#E84142" fill-opacity="0.7"/>
<path d="M82.7284 241.192L83.4323 238.636L74.7117 237.839L77.4174 228.641L74.5928 228.385M82.7284 241.192L73.9255 240.514L73.599 241.627M82.7284 241.192L81.0709 242.218L73.599 241.627M74.5928 228.385L71.9236 237.583L63.1025 236.777M74.5928 228.385L72.749 229.359M63.1025 236.777L62.3072 239.617M63.1025 236.777L61.3651 237.688L60.6064 240.376L62.3072 239.617M62.3072 239.617L71.1467 240.294M71.1467 240.294L68.45 249.602M71.1467 240.294L69.3461 241.461M68.45 249.602L71.1832 249.859M68.45 249.602L66.6716 250.651M71.1832 249.859L69.4552 250.929M71.1832 249.859L73.599 241.627" stroke="#211C16" stroke-width="0.5" stroke-miterlimit="10"/>
<path opacity="0.7" d="M74.1143 240.774L73.9268 241.404L81.0206 241.977L81.9464 241.387L74.1143 240.774Z" fill="#E84142"/>
<path opacity="0.7" d="M60.9854 239.963L61.5791 237.799L62.7161 237.26L62.0873 239.457L60.9854 239.963Z" fill="#E84142"/>
<path opacity="0.7" d="M68.5166 249.855L67.5166 250.449L69.4659 250.629L70.4229 250.035L68.5166 249.855Z" fill="#E84142"/>
<path d="M159.315 130.084L154.143 132.172" stroke="black"/>
<path d="M160.59 132.536C162.185 132.536 163.478 131.24 163.478 129.641C163.478 128.042 162.185 126.746 160.59 126.746C158.994 126.746 157.701 128.042 157.701 129.641C157.701 131.24 158.994 132.536 160.59 132.536Z" fill="#5E17FE" stroke="#211C16" stroke-width="0.5" stroke-miterlimit="10"/>
<path d="M161.894 132.023C163.49 132.023 164.783 130.727 164.783 129.128C164.783 127.53 163.49 126.233 161.894 126.233C160.299 126.233 159.006 127.53 159.006 129.128C159.006 130.727 160.299 132.023 161.894 132.023Z" fill="#5E17FE" fill-opacity="0.7" stroke="#211C16" stroke-width="0.5" stroke-miterlimit="10"/>
</svg>
