<svg width="252" height="333" viewBox="0 0 252 333" fill="none" xmlns="http://www.w3.org/2000/svg">
<path d="M69.4206 328.779C66.4568 327.163 66.393 322.931 69.3068 321.226L180.998 255.897C185.261 253.403 190.507 253.276 194.886 255.56C197.887 257.125 197.994 261.379 195.077 263.093L83.6665 328.551C79.2875 331.123 73.8798 331.21 69.4206 328.779Z" fill="#151515" fill-opacity="0.15" stroke="#151515" stroke-width="0.5" stroke-miterlimit="10"/>
<path d="M72.2597 257.688C32.9012 240.395 23.2947 175.779 50.803 113.366C78.3112 50.953 132.517 14.3763 171.876 31.6698C211.234 48.9633 220.841 113.578 193.333 175.992C165.824 238.405 111.618 274.982 72.2597 257.688Z" fill="#E84142" fill-opacity="0.6" stroke="#151515" stroke-width="0.5" stroke-miterlimit="10"/>
<path d="M80.1291 260.577C40.6057 243.211 30.8656 178.538 58.3738 116.124C85.882 53.7112 140.222 17.1931 179.745 34.5591C219.269 51.925 229.009 116.599 201.501 179.012C173.992 241.425 119.652 277.943 80.1291 260.577Z" fill="#E84142" stroke="#151515" stroke-width="0.5" stroke-miterlimit="10"/>
<path opacity="0.7" d="M71.8946 211.621L138.516 74.499C139.046 73.4233 139.864 72.514 140.88 71.8707C141.895 71.2275 143.069 70.8753 144.273 70.8527C145.477 70.8302 146.663 71.1382 147.702 71.7429C148.742 72.3477 149.593 73.2257 150.164 74.2807L161.586 95.6398C162.611 97.565 163.167 99.7024 163.211 101.88C163.255 104.059 162.785 106.217 161.84 108.181L121.413 192.145C119.661 195.821 116.88 198.916 113.404 201.058L81.7203 220.439C75.8482 224.054 68.8661 217.8 71.8946 211.621Z" fill="#FFB4A8" stroke="#151515" stroke-width="0.5" stroke-miterlimit="10"/>
<path fill-rule="evenodd" clip-rule="evenodd" d="M144.309 70.8516C144.415 71.012 144.515 71.1775 144.607 71.3475L156.022 92.6657C157.046 94.5872 157.603 96.7209 157.648 98.8953C157.693 101.07 157.225 103.225 156.282 105.187L115.856 189.15C114.084 192.826 111.287 195.918 107.798 198.056L76.1424 217.452C74.9138 218.212 73.6363 218.537 72.4124 218.519C71.0856 216.651 70.6649 214.13 71.8946 211.621L138.516 74.4984C139.046 73.4228 139.864 72.5134 140.88 71.8702C141.895 71.2269 143.069 70.8747 144.273 70.8521C144.285 70.8519 144.297 70.8517 144.309 70.8516Z" fill="white"/>
<path d="M144.309 70.8516L144.518 70.7136L144.442 70.5998L144.306 70.6016L144.309 70.8516ZM144.607 71.3475L144.827 71.2295L144.827 71.2286L144.607 71.3475ZM156.022 92.6657L156.243 92.5482L156.242 92.5477L156.022 92.6657ZM156.282 105.187L156.508 105.295L156.508 105.295L156.282 105.187ZM115.856 189.15L116.081 189.259L116.081 189.258L115.856 189.15ZM107.798 198.056L107.929 198.27L107.929 198.27L107.798 198.056ZM76.1424 217.452L76.0118 217.238L76.0108 217.239L76.1424 217.452ZM72.4124 218.519L72.2085 218.663L72.2819 218.767L72.4086 218.769L72.4124 218.519ZM71.8946 211.621L72.1191 211.731L72.1195 211.73L71.8946 211.621ZM138.516 74.4984L138.292 74.3878L138.291 74.3891L138.516 74.4984ZM140.88 71.8702L140.746 71.659L140.88 71.8702ZM144.273 70.8521L144.268 70.6022V70.6022L144.273 70.8521ZM144.101 70.9895C144.203 71.1438 144.298 71.3029 144.387 71.4665L144.827 71.2286C144.731 71.052 144.628 70.8802 144.518 70.7136L144.101 70.9895ZM144.386 71.4655L155.802 92.7837L156.242 92.5477L144.827 71.2295L144.386 71.4655ZM155.801 92.7833C156.807 94.6702 157.353 96.7653 157.398 98.9005L157.898 98.8901C157.852 96.6764 157.285 94.5043 156.243 92.5482L155.801 92.7833ZM157.398 98.9005C157.442 101.036 156.983 103.152 156.057 105.078L156.508 105.295C157.468 103.298 157.944 101.104 157.898 98.8901L157.398 98.9005ZM156.057 105.078L115.631 189.042L116.081 189.258L156.508 105.295L156.057 105.078ZM115.631 189.041C113.879 192.674 111.115 195.73 107.668 197.843L107.929 198.27C111.458 196.106 114.288 192.978 116.081 189.259L115.631 189.041ZM107.668 197.843L76.0118 217.238L76.273 217.665L107.929 198.27L107.668 197.843ZM76.0108 217.239C74.8224 217.974 73.5918 218.286 72.4161 218.269L72.4086 218.769C73.6809 218.788 75.0052 218.449 76.274 217.664L76.0108 217.239ZM72.6162 218.374C71.3383 216.575 70.9328 214.151 72.1191 211.731L71.6701 211.511C70.397 214.108 70.8329 216.727 72.2085 218.663L72.6162 218.374ZM72.1195 211.73L138.741 74.6076L138.291 74.3891L71.6698 211.512L72.1195 211.73ZM138.74 74.6089C139.25 73.5746 140.036 72.7001 141.013 72.0814L140.746 71.659C139.691 72.3267 138.842 73.2709 138.292 74.3878L138.74 74.6089ZM141.013 72.0814C141.99 71.4627 143.12 71.1238 144.278 71.1021L144.268 70.6022C143.019 70.6256 141.8 70.9912 140.746 71.659L141.013 72.0814ZM144.278 71.1021C144.289 71.1019 144.301 71.1017 144.313 71.1015L144.306 70.6016C144.293 70.6018 144.281 70.602 144.268 70.6022L144.278 71.1021Z" fill="#151515"/>
<path d="M156.863 167.484L175.555 129.976C175.922 129.243 176.473 128.616 177.155 128.156C177.836 127.696 178.625 127.418 179.446 127.35C180.267 127.281 181.091 127.424 181.84 127.765C182.589 128.105 183.237 128.632 183.722 129.294L192.363 140.983C193.139 142.032 193.695 143.226 194 144.493C194.305 145.761 194.351 147.076 194.136 148.361C193.922 149.647 193.451 150.876 192.75 151.977C192.05 153.079 191.136 154.029 190.06 154.772L163.482 173.185C162.659 173.764 161.665 174.051 160.659 174.002C159.653 173.953 158.692 173.569 157.93 172.913C157.168 172.257 156.649 171.366 156.456 170.382C156.263 169.398 156.406 168.378 156.863 167.484Z" fill="#FFB4A8" stroke="black" stroke-width="0.5" stroke-miterlimit="10"/>
<path fill-rule="evenodd" clip-rule="evenodd" d="M178.97 127.414L186.808 138.024C187.583 139.074 188.139 140.267 188.443 141.534C188.747 142.802 188.793 144.116 188.578 145.402C188.364 146.687 187.893 147.916 187.193 149.017C186.494 150.118 185.58 151.069 184.505 151.813L157.92 170.226C157.509 170.514 157.056 170.73 156.58 170.867C156.53 170.708 156.488 170.547 156.456 170.382C156.263 169.398 156.406 168.378 156.863 167.485L175.555 129.977C175.922 129.243 176.473 128.616 177.155 128.156C177.703 127.786 178.322 127.534 178.97 127.414Z" fill="white"/>
<path d="M178.97 127.414L179.171 127.266L179.078 127.14L178.924 127.168L178.97 127.414ZM186.808 138.024L187.009 137.875L187.009 137.875L186.808 138.024ZM188.443 141.534L188.2 141.593L188.443 141.534ZM188.578 145.402L188.332 145.36H188.332L188.578 145.402ZM187.193 149.017L187.404 149.151L187.193 149.017ZM184.505 151.813L184.363 151.607L184.363 151.607L184.505 151.813ZM157.92 170.226L157.778 170.02L157.777 170.021L157.92 170.226ZM156.58 170.867L156.341 170.942L156.415 171.175L156.649 171.107L156.58 170.867ZM156.456 170.382L156.211 170.431H156.211L156.456 170.382ZM156.863 167.485L157.085 167.598L157.087 167.596L156.863 167.485ZM175.555 129.977L175.331 129.865L175.331 129.865L175.555 129.977ZM177.155 128.156L177.295 128.364V128.364L177.155 128.156ZM178.769 127.563L186.607 138.172L187.009 137.875L179.171 127.266L178.769 127.563ZM186.607 138.172C187.362 139.195 187.903 140.358 188.2 141.593L188.686 141.476C188.374 140.176 187.804 138.952 187.009 137.875L186.607 138.172ZM188.2 141.593C188.496 142.827 188.541 144.108 188.332 145.36L188.825 145.443C189.045 144.125 188.998 142.776 188.686 141.476L188.2 141.593ZM188.332 145.36C188.123 146.613 187.664 147.81 186.982 148.883L187.404 149.151C188.122 148.022 188.605 146.761 188.825 145.443L188.332 145.36ZM186.982 148.883C186.301 149.956 185.41 150.882 184.363 151.607L184.648 152.019C185.75 151.256 186.687 150.281 187.404 149.151L186.982 148.883ZM184.363 151.607L157.778 170.02L158.062 170.432L184.648 152.019L184.363 151.607ZM157.777 170.021C157.388 170.293 156.96 170.497 156.51 170.627L156.649 171.107C157.151 170.962 157.63 170.735 158.064 170.431L157.777 170.021ZM156.818 170.792C156.771 170.642 156.732 170.489 156.701 170.334L156.211 170.431C156.245 170.604 156.289 170.775 156.341 170.942L156.818 170.792ZM156.701 170.334C156.519 169.405 156.654 168.442 157.085 167.598L156.64 167.371C156.158 168.314 156.006 169.391 156.211 170.431L156.701 170.334ZM157.087 167.596L175.779 130.088L175.331 129.865L156.639 167.373L157.087 167.596ZM175.778 130.089C176.127 129.394 176.649 128.8 177.295 128.364L177.015 127.949C176.298 128.433 175.718 129.093 175.331 129.865L175.778 130.089ZM177.295 128.364C177.815 128.013 178.401 127.774 179.015 127.66L178.924 127.168C178.242 127.294 177.592 127.56 177.015 127.949L177.295 128.364Z" fill="black"/>
</svg>
