<svg width="349" height="251" viewBox="0 0 349 251" fill="none" xmlns="http://www.w3.org/2000/svg">
<path d="M337.303 46.6127C343.66 42.9346 343.661 31.0092 337.304 19.9764C330.948 8.94369 320.641 2.98155 314.284 6.65961C307.927 10.3377 307.926 22.2631 314.283 33.2959C320.639 44.3286 330.946 50.2908 337.303 46.6127Z" fill="#5E17FE" stroke="#050504" stroke-width="0.22522" stroke-miterlimit="10"/>
<path d="M333.469 48.8988C339.826 45.2208 339.827 33.2953 333.47 22.2626C327.114 11.2298 316.807 5.26768 310.45 8.94574C304.093 12.6238 304.092 24.5493 310.449 35.582C316.805 46.6148 327.112 52.5769 333.469 48.8988Z" fill="#5E17FE" stroke="#050504" stroke-width="0.22522" stroke-miterlimit="10"/>
<path d="M310.003 12.8476L256.514 43.7927L276.327 78.1791L329.817 47.234C335.287 44.081 335.287 33.8065 329.817 24.3113C324.347 14.816 315.474 9.68555 310.003 12.8476Z" fill="#5E17FE" stroke="#050504" stroke-width="0.22522" stroke-miterlimit="10"/>
<path d="M247.359 43.5042L180.834 81.9806L205.498 124.741L272 86.2642C278.805 82.3274 278.805 69.5665 272 57.756C265.195 45.9456 254.16 39.5674 247.359 43.5042Z" fill="#5E17FE" stroke="#050504" stroke-width="0.22522" stroke-miterlimit="10"/>
<path d="M184.185 72.7466L108.396 116.689L139.349 170.43L215.137 126.466C223.677 121.511 223.677 105.489 215.137 90.6515C206.596 75.8141 192.734 67.8008 184.185 72.7466Z" fill="#5E17FE" stroke="#050504" stroke-width="0.22522" stroke-miterlimit="10"/>
<path d="M154.92 167.935C165.048 162.075 165.047 143.073 154.919 125.493C144.79 107.913 128.369 98.412 118.241 104.272C108.113 110.132 108.113 129.133 118.242 146.713C128.37 164.293 144.791 173.794 154.92 167.935Z" fill="#5E17FE" stroke="#050504" stroke-width="0.22522" stroke-miterlimit="10"/>
<path d="M149.817 170.886C159.945 165.026 159.945 146.024 149.816 128.444C139.688 110.864 123.267 101.363 113.138 107.223C103.01 113.083 103.011 132.084 113.139 149.664C123.268 167.244 139.689 176.746 149.817 170.886Z" fill="#5E17FE" stroke="#050504" stroke-width="0.22522" stroke-miterlimit="10"/>
<path d="M147.94 167.306C156.168 162.545 155.543 146.021 146.542 130.399C137.542 114.777 123.575 105.973 115.346 110.733C107.118 115.494 107.744 132.018 116.744 147.64C125.744 163.262 139.711 172.066 147.94 167.306Z" fill="#151515" stroke="#050504" stroke-width="0.22522" stroke-miterlimit="10"/>
<path d="M119.217 105.506L124.314 102.556" stroke="#050504" stroke-width="0.22522" stroke-miterlimit="10"/>
<path d="M120.094 105.24L124.35 102.776" stroke="#6E2EFE" stroke-width="0.22522" stroke-miterlimit="10" stroke-linecap="round"/>
<path d="M123.582 105.506L127.838 103.042" stroke="#6E2EFE" stroke-width="0.22522" stroke-miterlimit="10" stroke-linecap="round"/>
<path d="M126.701 106.235L130.957 103.771" stroke="#6E2EFE" stroke-width="0.22522" stroke-miterlimit="10" stroke-linecap="round"/>
<path d="M129.827 107.467L134.083 105.004" stroke="#6E2EFE" stroke-width="0.22522" stroke-miterlimit="10" stroke-linecap="round"/>
<path d="M132.536 108.952L136.792 106.488" stroke="#6E2EFE" stroke-width="0.22522" stroke-miterlimit="10" stroke-linecap="round"/>
<path d="M135.304 110.702L139.56 108.238" stroke="#6E2EFE" stroke-width="0.22522" stroke-miterlimit="10" stroke-linecap="round"/>
<path d="M137.854 112.621L142.11 110.157" stroke="#6E2EFE" stroke-width="0.22522" stroke-miterlimit="10" stroke-linecap="round"/>
<path d="M140.082 114.883L144.338 112.42" stroke="#6E2EFE" stroke-width="0.22522" stroke-miterlimit="10" stroke-linecap="round"/>
<path d="M142.211 117.069L146.467 114.605" stroke="#6E2EFE" stroke-width="0.22522" stroke-miterlimit="10" stroke-linecap="round"/>
<path d="M144.195 119.254L148.451 116.79" stroke="#6E2EFE" stroke-width="0.22522" stroke-miterlimit="10" stroke-linecap="round"/>
<path d="M146.031 121.496L150.287 119.032" stroke="#6E2EFE" stroke-width="0.22522" stroke-miterlimit="10" stroke-linecap="round"/>
<path d="M147.793 123.959L152.049 121.495" stroke="#6E2EFE" stroke-width="0.22522" stroke-miterlimit="10" stroke-linecap="round"/>
<path d="M149.415 126.407L153.671 123.943" stroke="#6E2EFE" stroke-width="0.22522" stroke-miterlimit="10" stroke-linecap="round"/>
<path d="M150.923 128.87L155.179 126.406" stroke="#6E2EFE" stroke-width="0.22522" stroke-miterlimit="10" stroke-linecap="round"/>
<path d="M152.206 131.564L156.462 129.101" stroke="#6E2EFE" stroke-width="0.22522" stroke-miterlimit="10" stroke-linecap="round"/>
<path d="M153.508 134.199L157.764 131.735" stroke="#6E2EFE" stroke-width="0.22522" stroke-miterlimit="10" stroke-linecap="round"/>
<path d="M154.665 136.91L158.921 134.446" stroke="#6E2EFE" stroke-width="0.22522" stroke-miterlimit="10" stroke-linecap="round"/>
<path d="M155.668 139.865L159.924 137.401" stroke="#6E2EFE" stroke-width="0.22522" stroke-miterlimit="10" stroke-linecap="round"/>
<path d="M156.463 142.96L160.719 140.496" stroke="#6E2EFE" stroke-width="0.22522" stroke-miterlimit="10" stroke-linecap="round"/>
<path d="M157.066 146.085L161.323 143.621" stroke="#6E2EFE" stroke-width="0.22522" stroke-miterlimit="10" stroke-linecap="round"/>
<path d="M157.651 149.216L161.907 146.753" stroke="#6E2EFE" stroke-width="0.22522" stroke-miterlimit="10" stroke-linecap="round"/>
<path d="M122.741 105.722L127.838 102.776" stroke="#050504" stroke-width="0.22522" stroke-miterlimit="10"/>
<path d="M125.859 106.488L130.957 103.542" stroke="#050504" stroke-width="0.22522" stroke-miterlimit="10"/>
<path d="M128.989 107.713L134.082 104.768" stroke="#050504" stroke-width="0.22522" stroke-miterlimit="10"/>
<path d="M131.695 109.182L136.793 106.236" stroke="#050504" stroke-width="0.22522" stroke-miterlimit="10"/>
<path d="M134.489 110.943L139.582 107.997" stroke="#050504" stroke-width="0.22522" stroke-miterlimit="10"/>
<path d="M137.012 112.862L142.109 109.916" stroke="#050504" stroke-width="0.22522" stroke-miterlimit="10"/>
<path d="M139.351 114.884L144.448 111.938" stroke="#050504" stroke-width="0.22522" stroke-miterlimit="10"/>
<path d="M141.412 117.069L146.509 114.123" stroke="#050504" stroke-width="0.22522" stroke-miterlimit="10"/>
<path d="M143.482 119.253L148.58 116.303" stroke="#050504" stroke-width="0.22522" stroke-miterlimit="10"/>
<path d="M145.248 121.61L150.341 118.659" stroke="#050504" stroke-width="0.22522" stroke-miterlimit="10"/>
<path d="M147.011 123.965L152.108 121.02" stroke="#050504" stroke-width="0.22522" stroke-miterlimit="10"/>
<path d="M148.624 126.407L153.721 123.461" stroke="#050504" stroke-width="0.22522" stroke-miterlimit="10"/>
<path d="M150.082 128.943L155.179 125.992" stroke="#050504" stroke-width="0.22522" stroke-miterlimit="10"/>
<path d="M151.543 131.475L156.64 128.524" stroke="#050504" stroke-width="0.22522" stroke-miterlimit="10"/>
<path d="M152.666 134.199L157.763 131.253" stroke="#050504" stroke-width="0.22522" stroke-miterlimit="10"/>
<path d="M153.824 136.91L158.921 133.96" stroke="#050504" stroke-width="0.22522" stroke-miterlimit="10"/>
<path d="M155.005 139.771L160.102 136.82" stroke="#050504" stroke-width="0.22522" stroke-miterlimit="10"/>
<path d="M155.867 142.816L160.964 139.865" stroke="#050504" stroke-width="0.22522" stroke-miterlimit="10"/>
<path d="M156.646 145.91L161.743 142.96" stroke="#050504" stroke-width="0.22522" stroke-miterlimit="10"/>
<path d="M157.056 149.216L162.148 146.271" stroke="#050504" stroke-width="0.22522" stroke-miterlimit="10"/>
<path d="M157.375 152.577L162.472 149.627" stroke="#050504" stroke-width="0.22522" stroke-miterlimit="10"/>
<path d="M157.348 156.135L162.445 153.189" stroke="#050504" stroke-width="0.22522" stroke-miterlimit="10"/>
<path d="M156.813 160.208L161.906 157.262" stroke="#050504" stroke-width="0.22522" stroke-miterlimit="10"/>
<path d="M155.621 164.045L160.718 161.095" stroke="#050504" stroke-width="0.22522" stroke-miterlimit="10"/>
<path d="M153.216 168.018L158.313 165.067" stroke="#050504" stroke-width="0.22522" stroke-miterlimit="10"/>
<path opacity="0.8" d="M112.327 110.413L57.3672 142.394L91.6275 201.851L146.636 169.947C156.107 164.465 156.107 146.691 146.636 130.25C137.166 113.809 121.802 104.917 112.327 110.413Z" fill="#FFB4A8" stroke="#050504" stroke-width="0.22522" stroke-miterlimit="10"/>
<path d="M55.6159 143.249L22.4883 162.496L56.7936 222.039L89.9796 202.855L89.9437 202.792C99.419 197.315 99.419 179.541 89.9437 163.1C80.4683 146.659 65.0867 137.767 55.6159 143.249Z" fill="#5E17FE" stroke="#050504" stroke-width="0.22522" stroke-miterlimit="10"/>
<path d="M56.7925 222.042C66.265 216.562 66.2644 198.79 56.7912 182.347C47.3181 165.905 31.9597 157.018 22.4873 162.499C13.0148 167.979 13.0154 185.751 22.4886 202.194C31.9617 218.636 47.3201 227.523 56.7925 222.042Z" fill="#5E17FE" stroke="#050504" stroke-width="0.22522" stroke-miterlimit="10"/>
<path d="M54.2398 223.437C63.7122 217.956 63.7116 200.184 54.2385 183.742C44.7654 167.299 29.4069 158.413 19.9345 163.893C10.4621 169.374 10.4627 187.146 19.9358 203.588C29.409 220.031 44.7674 228.917 54.2398 223.437Z" fill="#5E17FE" stroke="#050504" stroke-width="0.22522" stroke-miterlimit="10"/>
<path opacity="0.8" d="M48.4168 222.923C58.102 217.32 59.0407 200.779 50.5133 185.978C41.986 171.177 27.2219 163.721 17.5366 169.325C7.85142 174.928 6.91275 191.469 15.4401 206.27C23.9674 221.071 38.7316 228.527 48.4168 222.923Z" fill="#FFB4A8" stroke="#050504" stroke-width="0.22522" stroke-miterlimit="10"/>
<path opacity="0.3" d="M43.6153 220.756C51.6402 216.113 52.2674 202.147 45.0163 189.561C37.7651 176.975 25.3814 170.536 17.3565 175.179C9.33163 179.822 8.7044 193.789 15.9556 206.375C23.2067 218.96 35.5904 225.399 43.6153 220.756Z" fill="white"/>
<path d="M82.789 247.047C79.2243 244.77 79.3454 239.524 83.0113 237.414L317.922 102.222C320.782 100.576 324.304 100.588 327.152 102.252C330.184 104.024 330.193 108.403 327.167 110.186L94.5768 247.258C90.9211 249.413 86.3651 249.331 82.789 247.047Z" fill="#151515" fill-opacity="0.15" stroke="#151515" stroke-width="0.5" stroke-miterlimit="10"/>
<path d="M82.959 153.639L50.7871 173.605C54.4466 177.8 58.1353 184.443 59.1939 186.706L91.3754 166.034C89.4307 161.815 84.9399 155.466 82.959 153.639Z" fill="white" fill-opacity="0.1"/>
<path opacity="0.3" d="M138.685 119.785L83.1953 153.505C87.0096 157.744 90.5964 163.721 91.6549 165.984L147.64 132.272C145.297 127.809 140.788 121.644 138.685 119.785Z" fill="white"/>
<path d="M206.85 79.9932L146.928 114.389C151.161 118.907 154.925 125.025 155.996 127.206L216.23 92.9703C213.327 87.2318 209.099 82.0268 206.85 79.9932Z" fill="white" fill-opacity="0.1"/>
<path d="M264.715 48.5576L208.065 80.8962C211.633 84.4493 215.855 91.2764 216.7 93.2794L273.456 60.9478C271.181 55.4877 267.529 51.4977 264.715 48.5576Z" fill="white" fill-opacity="0.1"/>
<path d="M323.608 16.7881L266.072 49.6284C269.945 53.399 273.05 58.8595 274.389 62.2456L332.088 29.3443C329.211 22.3645 325.425 18.2677 323.608 16.7881Z" fill="white" fill-opacity="0.1"/>
<path d="M45.5951 168.709L43.4707 170.045C47.8966 174.049 51.7978 179.296 53.0986 181.621L55.3201 180.236C52.2396 174.735 47.5532 170.259 45.5951 168.709Z" fill="white" fill-opacity="0.1"/>
<path opacity="0.3" d="M16.1727 183.674C14.9891 187.731 14.6146 198.333 22.585 208.288C30.5554 218.243 38.9158 217.359 42.0998 215.672" stroke="white" stroke-width="4" stroke-linecap="round"/>
<path d="M327.691 9.19531L324.02 11.2368C328.732 14.6882 332.094 19.6445 332.995 21.3856L336.57 19.0821C333.465 13.6768 329.357 10.2387 327.691 9.19531Z" fill="white" fill-opacity="0.1"/>
</svg>
