<svg width="232" height="108" viewBox="0 0 232 108" fill="none" xmlns="http://www.w3.org/2000/svg">
<rect width="232" height="108" fill="#013CDB"/>
<path d="M88.2969 37.5C88.2969 31.4249 93.2217 26.5 99.2969 26.5H132.297C138.372 26.5 143.297 31.4249 143.297 37.5V70.5C143.297 76.575 138.372 81.5 132.297 81.5H99.2969C93.2217 81.5 88.2969 76.575 88.2969 70.5V37.5Z" fill="white"/>
<path d="M110.297 26.5H104.797V39.5H110.297V26.5Z" fill="#013CDB"/>
<path d="M119.768 65.5H112.437C108.276 65.5 104.907 62.1149 104.907 57.9336V52.5575H110.455V57.8937C110.455 59.0089 111.327 59.885 112.437 59.885H119.768C120.877 59.885 121.749 59.0089 121.749 57.8937V50.5664C121.749 49.4513 120.877 48.5752 119.768 48.5752H88.2969V43H119.768C123.928 43 127.297 46.3849 127.297 50.5664V57.9336C127.297 62.1149 123.928 65.5 119.768 65.5Z" fill="#013CDB"/>
</svg>
