<svg width="232" height="108" viewBox="0 0 232 108" fill="none" xmlns="http://www.w3.org/2000/svg">
<rect width="232" height="108" fill="#FF6B00"/>
<path d="M97.9967 67.9725C98.1363 68.2227 98.2225 68.4058 98.2594 68.4871C99.1317 70.163 100.201 71.8532 101.664 72.8132L101.808 72.9027C103.462 73.9176 106.426 74.7962 109.474 75.2823C109.677 72.9515 111.087 70.8383 112.485 69.2824C110.658 69.8278 108.761 70.1059 106.853 70.1081C103.771 70.1116 100.733 69.3791 97.9967 67.9725ZM121.327 59.1028C119.589 58.5475 116.984 55.9625 113.029 56.9001C109.766 57.673 108.787 59.9265 108.267 60.7462C107.05 59.5584 105.759 58.753 104.688 58.5699C103.873 58.4336 103.339 58.6797 103.033 58.9075C102.479 59.3265 102.465 59.3407 106.157 66.9536L106.465 67.5861C106.469 67.5983 106.48 67.6064 106.486 67.6187L106.818 68.298C106.818 68.298 107.03 69.0098 108.257 68.6722C108.257 68.6722 116.758 67.8668 119.993 62.0377C120.465 61.0711 120.91 60.0917 121.327 59.1007V59.1028ZM87.7077 48.9273C87.7343 48.4391 87.7015 47.351 86.9954 46.7917C86.4276 48.8597 86.1012 50.9855 86.0226 53.1272C86.6914 53.1951 87.3257 53.4553 87.8472 53.8757C87.6892 52.8689 87.3546 51.1645 87.7097 48.9273H87.7077ZM119.722 74.4606C118.335 72.9718 118.099 70.1874 119.026 66.1461C119.1 65.8288 119.18 65.5136 119.26 65.2024C117.941 66.6037 115.74 67.9725 114.388 69.2702C112.892 70.7061 111.007 73.0044 110.827 75.4715C112.421 75.6627 113.99 75.7542 115.357 75.6545C117.984 75.4633 119.248 74.6701 119.722 74.4606ZM135.742 39.3802C136.401 40.1903 136.953 41.081 137.384 42.0304C138.332 43.7998 141.425 48.8337 145.507 47.8696C145.276 46.4187 144.954 44.9834 144.543 43.5721C144.514 43.4866 144.485 43.4012 144.452 43.3138L144.467 43.3097C144.056 41.951 143.543 40.5843 142.913 39.2317C140.569 40.2039 137.813 39.8907 135.742 39.3802ZM131.487 28.9789C131.59 29.0726 131.662 29.1954 131.692 29.3307C131.723 29.466 131.71 29.6073 131.657 29.7355C130.645 32.1559 128.343 34.1491 126.372 35.4996C128.178 35.4731 130.567 35.825 133.365 37.1714C134.258 37.5457 138.919 39.368 142.314 38.0175C142.303 37.9992 142.289 37.9768 142.281 37.9565C142.213 37.8263 142.139 37.6982 142.069 37.5701C139.705 33.4269 136.355 29.9191 132.31 27.3518C129.344 25.5683 126.03 24.4261 122.587 24C122.917 25.6785 122.734 27.4163 122.062 28.9911C127.271 26.7254 130.046 27.6732 131.487 28.9789ZM121.073 73.8505C123.21 72.8802 125.305 71.8182 127.349 70.6674C127.212 70.6125 127.084 70.5535 126.967 70.4905C124.437 69.1197 123.02 64.401 122.382 60.2784C122.292 60.5119 122.197 60.7432 122.095 60.9719C121.386 62.7593 120.806 64.5944 120.36 66.4634C119.256 71.2695 120.085 73.1427 121.073 73.8484V73.8505ZM137.443 50.0866C134.262 51.8378 131.128 52.7184 128.074 52.7184C126.357 52.7181 124.652 52.4363 123.029 51.8845C123.593 54.1299 123.181 56.3937 123.513 58.4397C123.667 58.4926 123.825 58.5475 123.985 58.5963C128.675 60.1197 132.318 60.3841 134.52 59.3611C135.123 59.0888 135.652 58.6798 136.066 58.1672C137.605 56.2452 137.513 52.2323 137.441 50.0866H137.443Z" fill="white"/>
<path d="M130.071 68.9691L130.075 68.9753C133.344 67.0634 135.309 62.6478 135.998 60.077C135.721 60.2682 135.424 60.439 135.101 60.5896C133.975 61.1123 132.645 61.3279 131.222 61.3279C128.8 61.3279 126.111 60.7055 123.714 59.9387C124.326 63.9109 125.664 68.239 127.626 69.3027C128.359 69.6993 129.159 69.5915 130.071 68.9691ZM122.678 50.3123C123.236 50.5354 123.807 50.7256 124.387 50.8818C128.515 51.9761 132.885 51.1971 137.38 48.5632C137.334 46.1022 136.85 44.1517 136.144 42.606C135.953 42.2439 135.85 42.0161 135.836 41.9877H135.838C135.064 40.5123 133.94 39.2454 132.562 38.2962C129.512 36.8765 127.015 36.7504 125.381 36.9314C130.052 38.7518 130.849 41.3734 130.886 41.4995L130.918 41.6094C130.953 41.7294 130.943 41.8574 130.892 41.9714C130.841 42.0855 130.752 42.1782 130.639 42.2338L130.537 42.2846C126.046 44.5381 121.797 43.2792 119.476 42.1992C120.159 43.7998 121.067 45.9395 121.42 46.7673L121.428 46.7632C121.573 47.0927 121.715 47.4364 121.855 47.7924L121.863 47.8127C122.165 48.5978 122.444 49.4317 122.676 50.3123H122.678ZM137.901 69.8844C136.7 68.1678 136.306 65.6682 136.249 63.3699C135.832 64.3441 135.399 65.2126 134.982 65.959L134.984 65.961C134.923 66.1034 134.847 66.2417 134.761 66.3841C134.063 67.7427 131.809 72.502 132.856 75.5589C133.16 76.4498 133.718 77.1047 134.551 77.5501C135.399 76.9298 137.864 74.9874 140.265 71.7332C139.3 71.3814 138.472 70.7347 137.901 69.8864V69.8844ZM92.063 63.199C90.5113 61.1855 89.3907 59.4526 88.8263 57.6262C88.5163 56.6214 87.4696 54.7299 86 54.4981C86.0205 57.4635 86.4823 60.3272 87.3238 63.0282C89.1649 62.719 90.7371 62.837 92.063 63.199Z" fill="white"/>
<path d="M131.559 75.9901C130.847 73.8993 131.374 71.2817 132.092 69.1644C131.684 69.4827 131.266 69.7879 130.838 70.0796L130.842 70.0857L130.621 70.2241C130.095 70.5797 129.559 70.9221 129.016 71.2512L129.02 71.2573C128.7 71.4546 121.315 76.0837 124.839 82.6918C127.917 81.7487 130.821 80.3194 133.439 78.4592C132.549 77.8696 131.887 76.9995 131.559 75.9901ZM145.696 49.2161C145.284 49.3035 144.871 49.3503 144.461 49.3503C142.433 49.3503 140.425 48.2744 138.574 46.1734C138.569 46.1667 138.564 46.1606 138.558 46.1551C138.683 47.0337 138.749 47.9571 138.749 48.9171C138.769 49.2018 138.786 49.4866 138.798 49.7693C138.942 51.3822 139.508 54.9618 141.702 56.8818C142.771 57.8194 144.124 58.2465 145.731 58.1611C145.745 58.098 145.76 58.0248 145.772 57.9496C145.924 56.733 146 55.5083 146 54.2825C146.002 52.751 145.922 51.0364 145.696 49.2161Z" fill="white"/>
<path d="M140.795 57.8926C139.797 57.0181 139.091 55.8892 138.593 54.7259C138.455 55.8192 138.261 56.9047 138.01 57.978C137.831 59.0214 136.776 65.9061 139.024 69.1156C139.561 69.8864 140.237 70.3603 141.08 70.5678C142.122 69.0103 143.006 67.3549 143.72 65.6254L143.728 65.6295C144.541 63.6872 145.154 61.6431 145.536 59.5218C143.679 59.5685 142.088 59.0235 140.795 57.8926ZM98.4441 71.4505C97.7795 70.4763 97.1915 69.453 96.6852 68.3895C95.8293 66.9068 93.237 63.5183 87.7672 64.3278C88.8695 67.3541 90.4596 70.1833 92.4756 72.7054C94.1073 71.001 96.406 70.9318 98.4441 71.4505ZM115.744 76.9969C113.749 77.1616 111.41 76.9928 109.144 76.6125C107.489 76.4396 102.877 76.2708 99.651 79.1955C103.434 81.646 107.729 83.2123 112.212 83.7758C112.157 81.7846 113.089 79.7284 114.942 77.784C115.209 77.4993 115.48 77.2389 115.742 76.9969H115.744ZM101.01 74.005C100.256 73.5576 95.8006 71.0864 93.3951 73.7061C94.0601 74.5176 95.7821 76.4457 98.5057 78.4064C100.277 76.6918 102.412 75.8477 104.361 75.4633C103.182 75.1311 102.055 74.6405 101.01 74.005ZM124.463 73.7284C122.78 74.5664 118.248 76.0857 115.656 79.0186C114.494 80.3325 113.476 82.0145 113.583 83.8734C114.499 83.9731 116.594 84.1216 119.33 83.8246L119.732 83.7799L119.897 83.7595C121.12 83.6029 122.323 83.3731 123.499 83.0721C121.588 79.2565 122.782 76.0166 124.463 73.7284ZM97.8633 58.4662C97.9474 58.5313 98.0932 58.6248 98.5652 58.6248C99.1317 58.6248 100.17 58.4886 102.145 57.9923C103.848 57.5652 106.414 56.8025 109.277 55.5516C109.595 55.4052 110.406 55.0147 111.342 54.555C111.654 54.9008 111.925 55.3076 112.101 55.7876C117.438 54.6323 119.468 56.9265 121.701 57.7848C122.158 55.6248 122.085 52.7957 121.528 51.3008C116.344 49.0066 113.041 44.5544 111.822 42.669C110.603 43.6087 108.785 44.8595 107.68 47.0724C105.435 51.5713 103.066 55.6167 98.8341 56.9062C98.1096 57.1279 97.6375 57.3048 97.576 57.8255C97.5646 57.9477 97.585 58.0708 97.6353 58.183C97.6856 58.2951 97.7641 58.3926 97.8633 58.4662Z" fill="white"/>
<path d="M101.447 48.9069C102.685 48.0242 104.916 46.4459 105.696 45.8114C107.116 44.6541 111.042 41.5809 112.032 40.806C112.059 40.7842 112.092 40.7688 112.127 40.7611C112.161 40.7533 112.197 40.7533 112.232 40.7611C112.266 40.7689 112.299 40.7843 112.327 40.8062C112.355 40.828 112.377 40.8557 112.393 40.8873C115.451 46.9178 121.036 49.5496 121.036 49.5496C120.796 48.8134 120.508 48.0649 120.174 47.3042L120.18 47.3022L118.271 42.8399C117.852 41.8697 117.528 41.1111 117.434 40.9036L116.543 38.884C116.514 38.8168 116.592 38.7558 116.654 38.7985L118.46 40.086C118.511 40.1226 123.72 43.7287 129.307 41.3612C128.741 40.4663 127.07 38.5951 122.604 37.4704L121.079 37.086C120.97 37.0596 120.956 36.9111 121.058 36.8623L122.481 36.1992C122.54 36.1728 128.24 33.4799 130.177 29.6745C127.628 27.9457 123.179 29.8372 120.67 31.1674L117.811 32.6887C117.744 32.7233 117.676 32.6399 117.725 32.581L119.827 30.1342C119.917 30.0284 121.959 27.5674 121.222 24.1403C119.829 23.9268 115.106 23.6014 110.929 27.9274L110.096 28.7918C110.079 28.809 110.058 28.821 110.034 28.8264C110.011 28.8319 109.986 28.8306 109.963 28.8227C109.94 28.8148 109.92 28.8006 109.905 28.7818C109.89 28.763 109.881 28.7404 109.878 28.7166L109.53 25.2935C107.444 26.1783 101.933 29.2352 101.119 37.0697C100.829 39.8562 100.373 42.2521 99.7516 44.288L99.7475 44.2839L99.6654 44.5707C99.4478 45.248 99.2118 45.8825 98.9573 46.4785C98.7584 46.9071 98.5265 47.3198 98.2635 47.713C97.8058 48.3924 98.0111 48.8459 98.202 49.033C98.5714 49.4073 100.398 49.6554 101.447 48.9069ZM107.633 36.0813C108.559 35.4914 109.542 36.4677 108.949 37.387C108.91 37.448 108.856 37.5009 108.795 37.5396C107.867 38.1294 106.884 37.1531 107.477 36.2358C107.518 36.1748 107.571 36.1219 107.633 36.0813ZM102.75 36.0813C103.678 35.4914 104.659 36.4677 104.066 37.387C104.027 37.448 103.974 37.5009 103.912 37.5396C102.984 38.1294 102.001 37.1531 102.596 36.2358C102.637 36.1748 102.689 36.1219 102.75 36.0813Z" fill="white"/>
</svg>
