<svg width="232" height="108" viewBox="0 0 232 108" fill="none" xmlns="http://www.w3.org/2000/svg">
<path d="M232 0H0V108H232V0Z" fill="#1B2026"/>
<path d="M110.297 26.5H104.797V39.5H110.297V26.5Z" fill="#1B2026"/>
<path d="M119.768 65.5H112.437C108.276 65.5 104.907 62.1149 104.907 57.9336V52.5575H110.455V57.8937C110.455 59.0089 111.327 59.885 112.437 59.885H119.768C120.877 59.885 121.749 59.0089 121.749 57.8937V50.5664C121.749 49.4513 120.877 48.5752 119.768 48.5752H88.2969V43H119.768C123.928 43 127.297 46.3849 127.297 50.5664V57.9336C127.297 62.1149 123.928 65.5 119.768 65.5Z" fill="#1B2026"/>
<g clip-path="url(#clip0)">
<path opacity="0.4" d="M58.3129 65.0116L57.0717 65.4863C57.0717 65.4863 57.0717 65.4863 57.0519 65.506L56.5988 66.7718C56.5397 66.9299 56.323 66.9299 56.2639 66.7718L55.791 65.5258C55.791 65.5258 55.791 65.5258 55.7713 65.506L54.5103 65.0511C54.3527 64.9918 54.3527 64.7743 54.5103 64.7149L55.7516 64.2403C55.7516 64.2403 55.7516 64.2403 55.7713 64.2205L56.2244 62.9548C56.2835 62.7966 56.5003 62.7966 56.5594 62.9548L57.0323 64.2007C57.0323 64.2007 57.0323 64.2007 57.0519 64.2205L58.3129 64.6754C58.4705 64.7149 58.4705 64.9523 58.3129 65.0116Z" fill="white"/>
<path d="M51.4565 66.8904L50.1955 67.3453C50.1955 67.3453 50.1955 67.3453 50.1758 67.365L49.703 68.6308C49.6439 68.789 49.4074 68.789 49.368 68.6308L48.9148 67.365C48.9148 67.365 48.9148 67.365 48.8951 67.3453L47.6341 66.8706C47.4766 66.8113 47.4766 66.574 47.6341 66.5344L48.8951 66.0795C48.8951 66.0795 48.8951 66.0795 48.9148 66.0598L49.3877 64.7941C49.4468 64.6359 49.6832 64.6359 49.7226 64.7941L50.1758 66.0598C50.1758 66.0598 50.1758 66.0598 50.1955 66.0795L51.4565 66.5542C51.6338 66.6135 51.6338 66.8508 51.4565 66.8904Z" fill="white"/>
<path d="M35.8717 55.0838L35.3989 53.8181C35.3989 53.8181 35.3989 53.8181 35.3792 53.7983L34.1182 53.3434C33.9606 53.2841 33.9606 53.0665 34.1182 53.0072L35.3792 52.5325C35.3792 52.5325 35.3792 52.5325 35.3989 52.5128L35.852 51.247C35.9111 51.0888 36.1279 51.0888 36.187 51.247L36.6598 52.5128C36.6598 52.5128 36.6598 52.5128 36.6795 52.5325L37.9405 52.9874C38.0981 53.0467 38.0981 53.2643 37.9405 53.3236L36.6795 53.7983C36.6795 53.7983 36.6795 53.7983 36.6598 53.8181L36.2067 55.0838C36.1476 55.2419 35.9308 55.2419 35.8717 55.0838Z" fill="white"/>
<path opacity="0.7" d="M38.4134 45.927L39.6941 46.4017C39.8517 46.461 39.8517 46.6785 39.6941 46.7378L38.4331 47.2125C38.4331 47.2125 38.4331 47.2125 38.4134 47.2323L37.9603 48.498C37.9011 48.6562 37.6844 48.6562 37.6253 48.498L37.1524 47.252C37.1524 47.252 37.1524 47.252 37.1327 47.2323L35.8718 46.7774C35.7142 46.7181 35.7142 46.5005 35.8718 46.4412L37.1327 45.9665C37.1327 45.9665 37.1327 45.9666 37.1524 45.9468L37.6056 44.6811C37.6647 44.5228 37.8814 44.5228 37.9405 44.6811L38.4134 45.927Z" fill="white"/>
<path opacity="0.7" d="M56.323 39.638L56.7761 40.9037C56.7761 40.9037 56.7761 40.9037 56.7958 40.9235L58.0568 41.3981C58.2145 41.4574 58.2145 41.6948 58.0568 41.7343L56.7958 42.1892C56.7958 42.1892 56.7958 42.1892 56.7761 42.209L56.3033 43.4747C56.2442 43.6329 56.0077 43.6329 55.9683 43.4747L55.5152 42.209C55.5152 42.209 55.5152 42.209 55.4955 42.1892L54.2345 41.7145C54.0769 41.6552 54.0769 41.4179 54.2345 41.3783L55.4955 40.9235C55.4955 40.9235 55.4955 40.9235 55.5152 40.9037L55.988 39.638C56.0472 39.4797 56.2639 39.4797 56.323 39.638Z" fill="white"/>
<path opacity="0.4" d="M61.2486 44.5624L61.7214 45.8281C61.7214 45.8281 61.7214 45.8281 61.7412 45.8479L63.0021 46.3225C63.1598 46.3819 63.1598 46.5994 63.0021 46.6588L61.7412 47.1334C61.7412 47.1334 61.7412 47.1334 61.7214 47.1532L61.2486 48.4189C61.1895 48.5771 60.9728 48.5771 60.9137 48.4189L60.4408 47.1532C60.4408 47.1532 60.4408 47.1532 60.4211 47.1334L59.1601 46.6588C59.0025 46.5994 59.0025 46.3819 59.1601 46.3225L60.4211 45.8479C60.4211 45.8479 60.4211 45.8479 60.4408 45.8281L60.9137 44.5624C60.953 44.4042 61.1895 44.4042 61.2486 44.5624Z" fill="white"/>
<path d="M50.8061 39.8197C50.8415 39.1215 50.3063 38.5268 49.6108 38.4913C48.9153 38.4558 48.3229 38.993 48.2875 39.6911C48.2521 40.3893 48.7873 40.984 49.4828 41.0195C50.1783 41.055 50.7708 40.5178 50.8061 39.8197Z" fill="white"/>
<path opacity="0.4" d="M43.2509 42.7415C43.8702 42.4216 44.1138 41.6584 43.7952 41.0368C43.4765 40.4152 42.7162 40.1706 42.0968 40.4905C41.4776 40.8104 41.234 41.5736 41.5527 42.1952C41.8713 42.8168 42.6317 43.0613 43.2509 42.7415Z" fill="white"/>
<path opacity="0.4" d="M38.5677 61.1873C39.1842 60.862 39.4212 60.0967 39.0972 59.4779C38.7731 58.8591 38.0107 58.6211 37.3942 58.9464C36.7778 59.2717 36.5407 60.037 36.8648 60.6558C37.1888 61.2746 37.9512 61.5125 38.5677 61.1873Z" fill="white"/>
<path opacity="0.7" d="M44.0005 65.6641C44.379 65.0774 44.212 64.2937 43.6274 63.9138C43.0428 63.5338 42.2621 63.7016 41.8836 64.2883C41.5051 64.8751 41.6722 65.6587 42.2567 66.0386C42.8413 66.4186 43.622 66.2509 44.0005 65.6641Z" fill="white"/>
<path opacity="0.7" d="M62.3043 60.4778C62.6695 59.8826 62.4848 59.1029 61.8918 58.7364C61.2989 58.3698 60.5221 58.5551 60.1569 59.1504C59.7917 59.7456 59.9764 60.5253 60.5693 60.8919C61.1623 61.2585 61.9391 61.0731 62.3043 60.4778Z" fill="white"/>
<path d="M64.1363 53.224C64.1744 52.5261 63.6417 51.9292 62.9463 51.8908C62.251 51.8525 61.6563 52.3873 61.6181 53.0853C61.58 53.7833 62.1127 54.3801 62.8081 54.4185C63.5034 54.4568 64.0981 53.922 64.1363 53.224Z" fill="white"/>
<path d="M55.8895 56.646C55.7122 56.9624 55.456 57.2393 55.0619 57.4371L50.8063 59.9487C50.0575 60.3838 49.1512 60.3838 48.4025 59.9685L43.9891 57.4173C43.6542 57.2195 43.3981 56.9624 43.2207 56.6262L49.5256 53.0663L55.8895 56.646Z" fill="white"/>
<path opacity="0.4" d="M56.1456 50.515V55.4395C56.1456 55.8746 56.0669 56.2899 55.8895 56.6261L49.5256 53.0663V45.7092C49.8802 45.729 50.2349 45.8675 50.629 46.085L54.8847 48.4978C55.6137 48.9329 56.1456 49.6646 56.1456 50.515Z" fill="white"/>
<path opacity="0.7" d="M49.5256 45.7095V53.0665L43.2208 56.6263C43.0041 56.2506 42.9055 55.8155 42.9055 55.3408V50.4559C42.9055 49.5858 43.2799 48.9925 44.0483 48.5573L48.5602 45.9468C48.8754 45.7688 49.2104 45.6897 49.5256 45.7095Z" fill="white"/>
<path d="M75.4657 54.125H72.636V58.0203H70.7983V46.4296H75.4657C76.1732 46.4296 76.7972 46.522 77.3379 46.7066C77.8843 46.8855 78.3358 47.1424 78.6924 47.477C79.0317 47.829 79.2905 48.2417 79.4688 48.7149C79.6529 49.1881 79.7449 49.7103 79.7449 50.2817C79.7449 50.9453 79.6385 51.5195 79.4257 52.0043C79.2186 52.489 78.9253 52.8901 78.5457 53.2075C78.1661 53.5191 77.7146 53.7499 77.1912 53.9C76.6678 54.05 76.0927 54.125 75.4657 54.125ZM75.5002 48.1003H72.636V52.463H75.5002C77.0819 52.463 77.8757 51.733 77.8814 50.273C77.8814 48.8245 77.0877 48.1003 75.5002 48.1003Z" fill="white"/>
<path d="M83.277 57.8905C82.7076 57.6597 82.2129 57.3423 81.793 56.9383C81.3732 56.5286 81.0396 56.0439 80.7923 55.4841C80.5507 54.9185 80.4184 54.304 80.3954 53.6403C80.4127 52.9651 80.5421 52.3476 80.7836 51.7879C81.0309 51.2223 81.3617 50.7347 81.7758 50.3249C82.1957 49.9152 82.6903 49.5978 83.2597 49.3728C83.8291 49.1419 84.4473 49.0265 85.1146 49.0265C85.7875 49.0265 86.4087 49.1419 86.978 49.3728C87.5474 49.5978 88.0392 49.9152 88.4533 50.3249C88.8732 50.7289 89.2039 51.2137 89.4455 51.7792C89.6871 52.3448 89.8164 52.9651 89.8337 53.6403C89.8164 54.3154 89.6871 54.9358 89.4455 55.5013C89.2039 56.0669 88.8732 56.5546 88.4533 56.9643C88.0392 57.374 87.5474 57.6943 86.978 57.9251C86.4087 58.1502 85.7875 58.2627 85.1146 58.2627C84.4531 58.2512 83.8406 58.1271 83.277 57.8905ZM83.8895 50.801C83.5157 50.9511 83.1964 51.1617 82.9318 51.433C82.673 51.7042 82.4718 52.0273 82.3279 52.4025C82.1842 52.7776 82.1122 53.1901 82.1122 53.6403C82.1122 54.0904 82.1842 54.503 82.3279 54.8781C82.4718 55.2532 82.673 55.5764 82.9318 55.8476C83.1964 56.1188 83.5128 56.3295 83.8808 56.4795C84.2547 56.6296 84.6659 56.7046 85.1146 56.7046C85.569 56.7046 85.9801 56.6296 86.3483 56.4795C86.7163 56.3237 87.0298 56.1102 87.2886 55.839C87.5474 55.5677 87.7459 55.2446 87.884 54.8695C88.0277 54.4944 88.0996 54.0846 88.0996 53.6403C88.0996 53.1901 88.0277 52.7776 87.884 52.4025C87.7459 52.0273 87.5474 51.7042 87.2886 51.433C87.0298 51.1617 86.7163 50.9511 86.3483 50.801C85.9801 50.651 85.569 50.576 85.1146 50.576C84.6659 50.576 84.2576 50.651 83.8895 50.801Z" fill="white"/>
<path d="M91.2865 45.2091H92.9861V58.0203H91.2865V45.2091Z" fill="white"/>
<path d="M96.2593 49.2603V53.6922C96.2593 54.604 96.498 55.3109 96.9754 55.813C97.4528 56.3151 98.14 56.5661 99.0373 56.5661C99.4917 56.5661 99.8942 56.4997 100.245 56.367C100.602 56.2343 100.901 56.0438 101.143 55.7956C101.384 55.5475 101.568 55.2475 101.695 54.8955C101.821 54.5376 101.884 54.1366 101.884 53.6922V49.2603H103.731V57.9338C103.731 58.6609 103.618 59.2899 103.394 59.8208C103.17 60.3517 102.854 60.7932 102.445 61.1453C102.042 61.4973 101.557 61.7569 100.987 61.9243C100.423 62.0974 99.7962 62.184 99.1063 62.184C98.6232 62.184 98.1487 62.1378 97.6828 62.0455C97.217 61.9589 96.7827 61.8118 96.3801 61.604C95.9775 61.3963 95.6209 61.1222 95.3103 60.7817C95.0054 60.447 94.7668 60.0314 94.5942 59.5352H96.475C96.6188 59.7776 96.7884 59.9795 96.984 60.1411C97.1853 60.3085 97.4039 60.4383 97.6397 60.5307C97.8755 60.6287 98.1228 60.698 98.3816 60.7384C98.6462 60.7788 98.9136 60.799 99.1839 60.799C99.6441 60.799 100.055 60.7442 100.417 60.6345C100.786 60.5307 101.097 60.3662 101.35 60.1411C101.603 59.9161 101.795 59.6275 101.927 59.2755C102.06 58.9235 102.126 58.505 102.126 58.0203V56.6007C102.063 56.9297 101.916 57.1951 101.686 57.3971C101.456 57.5933 101.189 57.7462 100.884 57.8559C100.578 57.9655 100.26 58.0377 99.9257 58.0722C99.5981 58.1069 99.299 58.1242 99.0287 58.1242C98.3327 58.1242 97.7001 58.0348 97.1307 57.8559C96.567 57.6769 96.0839 57.4057 95.6813 57.0422C95.2786 56.6728 94.9681 56.2112 94.7495 55.6572C94.5309 55.0974 94.4217 54.4424 94.4217 53.6922V49.2603H96.2593Z" fill="white"/>
<path d="M105.52 58.0203V49.2603H107.219V58.0203H105.52ZM107.573 46.4036C107.573 46.5768 107.541 46.7355 107.478 46.8798C107.415 47.024 107.329 47.151 107.219 47.2606C107.116 47.3645 106.989 47.4482 106.84 47.5117C106.696 47.5752 106.538 47.6098 106.365 47.6155C106.193 47.6155 106.032 47.5838 105.882 47.5203C105.733 47.4568 105.603 47.3703 105.494 47.2606C105.385 47.151 105.298 47.0211 105.235 46.8711C105.172 46.7211 105.14 46.5595 105.14 46.3864C105.14 46.2132 105.172 46.0545 105.235 45.9103C105.298 45.7602 105.385 45.6333 105.494 45.5294C105.609 45.4197 105.738 45.3331 105.882 45.2697C106.032 45.2062 106.193 45.1745 106.365 45.1745C106.538 45.1745 106.699 45.2062 106.848 45.2697C106.998 45.3331 107.125 45.4197 107.228 45.5294C107.338 45.6391 107.421 45.7689 107.478 45.9189C107.541 46.069 107.573 46.2306 107.573 46.4036Z" fill="white"/>
<path d="M111.519 57.9251C110.944 57.7058 110.447 57.3942 110.027 56.9903C109.607 56.5805 109.279 56.0929 109.043 55.5273C108.807 54.956 108.69 54.327 108.69 53.6403C108.69 52.9535 108.807 52.3274 109.043 51.7619C109.285 51.1963 109.615 50.7116 110.035 50.3077C110.455 49.8979 110.952 49.5834 111.528 49.3641C112.109 49.139 112.736 49.0265 113.408 49.0265C114.087 49.0265 114.711 49.139 115.281 49.3641C115.856 49.5834 116.351 49.8979 116.765 50.3077C117.184 50.7116 117.51 51.1963 117.74 51.7619C117.975 52.3274 118.093 52.9535 118.093 53.6403V54.1596H110.501V54.4973C110.668 55.1955 111.004 55.7466 111.511 56.1506C112.023 56.5546 112.684 56.7565 113.495 56.7565C113.99 56.7565 114.421 56.6873 114.789 56.5488C115.157 56.4045 115.471 56.1824 115.73 55.8823H117.575C117.38 56.2862 117.136 56.6382 116.842 56.9383C116.549 57.2326 116.221 57.4779 115.859 57.6741C115.496 57.8703 115.105 58.0174 114.686 58.1156C114.272 58.2137 113.843 58.2627 113.4 58.2627C112.721 58.2627 112.094 58.1502 111.519 57.9251ZM111.649 51.0867C111.16 51.4272 110.797 51.9206 110.562 52.5669V52.9132H116.264V52.5669C116.029 51.9206 115.657 51.4272 115.151 51.0867C114.646 50.7462 114.059 50.576 113.391 50.576C112.713 50.576 112.132 50.7462 111.649 51.0867Z" fill="white"/>
<path d="M124.524 50.7837C124.214 50.6625 123.897 50.602 123.575 50.602C123.241 50.602 122.919 50.6683 122.609 50.801C122.304 50.9338 122.034 51.1156 121.798 51.3464C121.562 51.5772 121.372 51.8484 121.228 52.1601C121.09 52.4659 121.021 52.7978 121.021 53.1555V58.0203H119.382V49.2343H120.996V50.4115C121.162 50.2269 121.355 50.0479 121.574 49.8748C121.746 49.7421 121.916 49.6296 122.082 49.5372C122.249 49.4391 122.431 49.3641 122.626 49.3122C122.822 49.2545 123.006 49.2141 123.178 49.191C123.35 49.1679 123.523 49.1564 123.696 49.1564C124.202 49.1564 124.708 49.2515 125.214 49.442C125.726 49.6325 126.166 49.8979 126.534 50.2384C126.908 50.5731 127.222 50.9742 127.475 51.4416C127.728 51.909 127.854 52.4227 127.854 52.9824V58.0203H126.155V52.9824C126.155 52.6534 126.08 52.3448 125.931 52.0562C125.781 51.7619 125.586 51.508 125.344 51.2944C125.102 51.0809 124.829 50.9107 124.524 50.7837Z" fill="white"/>
<path d="M134.302 56.0034C134.452 55.8707 134.561 55.7062 134.63 55.5101C134.739 55.2388 134.774 54.8724 134.733 54.4107H136.459V55.5013C136.459 55.9169 136.344 56.2891 136.114 56.618C135.884 56.9469 135.593 57.224 135.243 57.449C134.898 57.674 134.521 57.8472 134.112 57.9684C133.704 58.0838 133.319 58.1415 132.957 58.1415C132.583 58.1415 132.186 58.078 131.766 57.9511C131.346 57.8184 130.966 57.6308 130.627 57.3885C130.288 57.1461 130.009 56.8489 129.79 56.4968C129.577 56.139 129.471 55.7351 129.471 55.2849V46.1786H131.162V49.4333H135.579V50.9222H131.171V54.8868C131.171 55.1119 131.225 55.3196 131.334 55.5101C131.449 55.6947 131.593 55.8563 131.766 55.9948C131.944 56.1333 132.139 56.2429 132.352 56.3237C132.565 56.3987 132.798 56.4362 133.051 56.4362C133.304 56.4362 133.537 56.3987 133.75 56.3237C133.969 56.2429 134.153 56.1362 134.302 56.0034Z" fill="white"/>
<path d="M148.208 46.1959C149.611 46.1959 150.828 46.5509 151.857 47.2606C152.887 47.9705 153.609 48.9226 154.023 50.1172H151.512C151.196 49.5574 150.75 49.1159 150.175 48.7928C149.6 48.4696 148.944 48.308 148.208 48.308C147.069 48.308 146.143 48.6745 145.43 49.4074C144.716 50.1403 144.36 51.078 144.36 52.2206C144.36 53.3633 144.716 54.3068 145.43 55.0513C146.143 55.7899 147.069 56.1593 148.208 56.1593C149.117 56.1593 149.89 55.9515 150.529 55.536C151.167 55.1205 151.619 54.5376 151.883 53.7874V53.7442H147.5V51.7273H154.342V52.8093C154.209 54.402 153.574 55.7062 152.435 56.7219C151.297 57.7376 149.862 58.2454 148.13 58.2454C146.393 58.2454 144.946 57.6799 143.791 56.5488C142.634 55.4119 142.059 53.9692 142.065 52.2206C142.065 50.4664 142.64 49.0236 143.791 47.8926C144.941 46.7615 146.413 46.1959 148.208 46.1959Z" fill="white"/>
<path d="M160.022 49.2429C161.396 49.2429 162.513 49.67 163.369 50.5241C164.232 51.3723 164.664 52.5005 164.664 53.9086V58.2194H162.739V56.5921C162.463 57.1576 162.055 57.6106 161.515 57.9511C160.974 58.2858 160.338 58.4531 159.608 58.4531C158.463 58.4531 157.457 58.0492 156.588 57.2413C155.725 56.4276 155.294 55.3225 155.294 53.9259C155.294 52.5294 155.735 51.3983 156.614 50.5327C157.511 49.6786 158.647 49.2487 160.022 49.2429ZM157.417 53.8393C157.417 54.6184 157.655 55.2532 158.133 55.7437C158.61 56.2343 159.231 56.4795 159.996 56.4795C160.761 56.4795 161.379 56.2343 161.851 55.7437C162.323 55.2532 162.559 54.6184 162.559 53.8393C162.559 53.0603 162.323 52.4255 161.851 51.935C161.379 51.4445 160.761 51.1992 159.996 51.1992C159.231 51.1992 158.61 51.4445 158.133 51.935C157.655 52.4255 157.417 53.0603 157.417 53.8393Z" fill="white"/>
<path d="M168.11 53.0171V58.0203H166.004V53.0171C166.004 51.7071 166.341 50.7145 167.014 50.0393C167.687 49.3641 168.57 49.0294 169.662 49.0351C171.003 49.0351 172.003 49.5487 172.664 50.576H172.708C173.346 49.5487 174.347 49.0351 175.71 49.0351C176.803 49.0351 177.685 49.3699 178.359 50.0393C179.032 50.7087 179.368 51.7013 179.368 53.0171V58.0203H177.263V53.0171C177.263 52.3303 177.105 51.8224 176.788 51.4935C176.478 51.1646 176.052 51.0001 175.511 51.0001C174.971 51.0001 174.543 51.1675 174.226 51.5022C173.909 51.8369 173.748 52.3418 173.743 53.0171V58.0203H171.646V53.0171C171.646 52.3418 171.485 51.8369 171.164 51.5022C170.842 51.1675 170.41 51.0001 169.869 51.0001C169.34 51.0001 168.915 51.1646 168.593 51.4935C168.271 51.8224 168.11 52.3303 168.11 53.0171Z" fill="white"/>
<path d="M185.212 49.0351C186.581 49.0351 187.7 49.468 188.568 50.3336C189.442 51.1992 189.88 52.3014 189.88 53.6403V54.3847H182.719V54.4193C182.862 55.008 183.153 55.4754 183.59 55.8216C184.027 56.1621 184.594 56.3323 185.29 56.3323C186.181 56.3323 186.845 56.0554 187.282 55.5013H189.526C189.192 56.3381 188.646 57.0076 187.886 57.5096C187.127 58.0059 186.233 58.2541 185.203 58.2541C183.829 58.2541 182.701 57.8184 181.822 56.9469C180.947 56.0756 180.51 54.9734 180.51 53.6403C180.51 52.3072 180.95 51.2078 181.83 50.3422C182.716 49.4709 183.843 49.0351 185.212 49.0351ZM182.779 52.6708V52.7054H187.654V52.6708C187.47 52.1572 187.165 51.7503 186.739 51.4502C186.296 51.1502 185.782 51.0001 185.195 51.0001C184.614 51.0001 184.113 51.1444 183.694 51.433C183.28 51.7215 182.975 52.1341 182.779 52.6708Z" fill="white"/>
<path d="M191.712 57.4576C191.033 56.9325 190.694 56.2573 190.694 55.4321H192.816C192.839 56.0842 193.36 56.4102 194.377 56.4102C195.402 56.4102 195.914 56.0957 195.914 55.4667C195.914 54.9474 195.479 54.6588 194.611 54.6011C193.742 54.5434 192.994 54.3934 192.368 54.151C191.856 53.9606 191.479 53.6807 191.237 53.3114C190.996 52.942 190.875 52.4861 190.875 51.9437C190.875 51.0665 191.194 50.3625 191.833 49.8315C192.471 49.3006 193.305 49.038 194.335 49.0438C195.37 49.0438 196.215 49.3035 196.871 49.8229C197.515 50.3365 197.837 50.9886 197.837 51.7792H195.749C195.726 51.5079 195.594 51.2886 195.352 51.1213C195.111 50.954 194.783 50.8703 194.369 50.8703C193.938 50.8703 193.604 50.9626 193.368 51.1473C193.132 51.332 193.009 51.557 192.998 51.8224C192.98 52.3707 193.458 52.6823 194.429 52.7573C195.183 52.815 195.879 52.9391 196.517 53.1296C197.052 53.2911 197.437 53.5652 197.673 53.9519C197.909 54.3328 198.027 54.7887 198.027 55.3196C198.027 56.1967 197.691 56.9037 197.017 57.4404C196.35 57.9771 195.467 58.2454 194.369 58.2454C193.282 58.2454 192.396 57.9828 191.712 57.4576Z" fill="white"/>
</g>
<defs>
<clipPath id="clip0">
<rect width="165" height="31" fill="white" transform="translate(34 38)"/>
</clipPath>
</defs>
</svg>
