<svg width="232" height="108" viewBox="0 0 232 108" fill="none" xmlns="http://www.w3.org/2000/svg">
<path d="M232 0H0V108H232V0Z" fill="#48A55C"/>
<path d="M110.297 26.5H104.797V39.5H110.297V26.5Z" fill="#48A55C"/>
<path d="M119.768 65.5H112.437C108.276 65.5 104.907 62.1149 104.907 57.9336V52.5575H110.455V57.8937C110.455 59.0089 111.327 59.885 112.437 59.885H119.768C120.877 59.885 121.749 59.0089 121.749 57.8937V50.5664C121.749 49.4513 120.877 48.5752 119.768 48.5752H88.2969V43H119.768C123.928 43 127.297 46.3849 127.297 50.5664V57.9336C127.297 62.1149 123.928 65.5 119.768 65.5Z" fill="#48A55C"/>
<path d="M117.317 67.5528H132.171V53.3947H117.317V67.5528ZM123.918 59.3322L124.917 55.4303L125.908 59.3322L130.156 59.0379L126.555 61.1319L128.142 64.8285L124.917 62.2534L121.665 64.8285L123.274 61.1319L119.69 59.0379L123.918 59.3322Z" fill="#FAFAFA"/>
<path d="M100.776 67.5528H115.636V53.3947H100.776V67.5528ZM108.027 59.8235C106.554 61.0744 106.24 62.1616 107.541 63.5673C108.359 64.0251 109.504 64.0251 110.178 63.5673C111.332 62.7754 111.332 60.7498 110.178 60.4336C109.504 59.8235 108.683 60.4336 108.683 60.7498C108.027 60.7498 109.504 59.5223 108.683 59.0496C108.683 58.5738 111.332 59.8235 111.985 59.5223C112.363 59.5223 113.134 59.0496 113.134 59.5223C111.651 61.0745 111.651 62.9376 113.134 65.4171C113.134 65.4171 113.245 65.8437 112.647 65.4171C110.84 64.1815 108.027 64.0251 105.075 65.4171C104.647 65.6239 104.603 65.4171 104.585 65.4171C106.062 62.9376 106.258 60.7234 105.075 58.9684C105.075 58.9684 104.395 57.4374 102.766 55.6664L108.027 59.8235Z" fill="#FAFAFA"/>
<path d="M133.339 52.2379H128.735C128.72 51.532 128.648 50.8419 128.523 50.1674L121.894 51.5463C121.858 51.3628 121.814 51.1824 121.762 51.0054L128.189 48.8273C127.973 48.1266 127.697 47.4506 127.369 46.8114L121.378 50.0284C121.293 49.8596 121.201 49.6958 121.102 49.5371L126.66 45.61C126.247 44.9991 125.784 44.4272 125.283 43.9004L120.458 48.688C120.329 48.5463 120.193 48.4113 120.05 48.2837L124.249 42.941C123.677 42.4757 123.065 42.0538 122.417 41.6908L119.178 47.6401C119.01 47.5397 118.836 47.4484 118.658 47.3665L121.138 41.0701C120.455 40.7875 119.746 40.5655 119.011 40.4075L117.615 47.0117C117.423 46.968 117.228 46.9349 117.029 46.9129L117.599 40.1894C117.207 40.1503 116.813 40.1323 116.415 40.1323C116.061 40.1323 115.709 40.1474 115.36 40.1794L115.926 46.9057C115.732 46.9247 115.541 46.9543 115.353 46.9939L113.957 40.3785C113.216 40.529 112.501 40.7446 111.816 41.0208L114.302 47.3317C114.122 47.411 113.946 47.4999 113.775 47.598L110.523 41.6331C109.868 41.991 109.249 42.4062 108.675 42.8736L112.883 48.2341C112.737 48.3611 112.598 48.4955 112.465 48.637L107.62 43.8293C107.102 44.3568 106.636 44.9306 106.22 45.5409L111.802 49.4876C111.699 49.6483 111.604 49.8147 111.516 49.9861L105.493 46.751C105.16 47.3971 104.876 48.077 104.653 48.7807L111.118 50.9729C111.064 51.1533 111.017 51.3374 110.98 51.5248L104.316 50.1369C104.185 50.822 104.116 51.5232 104.098 52.238H99.6377V81.1948C99.6377 82.6958 100.217 83.5756 101.049 84.0485C101.879 84.5242 102.939 84.621 103.929 84.621H129.071C130.134 84.621 131.204 84.5624 132.013 84.0946C132.827 83.6203 133.363 82.7442 133.351 81.181L133.339 52.2379ZM117.013 53.0993H132.326H132.473V67.8487H117.013V53.0993ZM115.785 53.0993H115.934V67.8487H100.469L100.466 53.0993H115.785ZM100.785 82.9566C100.781 82.9506 100.776 82.9446 100.772 82.9385H100.785V82.9566ZM101.301 83.4209C101.291 83.4145 101.281 83.4083 101.271 83.4017H101.301V83.4209ZM132.525 81.2787C132.525 81.3318 132.488 82.484 131.874 83.0883C131.266 83.6892 130.064 83.7207 130.014 83.7207H103.009C102.974 83.7207 102.007 83.788 101.228 83.0144C100.454 82.2484 100.469 81.3421 100.469 81.3064V68.9709H132.367H132.525V81.2787H132.525Z" fill="#FAFAFA"/>
<path d="M100.776 81.3146C100.776 81.3852 100.788 82.1578 101.438 82.8077C102.112 83.477 102.982 83.4291 103.003 83.4291H130.008C130.02 83.4291 131.148 83.3943 131.666 82.8745C132.185 82.3639 132.22 81.2891 132.22 81.2682V69.2728H100.776V81.3146ZM124.858 70.3613L126.944 76.3085H122.764L124.858 70.3613ZM116.494 70.3613L118.583 76.3085H114.405L116.494 70.3613ZM108.104 70.3613L110.21 76.3085H106.012L108.104 70.3613ZM103.909 78.2818H129.053V80.2539H124.858V82.2323H108.104V80.2539H103.909V78.2818Z" fill="#FAFAFA"/>
<path d="M136.373 17.9456H95.7363C93.1403 17.9473 91.0346 20.1678 91.0346 22.8847V65.5975V84.983C91.0346 87.6415 93.1403 89.8128 95.7362 89.8172H136.373C138.972 89.8128 141.079 87.6415 141.079 84.983V64.8925V63.8202V22.8847C141.079 20.1678 138.972 17.9473 136.373 17.9456ZM139.725 63.8202V64.9529V84.983C139.723 86.8873 138.212 88.4374 136.373 88.4403H95.7361C93.9093 88.4374 92.391 86.8873 92.3859 84.983V65.9196V22.8847C92.391 20.94 93.9094 19.3541 95.7363 19.3507H136.373C138.212 19.3541 139.723 20.94 139.725 22.8847V63.8202Z" fill="#FAFAFA"/>
<path d="M138.797 15.0915H93.3259C90.4727 15.0948 88.1473 17.4005 88.1387 20.2355V63.8199V64.6506V87.556C88.1473 90.3897 90.4727 92.6965 93.3259 92.6965H138.797C141.652 92.6965 143.975 90.3897 143.975 87.556V66.7652V63.8199V20.2355C143.975 17.4005 141.652 15.0948 138.797 15.0915ZM142.628 63.8199V64.6907V87.556C142.626 89.6419 140.898 91.352 138.797 91.352H93.3259C91.2225 91.352 89.5014 89.6419 89.497 87.556V65.0734V63.8199V20.2355C89.5014 18.1461 91.2225 16.4339 93.3259 16.4328H138.797C140.898 16.4339 142.626 18.1461 142.628 20.2355V63.8199Z" fill="#FAFAFA"/>
<path d="M102.514 22.8612H103.273C103.72 22.8612 104.009 23.1022 104.009 23.5127V23.518C104.009 23.955 103.687 24.1855 103.247 24.1855H103.005V24.7151H102.514V22.8612ZM103.237 23.7829C103.412 23.7829 103.518 23.6875 103.518 23.5418V23.5365C103.518 23.3776 103.412 23.2929 103.235 23.2929H103.005V23.7829H103.237Z" fill="#FAFAFA"/>
<path d="M104.155 23.7925V23.7872C104.155 23.2549 104.565 22.8232 105.111 22.8232C105.657 22.8232 106.062 23.2496 106.062 23.7819V23.7872C106.062 24.3196 105.652 24.7513 105.106 24.7513C104.56 24.7513 104.155 24.3249 104.155 23.7925ZM105.561 23.7925V23.7872C105.561 23.5197 105.377 23.2867 105.106 23.2867C104.838 23.2867 104.659 23.5144 104.659 23.7819V23.7872C104.659 24.0547 104.843 24.2878 105.111 24.2878C105.382 24.2878 105.561 24.06 105.561 23.7925Z" fill="#FAFAFA"/>
<path d="M106.317 22.8612H107C107.632 22.8612 107.999 23.2425 107.999 23.7776V23.7829C107.999 24.3179 107.627 24.7151 106.99 24.7151H106.317V22.8612ZM107.008 24.2596C107.301 24.2596 107.496 24.0901 107.496 23.7908V23.7855C107.496 23.4889 107.301 23.3167 107.008 23.3167H106.808V24.2596H107.008V24.2596Z" fill="#FAFAFA"/>
<path d="M108.252 22.8612H109.676V23.2982H108.737V23.579H109.587V23.9842H108.737V24.2781H109.688V24.7151H108.252V22.8612H108.252Z" fill="#FAFAFA"/>
<path d="M109.939 22.8612H110.776C111.046 22.8612 111.233 22.9354 111.352 23.0625C111.456 23.1684 111.509 23.3114 111.509 23.4942V23.4995C111.509 23.7829 111.365 23.9709 111.145 24.0689L111.567 24.7151H111.001L110.644 24.1536H110.639H110.429V24.7151H109.939V22.8612V22.8612ZM110.753 23.7511C110.92 23.7511 111.016 23.6663 111.016 23.5312V23.5259C111.016 23.3803 110.915 23.3061 110.75 23.3061H110.429V23.7511H110.753V23.7511Z" fill="#FAFAFA"/>
<path d="M112.457 22.8612H112.948V24.2649H113.805V24.7151H112.457V22.8612H112.457Z" fill="#FAFAFA"/>
<path d="M114.015 22.8612H115.439V23.2982H114.501V23.579H115.35V23.9842H114.501V24.2781H115.451V24.7151H114.015V22.8612H114.015Z" fill="#FAFAFA"/>
<path d="M115.628 23.7925V23.7872C115.628 23.2469 116.033 22.8232 116.581 22.8232C116.893 22.8232 117.113 22.9238 117.3 23.0933L117.011 23.4562C116.885 23.3449 116.759 23.2814 116.584 23.2814C116.329 23.2814 116.131 23.5065 116.131 23.7899V23.7952C116.131 24.0945 116.331 24.309 116.612 24.309C116.731 24.309 116.822 24.2825 116.895 24.2322V24.0071H116.546V23.631H117.36V24.4653C117.173 24.6269 116.913 24.7513 116.592 24.7513C116.04 24.7513 115.628 24.354 115.628 23.7925Z" fill="#FAFAFA"/>
<path d="M117.643 22.8612H118.137V24.7151H117.643V22.8612Z" fill="#FAFAFA"/>
<path d="M118.326 24.4391L118.6 24.0975C118.774 24.2432 118.969 24.3199 119.174 24.3199C119.305 24.3199 119.376 24.2723 119.376 24.1928V24.1875C119.376 24.1107 119.318 24.0683 119.078 24.0101C118.701 23.92 118.41 23.8088 118.41 23.4274V23.4221C118.41 23.0778 118.67 22.8288 119.095 22.8288C119.396 22.8288 119.631 22.9136 119.824 23.0751L119.578 23.438C119.416 23.3188 119.239 23.2552 119.083 23.2552C118.964 23.2552 118.906 23.3082 118.906 23.3744V23.3797C118.906 23.4644 118.966 23.5015 119.212 23.5598C119.619 23.6525 119.872 23.7902 119.872 24.1372V24.1425C119.872 24.5212 119.586 24.7463 119.156 24.7463C118.842 24.7463 118.544 24.6431 118.326 24.4391Z" fill="#FAFAFA"/>
<path d="M120.109 22.8612H120.6V24.2649H121.457V24.7151H120.109V22.8612Z" fill="#FAFAFA"/>
<path d="M122.279 22.8477H122.752L123.505 24.7149H122.979L122.85 24.3838H122.168L122.041 24.7149H121.525L122.279 22.8477ZM122.709 23.9839L122.512 23.4569L122.312 23.9839H122.709Z" fill="#FAFAFA"/>
<path d="M123.882 23.3114H123.351V22.8612H124.904V23.3114H124.373V24.7151H123.882V23.3114H123.882Z" fill="#FAFAFA"/>
<path d="M125.129 22.8612H125.622V24.7151H125.129V22.8612Z" fill="#FAFAFA"/>
<path d="M125.804 22.8612H126.353L126.755 24.0345L127.157 22.8612H127.695L126.977 24.7284H126.522L125.804 22.8612Z" fill="#FAFAFA"/>
<path d="M127.693 23.7925V23.7872C127.693 23.2549 128.103 22.8232 128.649 22.8232C129.195 22.8232 129.6 23.2496 129.6 23.7819V23.7872C129.6 24.3196 129.19 24.7513 128.644 24.7513C128.098 24.7513 127.693 24.3249 127.693 23.7925ZM129.099 23.7925V23.7872C129.099 23.5197 128.914 23.2867 128.644 23.2867C128.376 23.2867 128.196 23.5144 128.196 23.7819V23.7872C128.196 24.0547 128.381 24.2878 128.649 24.2878C128.92 24.2878 129.099 24.06 129.099 23.7925Z" fill="#FAFAFA"/>
<path d="M94.4804 26.0382H95.1632C95.7954 26.0382 96.1621 26.4196 96.1621 26.9546V26.9599C96.1621 27.4949 95.7904 27.8922 95.1531 27.8922H94.4804V26.0382H94.4804ZM95.1708 27.4366C95.4641 27.4366 95.6588 27.2671 95.6588 26.9678V26.9625C95.6588 26.6659 95.4641 26.4937 95.1708 26.4937H94.971V27.4366H95.1708V27.4366Z" fill="#FAFAFA"/>
<path d="M96.4149 26.0382H97.8386V26.4752H96.9004V26.756H97.7501V27.1612H96.9004V27.4551H97.8512V27.8922H96.4149V26.0382H96.4149Z" fill="#FAFAFA"/>
<path d="M98.1015 26.0382H98.5921V27.4419H99.4494V27.8922H98.1015V26.0382Z" fill="#FAFAFA"/>
<path d="M100.36 26.0382H101.784V26.4752H100.845V26.756H101.695V27.1612H100.845V27.4551H101.796V27.8922H100.36V26.0382H100.36Z" fill="#FAFAFA"/>
<path d="M101.912 27.6167L102.186 27.2751C102.36 27.4208 102.555 27.4975 102.76 27.4975C102.891 27.4975 102.962 27.4499 102.962 27.3704V27.3651C102.962 27.2883 102.904 27.2459 102.664 27.1877C102.287 27.0976 101.996 26.9864 101.996 26.605V26.5997C101.996 26.2554 102.256 26.0064 102.681 26.0064C102.982 26.0064 103.217 26.0912 103.41 26.2528L103.164 26.6156C103.002 26.4964 102.825 26.4329 102.669 26.4329C102.55 26.4329 102.492 26.4858 102.492 26.552V26.5573C102.492 26.6421 102.552 26.6791 102.798 26.7374C103.205 26.8301 103.458 26.9678 103.458 27.3148V27.3201C103.458 27.6988 103.172 27.9239 102.742 27.9239C102.428 27.9239 102.13 27.8207 101.912 27.6167Z" fill="#FAFAFA"/>
<path d="M104.077 26.4884H103.546V26.0382H105.099V26.4884H104.568V27.8922H104.077V26.4884Z" fill="#FAFAFA"/>
<path d="M105.698 26.0248H106.171L106.924 27.892H106.398L106.269 27.561H105.587L105.46 27.892H104.944L105.698 26.0248ZM106.128 27.1611L105.931 26.634L105.731 27.1611H106.128Z" fill="#FAFAFA"/>
<path d="M107.096 26.0382H107.779C108.411 26.0382 108.778 26.4196 108.778 26.9546V26.9599C108.778 27.4949 108.406 27.8922 107.769 27.8922H107.096V26.0382H107.096ZM107.787 27.4366C108.08 27.4366 108.275 27.2671 108.275 26.9678V26.9625C108.275 26.6659 108.08 26.4937 107.787 26.4937H107.587V27.4366H107.787V27.4366Z" fill="#FAFAFA"/>
<path d="M108.97 26.9705V26.9652C108.97 26.4329 109.38 26.0011 109.926 26.0011C110.472 26.0011 110.877 26.4276 110.877 26.9599V26.9652C110.877 27.4976 110.467 27.9293 109.921 27.9293C109.375 27.9293 108.97 27.5029 108.97 26.9705ZM110.376 26.9705V26.9652C110.376 26.6977 110.192 26.4647 109.921 26.4647C109.653 26.4647 109.473 26.6924 109.473 26.9599V26.9652C109.473 27.2327 109.658 27.4658 109.926 27.4658C110.197 27.4658 110.376 27.238 110.376 26.9705Z" fill="#FAFAFA"/>
<path d="M111.833 26.0382H112.323V27.4419H113.181V27.8922H111.833V26.0382H111.833Z" fill="#FAFAFA"/>
<path d="M113.4 26.0382H113.894V27.8922H113.4V26.0382Z" fill="#FAFAFA"/>
<path d="M114.217 26.0382H115.125C115.348 26.0382 115.504 26.0965 115.608 26.2051C115.679 26.2792 115.722 26.3772 115.722 26.5043V26.5096C115.722 26.7241 115.606 26.8513 115.449 26.9228C115.664 26.997 115.8 27.1241 115.8 27.3757V27.381C115.8 27.6988 115.553 27.8921 115.13 27.8921H114.217V26.0382ZM115.004 26.7771C115.153 26.7771 115.236 26.7242 115.236 26.6156V26.6103C115.236 26.5097 115.161 26.4514 115.014 26.4514H114.695V26.7771H115.004ZM115.075 27.479C115.224 27.479 115.31 27.4181 115.31 27.3095V27.3042C115.31 27.2035 115.234 27.1373 115.069 27.1373H114.695V27.479H115.075V27.479Z" fill="#FAFAFA"/>
<path d="M116.025 26.0382H116.862C117.133 26.0382 117.32 26.1124 117.439 26.2395C117.543 26.3454 117.596 26.4884 117.596 26.6712V26.6765C117.596 26.9599 117.452 27.1479 117.232 27.2459L117.654 27.8922H117.087L116.731 27.3307H116.726H116.516V27.8922H116.025V26.0382H116.025ZM116.84 26.9281C117.006 26.9281 117.103 26.8434 117.103 26.7083V26.703C117.103 26.5573 117.001 26.4831 116.837 26.4831H116.516V26.9281H116.84V26.9281Z" fill="#FAFAFA"/>
<path d="M117.843 26.0382H119.267V26.4752H118.329V26.756H119.179V27.1612H118.329V27.4551H119.28V27.8922H117.843V26.0382Z" fill="#FAFAFA"/>
<path d="M120.741 27.1983L120.069 26.0382H120.627L120.992 26.7136L121.358 26.0382H121.907L121.234 27.1903V27.8921H120.741V27.1983Z" fill="#FAFAFA"/>
<path d="M122.626 27.6167L122.899 27.2751C123.073 27.4208 123.268 27.4975 123.473 27.4975C123.604 27.4975 123.675 27.4499 123.675 27.3704V27.3651C123.675 27.2883 123.617 27.2459 123.377 27.1877C123 27.0976 122.709 26.9864 122.709 26.605V26.5997C122.709 26.2554 122.97 26.0064 123.394 26.0064C123.695 26.0064 123.931 26.0912 124.123 26.2528L123.877 26.6156C123.716 26.4964 123.539 26.4329 123.382 26.4329C123.263 26.4329 123.205 26.4858 123.205 26.552V26.5573C123.205 26.6421 123.265 26.6791 123.511 26.7374C123.918 26.8301 124.171 26.9678 124.171 27.3148V27.3201C124.171 27.6988 123.885 27.9239 123.455 27.9239C123.141 27.9239 122.843 27.8207 122.626 27.6167Z" fill="#FAFAFA"/>
<path d="M124.347 26.9705V26.9652C124.347 26.4329 124.757 26.0011 125.303 26.0011C125.85 26.0011 126.254 26.4276 126.254 26.9599V26.9652C126.254 27.4976 125.845 27.9293 125.298 27.9293C124.752 27.9293 124.347 27.5029 124.347 26.9705ZM125.753 26.9705V26.9652C125.753 26.6977 125.569 26.4647 125.298 26.4647C125.03 26.4647 124.851 26.6924 124.851 26.9599V26.9652C124.851 27.2327 125.035 27.4658 125.303 27.4658C125.574 27.4658 125.753 27.238 125.753 26.9705Z" fill="#FAFAFA"/>
<path d="M126.509 26.0382H127.417C127.64 26.0382 127.797 26.0965 127.9 26.2051C127.971 26.2792 128.014 26.3772 128.014 26.5043V26.5096C128.014 26.7241 127.898 26.8513 127.741 26.9228C127.956 26.997 128.093 27.1241 128.093 27.3757V27.381C128.093 27.6988 127.845 27.8921 127.422 27.8921H126.509V26.0382H126.509ZM127.296 26.7771C127.445 26.7771 127.529 26.7242 127.529 26.6156V26.6103C127.529 26.5097 127.453 26.4514 127.306 26.4514H126.987V26.7771H127.296ZM127.367 27.479C127.516 27.479 127.602 27.4181 127.602 27.3095V27.3042C127.602 27.2035 127.526 27.1373 127.362 27.1373H126.987V27.479H127.367V27.479Z" fill="#FAFAFA"/>
<path d="M128.318 26.0382H129.741V26.4752H128.803V26.756H129.653V27.1612H128.803V27.4551H129.754V27.8922H128.317V26.0382H128.318Z" fill="#FAFAFA"/>
<path d="M130.004 26.0382H130.841C131.112 26.0382 131.299 26.1124 131.418 26.2395C131.521 26.3454 131.575 26.4884 131.575 26.6712V26.6765C131.575 26.9599 131.43 27.1479 131.21 27.2459L131.633 27.8922H131.066L130.71 27.3307H130.705H130.495V27.8922H130.004V26.0382H130.004ZM130.818 26.9281C130.985 26.9281 131.081 26.8434 131.081 26.7083V26.703C131.081 26.5573 130.98 26.4831 130.816 26.4831H130.495V26.9281H130.818V26.9281Z" fill="#FAFAFA"/>
<path d="M132.404 26.0248H132.877L133.63 27.892H133.104L132.975 27.561H132.293L132.166 27.892H131.65L132.404 26.0248ZM132.834 27.1611L132.637 26.634L132.437 27.1611H132.834Z" fill="#FAFAFA"/>
<path d="M133.802 26.0382H134.26L134.988 27.0181V26.0382H135.474V27.8922H135.044L134.288 26.8752V27.8922H133.802V26.0382V26.0382Z" fill="#FAFAFA"/>
<path d="M135.727 26.9705V26.9652C135.727 26.4329 136.136 26.0011 136.683 26.0011C137.229 26.0011 137.633 26.4276 137.633 26.9599V26.9652C137.633 27.4976 137.224 27.9293 136.678 27.9293C136.131 27.9293 135.727 27.5029 135.727 26.9705ZM137.133 26.9705V26.9652C137.133 26.6977 136.948 26.4647 136.678 26.4647C136.41 26.4647 136.23 26.6924 136.23 26.9599V26.9652C136.23 27.2327 136.415 27.4658 136.683 27.4658C136.953 27.4658 137.133 27.238 137.133 26.9705Z" fill="#FAFAFA"/>
<path d="M103.524 29.2162H104.207C104.839 29.2162 105.206 29.5976 105.206 30.1326V30.1379C105.206 30.6729 104.834 31.0701 104.197 31.0701H103.524V29.2162H103.524ZM104.215 30.6146C104.508 30.6146 104.703 30.4451 104.703 30.1458V30.1405C104.703 29.8439 104.508 29.6717 104.215 29.6717H104.015V30.6146H104.215V30.6146Z" fill="#FAFAFA"/>
<path d="M105.459 29.2162H106.883V29.6532H105.944V29.934H106.794V30.3392H105.944V30.6331H106.895V31.0701H105.459V29.2162Z" fill="#FAFAFA"/>
<path d="M109.275 30.943C109.123 31.0463 108.939 31.1073 108.736 31.1073C108.19 31.1073 107.785 30.6808 107.785 30.1485V30.1432C107.785 29.6108 108.195 29.1791 108.741 29.1791C109.288 29.1791 109.692 29.6055 109.692 30.1379V30.1432C109.692 30.3392 109.637 30.5246 109.535 30.6755L109.717 30.8371L109.47 31.1258L109.275 30.943ZM108.921 30.6173L108.676 30.3975L108.923 30.1062L109.164 30.3339C109.184 30.2783 109.194 30.2174 109.194 30.1538V30.1485C109.194 29.8784 109.009 29.6427 108.736 29.6427C108.468 29.6427 108.289 29.8757 108.289 30.1432V30.1485C108.289 30.416 108.471 30.6517 108.741 30.6517C108.807 30.6517 108.868 30.6385 108.921 30.6173Z" fill="#FAFAFA"/>
<path d="M109.925 30.257V29.2162H110.423V30.2465C110.423 30.514 110.552 30.6411 110.749 30.6411C110.946 30.6411 111.075 30.5193 111.075 30.2597V29.2162H111.574V30.2438C111.574 30.8424 111.247 31.1046 110.744 31.1046C110.241 31.1045 109.925 30.837 109.925 30.257Z" fill="#FAFAFA"/>
<path d="M111.874 29.2162H112.367V31.0701H111.874V29.2162Z" fill="#FAFAFA"/>
<path d="M112.691 29.2162H113.149L113.877 30.1961V29.2162H114.363V31.0701H113.933L113.177 30.0531V31.0701H112.691V29.2162H112.691Z" fill="#FAFAFA"/>
<path d="M115.109 29.6664H114.578V29.2162H116.13V29.6664H115.599V31.0701H115.109V29.6664H115.109Z" fill="#FAFAFA"/>
<path d="M116.729 29.2028H117.202L117.956 31.07H117.43L117.301 30.739H116.618L116.492 31.07H115.976L116.729 29.2028ZM117.159 30.339L116.962 29.812L116.762 30.339H117.159Z" fill="#FAFAFA"/>
<path d="M118.128 29.2162H118.586L119.314 30.1961V29.2162H119.799V31.0701H119.37L118.613 30.0531V31.0701H118.128V29.2162Z" fill="#FAFAFA"/>
<path d="M120.725 29.2028H121.198L121.951 31.07H121.425L121.296 30.739H120.614L120.487 31.07H119.971L120.725 29.2028ZM121.155 30.339L120.957 29.812L120.758 30.339H121.155Z" fill="#FAFAFA"/>
<path d="M122.824 29.2162H123.661C123.932 29.2162 124.119 29.2904 124.237 29.4175C124.341 29.5234 124.394 29.6664 124.394 29.8492V29.8545C124.394 30.1379 124.25 30.3259 124.03 30.4239L124.452 31.0701H123.886L123.529 30.5086H123.524H123.314V31.0701H122.824V29.2162H122.824ZM123.638 30.1061C123.805 30.1061 123.901 30.0213 123.901 29.8862V29.8809C123.901 29.7353 123.8 29.6611 123.636 29.6611H123.314V30.1061H123.638V30.1061Z" fill="#FAFAFA"/>
<path d="M124.581 30.1485V30.1432C124.581 29.6108 124.991 29.1791 125.537 29.1791C126.083 29.1791 126.488 29.6055 126.488 30.1379V30.1432C126.488 30.6756 126.078 31.1073 125.532 31.1073C124.986 31.1073 124.581 30.6809 124.581 30.1485ZM125.987 30.1485V30.1432C125.987 29.8757 125.803 29.6426 125.532 29.6426C125.264 29.6426 125.084 29.8704 125.084 30.1379V30.1432C125.084 30.4107 125.269 30.6437 125.537 30.6437C125.808 30.6438 125.987 30.416 125.987 30.1485Z" fill="#FAFAFA"/>
<path d="M126.683 30.1485V30.1432C126.683 29.6108 127.092 29.1791 127.639 29.1791C128.185 29.1791 128.589 29.6055 128.589 30.1379V30.1432C128.589 30.6756 128.18 31.1073 127.634 31.1073C127.087 31.1073 126.683 30.6809 126.683 30.1485ZM128.089 30.1485V30.1432C128.089 29.8757 127.904 29.6426 127.634 29.6426C127.366 29.6426 127.186 29.8704 127.186 30.1379V30.1432C127.186 30.4107 127.37 30.6437 127.639 30.6437C127.909 30.6438 128.089 30.416 128.089 30.1485Z" fill="#FAFAFA"/>
<path d="M94.4848 34.7414H94.897V35.3244H95.426V34.7414H95.8382V36.2989H95.426V35.7071H94.897V36.2989H94.4848V34.7414Z" fill="#FAFAFA"/>
<path d="M96.0616 35.8645H96.4822V36.2983H96.0616V35.8645Z" fill="#FAFAFA"/>
<path d="M97.6953 35.5072L97.2066 34.7418H97.6804L97.9439 35.1801L98.2095 34.7418H98.6726L98.1839 35.5027L98.6939 36.2992H98.2201L97.9354 35.8297L97.6486 36.2992H97.1854L97.6953 35.5072Z" fill="#FAFAFA"/>
<path d="M98.6875 34.7418H99.1486L99.4864 35.7274L99.8242 34.7418H100.277L99.6734 36.3103H99.2909L98.6875 34.7418Z" fill="#FAFAFA"/>
<path d="M100.43 34.7418H100.844V36.2993H100.43V34.7418Z" fill="#FAFAFA"/>
<path d="M101.705 34.7418H102.117V35.921H102.837V36.2992H101.705V34.7418Z" fill="#FAFAFA"/>
<path d="M103.014 34.7418H104.21V35.1089H103.421V35.3448H104.135V35.6852H103.421V35.9321H104.22V36.2992H103.014V34.7418V34.7418Z" fill="#FAFAFA"/>
<path d="M104.369 35.5242V35.5198C104.369 35.0659 104.709 34.7099 105.17 34.7099C105.431 34.7099 105.616 34.7945 105.773 34.9369L105.531 35.2417C105.425 35.1482 105.319 35.0948 105.172 35.0948C104.957 35.0948 104.792 35.2839 104.792 35.522V35.5265C104.792 35.7779 104.96 35.9581 105.195 35.9581C105.295 35.9581 105.372 35.9358 105.433 35.8936V35.7045H105.14V35.3886H105.824V36.0894C105.667 36.2251 105.448 36.3297 105.178 36.3297C104.715 36.3296 104.369 35.9959 104.369 35.5242Z" fill="#FAFAFA"/>
<path d="M106.062 34.7418H106.476V36.2993H106.062V34.7418Z" fill="#FAFAFA"/>
<path d="M106.636 36.0671L106.865 35.7801C107.012 35.9025 107.176 35.967 107.348 35.967C107.458 35.967 107.518 35.927 107.518 35.8602V35.8558C107.518 35.7913 107.469 35.7557 107.267 35.7067C106.95 35.631 106.706 35.5376 106.706 35.2172V35.2128C106.706 34.9235 106.925 34.7144 107.282 34.7144C107.535 34.7144 107.732 34.7856 107.894 34.9213L107.688 35.2261C107.552 35.126 107.403 35.0726 107.271 35.0726C107.171 35.0726 107.123 35.1171 107.123 35.1727V35.1772C107.123 35.2484 107.174 35.2795 107.38 35.3285C107.722 35.4063 107.934 35.522 107.934 35.8135V35.8179C107.934 36.1361 107.694 36.3252 107.333 36.3252C107.069 36.3252 106.819 36.2384 106.636 36.0671Z" fill="#FAFAFA"/>
<path d="M108.134 34.7418H108.546V35.921H109.266V36.2992H108.134V34.7418Z" fill="#FAFAFA"/>
<path d="M109.957 34.7305H110.354L110.988 36.299H110.546L110.437 36.0209H109.864L109.757 36.299H109.324L109.957 34.7305ZM110.318 35.685L110.153 35.2422L109.985 35.685H110.318Z" fill="#FAFAFA"/>
<path d="M111.304 35.12H110.858V34.7418H112.162V35.12H111.716V36.2993H111.304V35.12V35.12Z" fill="#FAFAFA"/>
<path d="M112.324 35.6162V34.7418H112.742V35.6073C112.742 35.832 112.851 35.9388 113.016 35.9388C113.182 35.9388 113.291 35.8365 113.291 35.6184V34.7418H113.709V35.6051C113.709 36.1079 113.435 36.3282 113.012 36.3282C112.589 36.3282 112.324 36.1035 112.324 35.6162Z" fill="#FAFAFA"/>
<path d="M113.953 34.7418H114.657C114.884 34.7418 115.041 34.8041 115.141 34.9109C115.228 34.9999 115.273 35.12 115.273 35.2736V35.278C115.273 35.5161 115.152 35.674 114.967 35.7564L115.322 36.2992H114.846L114.546 35.8275H114.542H114.365V36.2992H113.953V34.7418H113.953ZM114.637 35.4894C114.778 35.4894 114.858 35.4182 114.858 35.3047V35.3003C114.858 35.1779 114.773 35.1156 114.635 35.1156H114.366V35.4894H114.637V35.4894Z" fill="#FAFAFA"/>
<path d="M115.97 34.7305H116.367L117 36.299H116.558L116.45 36.0209H115.876L115.77 36.299H115.337L115.97 34.7305ZM116.331 35.685L116.165 35.2422L115.997 35.685H116.331Z" fill="#FAFAFA"/>
<path d="M117.682 35.5242V35.5198C117.682 35.0659 118.016 34.7099 118.466 34.7099C118.77 34.7099 118.966 34.8434 119.097 35.0348L118.787 35.2862C118.702 35.1749 118.604 35.1037 118.462 35.1037C118.254 35.1037 118.107 35.2884 118.107 35.5154V35.5198C118.107 35.7534 118.254 35.9358 118.462 35.9358C118.617 35.9358 118.708 35.8602 118.798 35.7467L119.108 35.9781C118.968 36.1806 118.779 36.3297 118.449 36.3297C118.024 36.3296 117.682 35.9893 117.682 35.5242Z" fill="#FAFAFA"/>
<path d="M119.191 35.5242V35.5198C119.191 35.0726 119.535 34.7099 119.994 34.7099C120.453 34.7099 120.793 35.0681 120.793 35.5153V35.5198C120.793 35.967 120.449 36.3296 119.99 36.3296C119.531 36.3296 119.191 35.9715 119.191 35.5242ZM120.372 35.5242V35.5198C120.372 35.2951 120.217 35.0993 119.99 35.0993C119.765 35.0993 119.614 35.2906 119.614 35.5153V35.5198C119.614 35.7445 119.769 35.9402 119.994 35.9402C120.221 35.9403 120.372 35.749 120.372 35.5242Z" fill="#FAFAFA"/>
<path d="M121.007 34.7418H121.392L122.004 35.565V34.7418H122.412V36.2993H122.051L121.415 35.4449V36.2993H121.007V34.7418V34.7418Z" fill="#FAFAFA"/>
<path d="M122.563 36.0671L122.792 35.7801C122.939 35.9025 123.102 35.967 123.274 35.967C123.385 35.967 123.444 35.927 123.444 35.8602V35.8558C123.444 35.7913 123.396 35.7557 123.194 35.7067C122.877 35.631 122.633 35.5376 122.633 35.2172V35.2128C122.633 34.9235 122.852 34.7144 123.209 34.7144C123.461 34.7144 123.659 34.7856 123.82 34.9213L123.614 35.2261C123.478 35.126 123.33 35.0726 123.198 35.0726C123.098 35.0726 123.049 35.1171 123.049 35.1727V35.1772C123.049 35.2484 123.1 35.2795 123.306 35.3285C123.648 35.4063 123.861 35.522 123.861 35.8135V35.8179C123.861 36.1361 123.621 36.3252 123.26 36.3252C122.996 36.3252 122.745 36.2384 122.563 36.0671Z" fill="#FAFAFA"/>
<path d="M124.382 35.12H123.935V34.7418H125.24V35.12H124.794V36.2993H124.382V35.12V35.12Z" fill="#FAFAFA"/>
<path d="M125.429 34.7418H125.843V36.2993H125.429V34.7418Z" fill="#FAFAFA"/>
<path d="M126.479 35.12H126.032V34.7418H127.337V35.12H126.891V36.2993H126.479V35.12V35.12Z" fill="#FAFAFA"/>
<path d="M127.498 35.6162V34.7418H127.917V35.6073C127.917 35.832 128.025 35.9388 128.191 35.9388C128.357 35.9388 128.465 35.8365 128.465 35.6184V34.7418H128.884V35.6051C128.884 36.1079 128.609 36.3282 128.187 36.3282C127.764 36.3282 127.498 36.1035 127.498 35.6162Z" fill="#FAFAFA"/>
<path d="M129.077 35.5242V35.5198C129.077 35.0659 129.411 34.7099 129.861 34.7099C130.165 34.7099 130.36 34.8434 130.492 35.0348L130.182 35.2862C130.097 35.1749 129.999 35.1037 129.857 35.1037C129.648 35.1037 129.502 35.2884 129.502 35.5154V35.5198C129.502 35.7534 129.648 35.9358 129.857 35.9358C130.012 35.9358 130.103 35.8602 130.192 35.7467L130.503 35.9781C130.362 36.1806 130.173 36.3297 129.844 36.3297C129.419 36.3296 129.077 35.9893 129.077 35.5242Z" fill="#FAFAFA"/>
<path d="M130.688 34.7418H131.102V36.2993H130.688V34.7418Z" fill="#FAFAFA"/>
<path d="M131.323 35.5242V35.5198C131.323 35.0726 131.667 34.7099 132.126 34.7099C132.585 34.7099 132.925 35.0681 132.925 35.5153V35.5198C132.925 35.967 132.581 36.3296 132.122 36.3296C131.663 36.3296 131.323 35.9715 131.323 35.5242ZM132.504 35.5242V35.5198C132.504 35.2951 132.349 35.0993 132.122 35.0993C131.897 35.0993 131.746 35.2906 131.746 35.5153V35.5198C131.746 35.7445 131.901 35.9402 132.126 35.9402C132.353 35.9403 132.504 35.749 132.504 35.5242Z" fill="#FAFAFA"/>
<path d="M133.139 34.7418H133.524L134.136 35.565V34.7418H134.544V36.2993H134.183L133.547 35.4449V36.2993H133.139V34.7418V34.7418Z" fill="#FAFAFA"/>
<path d="M135.321 34.7305H135.719L136.352 36.299H135.91L135.802 36.0209H135.228L135.122 36.299H134.688L135.321 34.7305ZM135.683 35.685L135.517 35.2422L135.349 35.685H135.683Z" fill="#FAFAFA"/>
<path d="M136.497 34.7418H136.909V35.921H137.629V36.2992H136.497V34.7418V34.7418Z" fill="#FAFAFA"/>
</svg>
