<svg width="232" height="108" viewBox="0 0 232 108" fill="none" xmlns="http://www.w3.org/2000/svg">
<path d="M232 0H0V108H232V0Z" fill="#E83C30"/>
<path d="M110.297 26.5H104.797V39.5H110.297V26.5Z" fill="#E83C30"/>
<path d="M119.768 65.5H112.437C108.276 65.5 104.907 62.1149 104.907 57.9336V52.5575H110.455V57.8937C110.455 59.0089 111.327 59.885 112.437 59.885H119.768C120.877 59.885 121.749 59.0089 121.749 57.8937V50.5664C121.749 49.4513 120.877 48.5752 119.768 48.5752H88.2969V43H119.768C123.928 43 127.297 46.3849 127.297 50.5664V57.9336C127.297 62.1149 123.928 65.5 119.768 65.5Z" fill="#E83C30"/>
<path fill-rule="evenodd" clip-rule="evenodd" d="M80.7144 67.4695C91.0501 67.4695 99.4289 59.0816 99.4289 48.7348C99.4289 47.6519 99.337 46.5905 99.1609 45.5579C102.242 48.8973 104.124 53.3612 104.124 58.2652C104.124 68.6121 95.745 77 85.4093 77C76.1553 77 68.4701 70.2759 66.9629 61.4421C70.382 65.1484 75.2774 67.4695 80.7144 67.4695ZM66.9629 61.4421C63.8822 58.1027 62 53.6388 62 48.7348C62 38.3878 70.3787 30 80.7144 30C89.9684 30 97.6536 36.724 99.1609 45.5579C95.7417 41.8516 90.8463 39.5305 85.4093 39.5305C75.0736 39.5305 66.6949 47.9184 66.6949 58.2652C66.6949 59.3481 66.7867 60.4095 66.9629 61.4421Z" fill="white"/>
<path d="M128.589 53.0372H124.357L120.729 47.321H118.781V53.1045H115.422V38.2422H122.207C125.835 38.3319 127.716 39.8114 127.85 42.6807C127.895 45.1466 126.686 46.6261 124.222 47.1193L128.589 53.0372ZM121.67 40.865H118.781V44.8328H121.67C123.461 44.8328 124.335 44.1827 124.29 42.8825C124.379 41.4927 123.506 40.8202 121.67 40.865ZM140.211 42.479L135.844 53.4408C134.814 56.3102 133.247 57.6551 131.142 57.4759C130.515 57.4759 129.888 57.3862 129.261 57.2068L128.992 54.6514C129.53 54.8756 130.067 54.9876 130.604 54.9876C131.455 55.0324 132.06 54.6962 132.418 53.9788L132.956 52.701L128.522 42.479H132.082L134.165 48.7332C134.299 49.092 134.411 49.5627 134.501 50.1456H134.568C134.613 49.9215 134.68 49.6076 134.769 49.2041C134.814 48.9799 134.859 48.8229 134.904 48.7332L136.785 42.479H140.211ZM152.101 42.479L148.003 52.9701H144.309L140.345 42.479H143.771L145.787 49.1367C146.01 49.8092 146.145 50.4145 146.19 50.9525H146.257C146.346 50.4595 146.481 49.8318 146.66 49.0696L148.608 42.479H152.101ZM164.26 53.0372H161.17C160.902 52.5442 160.745 52.0062 160.7 51.4234C159.715 52.6339 158.192 53.2616 156.132 53.3063C153.982 53.1719 152.84 52.163 152.706 50.2801C152.661 48.397 153.96 47.2538 156.602 46.8503C158.17 46.5813 159.468 46.245 160.498 45.8415C160.588 44.8552 159.894 44.3844 158.416 44.4293C157.252 44.4293 156.468 44.8776 156.065 45.7743L153.042 45.3708C153.624 43.2187 155.393 42.1652 158.349 42.21C162.066 42.0755 163.857 43.5998 163.723 46.783V50.8181C163.723 51.8044 163.902 52.5442 164.26 53.0372ZM160.767 48.2625V47.6572C160.095 48.0607 159.155 48.3746 157.946 48.5987C156.513 48.9126 155.796 49.4058 155.796 50.0783C155.751 50.7957 156.311 51.1319 157.475 51.087C159.491 50.9525 160.588 50.011 160.767 48.2625ZM168.896 53.0372H165.604V37.3007H168.896V53.0372Z" fill="white"/>
<path d="M120.158 60.9795H116.531V62.7618H119.688V64.1404H116.531V67.0322H114.851V59.601H120.158V60.9795ZM122.644 60.9795H120.964V59.601H122.644V60.9795ZM122.644 67.0322H120.964V61.7531H122.644V67.0322ZM123.584 67.0994L125.365 67.2676C125.432 67.7159 125.756 67.9512 126.339 67.9736C127.01 67.9512 127.358 67.5141 127.38 66.6622L127.346 65.9562C127.01 66.5166 126.462 66.7967 125.7 66.7967C124.267 66.7296 123.528 65.8665 123.484 64.2076C123.506 62.4815 124.29 61.6072 125.835 61.5849C126.551 61.6072 127.055 61.8538 127.346 62.3246V61.7193H128.992V66.1916C129.104 68.2986 128.141 69.2851 126.103 69.1505C124.536 69.1281 123.696 68.4445 123.584 67.0994ZM127.38 64.2076V64.0395C127.358 63.2774 126.999 62.885 126.305 62.8626C125.544 62.885 125.152 63.311 125.129 64.1404C125.152 65.0818 125.533 65.575 126.272 65.6198C127.01 65.6198 127.38 65.1491 127.38 64.2076ZM135.408 66.9985H133.762V64.0395C133.762 63.2548 133.437 62.8626 132.788 62.8626C132.138 62.9298 131.791 63.3445 131.746 64.1067V66.9985H130.134V59.1302H131.746V62.5264C132.194 61.9211 132.765 61.6072 133.459 61.5849C134.758 61.5849 135.408 62.3135 135.408 63.7705V66.9985ZM136.852 65.4854V62.9298H136.012V61.7193H136.852V59.9035L138.464 59.5673V61.7193H139.741V62.9298H138.464V65.0818C138.464 65.6647 138.677 65.9448 139.102 65.9225C139.259 65.9225 139.416 65.8777 139.573 65.788L139.908 66.8304C139.528 67.0322 139.08 67.1331 138.565 67.1331C137.4 67.1555 136.83 66.6063 136.852 65.4854ZM148.474 64.4093C148.407 66.1578 147.444 67.0658 145.585 67.1331C143.749 67.0209 142.786 66.1131 142.696 64.4093C142.786 62.5936 143.76 61.6522 145.619 61.5849C147.432 61.6522 148.384 62.5936 148.474 64.4093ZM146.794 64.4093C146.772 63.4006 146.357 62.885 145.551 62.8626C144.768 62.8626 144.376 63.3783 144.376 64.4093C144.398 65.3957 144.79 65.9001 145.551 65.9225C146.38 65.9225 146.794 65.4182 146.794 64.4093ZM154.52 66.9985H152.874V64.0395C152.896 63.2324 152.571 62.8403 151.9 62.8626C151.228 62.9074 150.881 63.3221 150.858 64.1067V66.9985H149.213V61.7193H150.858V62.5264C151.284 61.9435 151.855 61.6296 152.571 61.5849C153.893 61.5625 154.542 62.2909 154.52 63.7705V66.9985ZM157.039 67.0322H155.292V65.3509H157.039V67.0322Z" fill="white"/>
</svg>
