<svg width="40" height="47" viewBox="0 0 40 47" fill="none" xmlns="http://www.w3.org/2000/svg">
<path d="M35.2959 0.492188H4.81033C2.23953 0.492188 0.146484 2.58694 0.146484 5.18261V35.9664C0.146484 38.562 2.23953 40.6568 4.81033 40.6568H30.6093L29.4036 36.4445L32.3156 39.154L35.0684 41.7042L39.9598 46.0303V5.18261C39.9598 2.58694 37.8667 0.492188 35.2959 0.492188ZM26.5143 30.2286C26.5143 30.2286 25.6952 29.2495 25.0127 28.3843C27.993 27.5418 29.1306 25.6747 29.1306 25.6747C28.1978 26.2895 27.3105 26.7221 26.5143 27.0181C25.3767 27.4963 24.2847 27.815 23.2154 27.9972C21.0314 28.407 19.0294 28.2932 17.3231 27.9744C16.0263 27.724 14.9115 27.3597 13.9788 26.9954C13.4555 26.7904 12.8867 26.54 12.318 26.2212C12.2497 26.1757 12.1815 26.1529 12.1132 26.1074C12.0677 26.0846 12.045 26.0618 12.0222 26.0391C11.6127 25.8114 11.3852 25.652 11.3852 25.652C11.3852 25.652 12.4772 27.4735 15.3665 28.3387C14.684 29.204 13.8423 30.2286 13.8423 30.2286C8.81441 30.0692 6.90337 26.7677 6.90337 26.7677C6.90337 19.436 10.1794 13.4933 10.1794 13.4933C13.4555 11.0343 16.5723 11.1026 16.5723 11.1026L16.7998 11.3758C12.7047 12.5598 10.8164 14.3585 10.8164 14.3585C10.8164 14.3585 11.317 14.0853 12.1587 13.6982C14.593 12.6281 16.5268 12.3321 17.3231 12.2638C17.4596 12.241 17.5733 12.2182 17.7098 12.2182C19.0976 12.0361 20.6674 11.9906 22.3054 12.1727C24.4667 12.4232 26.7873 13.0607 29.1533 14.3585C29.1533 14.3585 27.356 12.6509 23.4885 11.4669L23.807 11.1026C23.807 11.1026 26.9238 11.0343 30.1998 13.4933C30.1998 13.4933 33.4759 19.436 33.4759 26.7677C33.4759 26.7677 31.5421 30.0692 26.5143 30.2286Z" fill="#7289DA"/>
<path d="M16.1663 18.0098C14.8695 18.0098 13.8457 19.1482 13.8457 20.5371C13.8457 21.926 14.8922 23.0645 16.1663 23.0645C17.463 23.0645 18.4868 21.926 18.4868 20.5371C18.5095 19.1482 17.463 18.0098 16.1663 18.0098ZM24.4702 18.0098C23.1734 18.0098 22.1496 19.1482 22.1496 20.5371C22.1496 21.926 23.1961 23.0645 24.4702 23.0645C25.7669 23.0645 26.7907 21.926 26.7907 20.5371C26.7907 19.1482 25.7669 18.0098 24.4702 18.0098Z" fill="#7289DA"/>
</svg>
