<svg width="80" height="80" viewBox="0 0 80 80" fill="none" xmlns="http://www.w3.org/2000/svg">
<circle cx="40" cy="40" r="40" fill="#EAA24F"/>
<circle cx="40" cy="40" r="14" fill="white"/>
<path d="M9 40.4695C9 46.7558 10.8118 52.6082 13.9339 57.5224C14.6239 56.3725 15.5558 55.3865 16.665 54.6327C14.1396 50.3405 12.8128 45.4493 12.8231 40.4695C12.8231 25.2388 24.9556 12.8926 39.9189 12.8926C43.198 12.8898 46.4492 13.493 49.509 14.6717C50.0105 13.4129 50.7762 12.2941 51.7333 11.383C47.9949 9.80754 43.9786 8.99725 39.9216 9.00001C22.8445 9.00001 9 23.0931 9 40.4695Z" fill="white"/>
<path d="M63.0978 25.3102C65.7735 29.6542 67.1861 34.6575 67.177 39.7591C67.177 54.882 55.05 67.1393 40.0893 67.1393C36.6986 67.1431 33.3381 66.5027 30.1865 65.2523C29.6423 66.4755 28.8382 67.5656 27.8301 68.4467C31.6958 70.1364 35.8702 71.0057 40.0893 70.9995C57.1583 70.9995 71.0001 57.0142 71.0001 39.7618C71.0001 33.3703 69.0994 27.429 65.8398 22.4771C65.1388 23.6092 64.2005 24.5797 63.0978 25.3075V25.3102Z" fill="white"/>
<path d="M15.8027 62.2069C15.8027 63.6379 16.3713 65.0102 17.3833 66.0221C18.3953 67.0339 19.7678 67.6024 21.199 67.6024C22.6302 67.6024 24.0027 67.0339 25.0147 66.0221C26.0267 65.0102 26.5953 63.6379 26.5953 62.2069C26.5953 60.776 26.0267 59.4036 25.0147 58.3918C24.0027 57.38 22.6302 56.8115 21.199 56.8115C19.7678 56.8115 18.3953 57.38 17.3833 58.3918C16.3713 59.4036 15.8027 60.776 15.8027 62.2069V62.2069Z" fill="white"/>
<path d="M52.9336 18.0883C52.9336 19.5192 53.5021 20.8916 54.5141 21.9034C55.5261 22.9153 56.8987 23.4837 58.3299 23.4837C59.761 23.4837 61.1336 22.9153 62.1456 21.9034C63.1576 20.8916 63.7261 19.5192 63.7261 18.0883C63.7261 16.6573 63.1576 15.285 62.1456 14.2732C61.1336 13.2613 59.761 12.6929 58.3299 12.6929C56.8987 12.6929 55.5261 13.2613 54.5141 14.2732C53.5021 15.285 52.9336 16.6573 52.9336 18.0883V18.0883Z" fill="white"/>
<path d="M19.741 39.9994C19.741 51.165 28.7999 60.2171 39.9753 60.2171C45.3398 60.2185 50.4853 58.0894 54.2799 54.2979C58.0744 50.5064 60.2074 45.3632 60.2095 39.9994C60.2095 28.8339 51.1506 19.7817 39.9753 19.7817C37.3188 19.7807 34.6881 20.3028 32.2334 21.3182C29.7787 22.3337 27.5481 23.8226 25.6689 25.7C23.7897 27.5774 22.2988 29.8065 21.2812 32.26C20.2636 34.7135 19.7393 37.3433 19.7383 39.9994H19.741ZM41.6091 46.3235C42.1133 45.965 42.364 45.4285 42.364 44.7169C42.3697 44.3374 42.2534 43.966 42.0324 43.6575C41.7629 43.3042 41.4324 43.002 41.0564 42.7652C40.625 42.4768 39.7488 42.0212 38.4277 41.3904C37.1875 40.8108 36.26 40.2528 35.6399 39.7191C35.0303 39.1952 34.5269 38.5592 34.1571 37.8456C33.7734 37.0715 33.5837 36.2157 33.6044 35.3521C33.6044 33.5621 34.211 32.1523 35.4269 31.1279C36.6402 30.1035 38.3225 29.5914 40.4686 29.5914C41.5201 29.5914 42.5258 29.7154 43.4829 29.9634C44.44 30.2141 45.4403 30.5645 46.4837 31.0147L45.0979 34.3573C44.2265 33.985 43.3301 33.6743 42.4152 33.4273C41.733 33.2547 41.0322 33.1659 40.3284 33.1632C39.5142 33.1632 38.8887 33.3518 38.4546 33.7319C38.2424 33.9148 38.0738 34.1429 37.9614 34.3995C37.8489 34.6561 37.7954 34.9346 37.8049 35.2146C37.8049 35.592 37.8912 35.9235 38.0664 36.2039C38.2444 36.4869 38.5247 36.7592 38.9076 37.0234C39.2904 37.2849 40.199 37.7593 41.6307 38.4413C43.526 39.3471 44.8255 40.2555 45.5265 41.164C46.2275 42.0751 46.5807 43.1884 46.5807 44.5093C46.5807 46.337 45.9229 47.7792 44.6045 48.8305C43.2888 49.8845 41.4554 50.4102 39.1071 50.4102C36.9448 50.4102 35.0306 50.0058 33.3671 49.1917V45.2021C34.4891 45.7218 35.6502 46.1526 36.8397 46.4906C37.7887 46.7387 38.6542 46.8654 39.4414 46.8654C40.3851 46.8654 41.1076 46.6847 41.6091 46.3262V46.3235Z" fill="#27487B"/>
</svg>
