<svg width="80" height="80" viewBox="0 0 80 80" fill="none" xmlns="http://www.w3.org/2000/svg">
<circle cx="40" cy="40" r="40" fill="#C6F1FF"/>
<path d="M47.9038 68.4785C47.7573 68.3252 47.6108 68.172 47.4642 68.172C44.0946 67.4057 40.7249 66.1797 37.7947 64.3406C31.6414 60.5092 27.5391 54.8388 27.3926 48.2488C27.3926 45.7967 27.8321 43.3446 28.8577 41.0458C29.4437 39.5132 32.9599 34.3025 33.3995 33.383C35.7436 29.5516 35.011 29.8581 31.6414 25.1072L26.9531 17.9042L23.8764 13C22.1183 14.226 20.3602 15.7586 18.7486 17.2912C15.5255 20.6628 13.0348 24.9539 11.5697 29.5516C10.1046 34.1493 9.66512 39.0534 10.2512 43.8044C10.8372 48.5553 12.5953 53.1529 15.2324 57.1376C17.8696 61.1222 21.3858 64.4938 25.3415 66.7927C14.9394 58.8234 10.1046 46.7162 14.0604 34.609C15.0859 31.3907 16.6975 28.3256 18.7486 25.567L22.1183 30.7776C22.2648 31.0842 22.4113 31.3907 22.4113 31.8504C22.4113 32.1569 22.2648 32.6167 22.1183 32.9232C20.5067 35.0688 19.1882 37.3676 18.3091 39.973C13.9139 53.3062 25.781 67.0992 38.2342 69.398C40.5784 69.8578 44.9736 70.3176 47.3177 69.7045C47.4642 69.7045 47.6108 69.5513 47.6108 69.5513C47.7573 69.398 47.7573 69.398 47.7573 69.2448C47.7573 69.0915 47.7573 68.9383 47.7573 68.785C48.0503 68.785 48.0503 68.6318 47.9038 68.4785Z" fill="url(#paint0_linear)"/>
<path d="M32.1458 10.5215C32.2915 10.6748 32.4373 10.828 32.583 10.828C35.9353 11.5943 39.2877 12.8203 42.2027 14.6594C48.3244 18.4908 52.4055 24.1612 52.5512 30.7512C52.5512 33.2033 52.114 35.6554 51.0937 37.9542C50.5107 39.4868 47.0126 44.6975 46.5753 45.617C44.2433 49.4484 44.9721 49.1419 48.3244 53.8928L52.9885 61.0958L56.1951 66C57.9441 64.774 59.6931 63.2414 61.2964 61.7088C64.503 58.3372 66.9808 54.0461 68.4384 49.4484C69.8959 44.8507 70.3332 39.9466 69.7501 35.1956C69.1671 30.4447 67.4181 25.8471 64.7945 21.8624C62.171 17.8778 58.6729 14.5062 54.7375 12.2073C65.086 20.1766 69.8959 32.2838 65.8148 44.391C64.7945 47.6093 63.1912 50.6745 61.1507 53.4331L57.7984 48.2224C57.6526 47.9159 57.5068 47.6093 57.5068 47.1496C57.5068 46.8431 57.6526 46.3833 57.7984 46.0768C59.4016 43.9312 60.7134 41.6324 61.5879 39.027C65.9605 25.6938 54.1545 11.9008 41.7655 9.60198C39.4334 9.14221 35.0608 8.68244 32.7288 9.29546C32.583 9.29546 32.4373 9.44872 32.4373 9.44872C32.1458 9.44872 32 9.60198 32 9.75523C32 9.90849 32 10.0617 32 10.215C32 10.215 32 10.3683 32.1458 10.5215Z" fill="url(#paint1_linear)"/>
<defs>
<linearGradient id="paint0_linear" x1="21.1881" y1="64.3861" x2="44.6489" y2="25.5371" gradientUnits="userSpaceOnUse">
<stop stop-color="#174E5B"/>
<stop offset="0.07" stop-color="#195A6C"/>
<stop offset="0.21" stop-color="#1E779A"/>
<stop offset="0.4" stop-color="#27A7E3"/>
<stop offset="0.47" stop-color="#2ABAFF"/>
<stop offset="0.7" stop-color="#1DDAF0"/>
<stop offset="1" stop-color="#0EFFE0"/>
</linearGradient>
<linearGradient id="paint1_linear" x1="58.7278" y1="14.6151" x2="35.2091" y2="53.3534" gradientUnits="userSpaceOnUse">
<stop stop-color="#174E5B"/>
<stop offset="0.07" stop-color="#195A6C"/>
<stop offset="0.21" stop-color="#1E779A"/>
<stop offset="0.4" stop-color="#27A7E3"/>
<stop offset="0.47" stop-color="#2ABAFF"/>
<stop offset="0.7" stop-color="#1DDAF0"/>
<stop offset="1" stop-color="#0EFFE0"/>
</linearGradient>
</defs>
</svg>
