<svg width="80" height="80" viewBox="0 0 80 80" fill="none" xmlns="http://www.w3.org/2000/svg">
<circle cx="40" cy="40" r="40" fill="#400D8F"/>
<path d="M59.7088 61.0822L57.0179 61.9605C57.0179 61.9605 57.0179 61.9605 56.9752 61.9972L55.9928 64.3395C55.8647 64.6322 55.3949 64.6322 55.2667 64.3395L54.2415 62.0338C54.2415 62.0338 54.2415 62.0338 54.1989 61.9972L51.4653 61.1553C51.1235 61.0456 51.1235 60.643 51.4653 60.5331L54.1562 59.6548C54.1562 59.6548 54.1562 59.6548 54.1989 59.6182L55.1812 57.2758C55.3094 56.9829 55.7792 56.9829 55.9073 57.2758L56.9325 59.5815C56.9325 59.5815 56.9325 59.5815 56.9752 59.6182L59.7088 60.4599C60.0505 60.5331 60.0505 60.9723 59.7088 61.0822Z" fill="#7F51C8"/>
<path d="M44.8424 64.5596L42.1088 65.4013C42.1088 65.4013 42.1088 65.4013 42.066 65.4379L41.0409 67.7803C40.9128 68.0732 40.4002 68.0732 40.3149 67.7803L39.3324 65.4379C39.3324 65.4379 39.3324 65.4379 39.2896 65.4013L36.556 64.523C36.2144 64.4132 36.2144 63.9741 36.556 63.9008L39.2896 63.059C39.2896 63.059 39.2896 63.059 39.3324 63.0225L40.3575 60.6801C40.4856 60.3872 40.9982 60.3872 41.0836 60.6801L42.066 63.0225C42.066 63.0225 42.066 63.0225 42.1088 63.059L44.8424 63.9374C45.2268 64.0472 45.2268 64.4864 44.8424 64.5596Z" fill="white"/>
<path d="M11.0577 42.7097L10.0326 40.3673C10.0326 40.3673 10.0326 40.3673 9.98989 40.3307L7.25628 39.4888C6.91457 39.3791 6.91457 38.9765 7.25628 38.8666L9.98989 37.9883C9.98989 37.9883 9.98989 37.9883 10.0326 37.9517L11.015 35.6093C11.1431 35.3164 11.613 35.3164 11.7411 35.6093L12.7662 37.9517C12.7662 37.9517 12.7662 37.9517 12.8089 37.9883L15.5426 38.83C15.8843 38.9399 15.8843 39.3424 15.5426 39.4523L12.8089 40.3307C12.8089 40.3307 12.8089 40.3307 12.7662 40.3673L11.7838 42.7097C11.6557 43.0024 11.1859 43.0024 11.0577 42.7097Z" fill="white"/>
<path opacity="0.7" d="M16.6793 26.1255L19.4556 27.0039C19.7973 27.1137 19.7973 27.5163 19.4556 27.626L16.722 28.5045C16.722 28.5045 16.722 28.5045 16.6793 28.541L15.6969 30.8834C15.5688 31.1762 15.0989 31.1762 14.9708 30.8834L13.9457 28.5776C13.9457 28.5776 13.9457 28.5776 13.903 28.541L11.1694 27.6992C10.8277 27.5895 10.8277 27.1868 11.1694 27.0771L13.903 26.1986C13.903 26.1986 13.903 26.1987 13.9457 26.1621L14.9281 23.8197C15.0562 23.5269 15.5261 23.5269 15.6542 23.8197L16.6793 26.1255Z" fill="#53BAE4"/>
<path opacity="0.7" d="M55.5046 14.4862L56.4869 16.8286C56.4869 16.8286 56.4869 16.8286 56.5296 16.8652L59.2633 17.7436C59.605 17.8534 59.605 18.2926 59.2633 18.3658L56.5296 19.2076C56.5296 19.2076 56.5296 19.2076 56.4869 19.2441L55.4618 21.5865C55.3337 21.8793 54.8211 21.8793 54.7357 21.5865L53.7532 19.2441C53.7532 19.2441 53.7532 19.2441 53.7106 19.2076L50.977 18.3292C50.6353 18.2194 50.6353 17.7802 50.977 17.707L53.7106 16.8652C53.7106 16.8652 53.7106 16.8652 53.7532 16.8286L54.7783 14.4862C54.9066 14.1934 55.3764 14.1934 55.5046 14.4862Z" fill="#53BAE4"/>
<path d="M66.071 23.2386L67.096 25.581C67.096 25.581 67.096 25.581 67.1388 25.6176L69.8724 26.496C70.2142 26.6058 70.2142 27.0084 69.8724 27.1182L67.1388 27.9966C67.1388 27.9966 67.1388 27.9966 67.096 28.0332L66.071 30.3756C65.9428 30.6684 65.473 30.6684 65.3449 30.3756L64.3197 28.0332C64.3197 28.0332 64.3198 28.0332 64.277 27.9966L61.5434 27.1182C61.2017 27.0084 61.2017 26.6058 61.5434 26.496L64.277 25.6176C64.277 25.6176 64.277 25.6176 64.3197 25.581L65.3449 23.2386C65.4302 22.9458 65.9428 22.9458 66.071 23.2386Z" fill="#7F51C8"/>
<path d="M43.4344 14.4613C43.5111 13.1694 42.3509 12.0688 40.8432 12.0031C39.3354 11.9374 38.051 12.9315 37.9743 14.2235C37.8976 15.5155 39.0578 16.6161 40.5656 16.6817C42.0733 16.7474 43.3578 15.7533 43.4344 14.4613Z" fill="white"/>
<path d="M27.0536 19.8682C28.396 19.2762 28.9242 17.8638 28.2334 16.7135C27.5425 15.5631 25.8942 15.1105 24.5517 15.7025C23.2092 16.2945 22.6811 17.7069 23.372 18.8572C24.0627 20.0075 25.7111 20.4602 27.0536 19.8682Z" fill="#7F51C8"/>
<path d="M16.9017 54.0053C18.2382 53.4033 18.7521 51.987 18.0496 50.842C17.3471 49.6968 15.6943 49.2564 14.3578 49.8584C13.0214 50.4603 12.5075 51.8766 13.21 53.0218C13.9125 54.1669 15.5653 54.6072 16.9017 54.0053Z" fill="#7F51C8"/>
<path opacity="0.7" d="M28.7902 62.6503C29.6108 61.5645 29.2486 60.1142 27.9813 59.4112C26.7141 58.708 25.0215 59.0184 24.2011 60.1042C23.3805 61.1901 23.7426 62.6403 25.0098 63.3434C26.2772 64.0466 27.9696 63.7362 28.7902 62.6503Z" fill="#53BAE4"/>
<path opacity="0.7" d="M68.4719 53.054C69.2635 51.9525 68.8632 50.5095 67.5776 49.8312C66.2922 49.1527 64.6082 49.4957 63.8165 50.5974C63.0249 51.6988 63.4252 53.1417 64.7106 53.8202C65.9962 54.4986 67.6801 54.1556 68.4719 53.054Z" fill="#53BAE4"/>
<path d="M72.3295 39.2677C72.4122 37.976 71.2573 36.8714 69.7498 36.8005C68.2423 36.7295 66.9532 37.7192 66.8704 39.0109C66.7877 40.3027 67.9426 41.4072 69.4501 41.4781C70.9576 41.5491 72.2467 40.5594 72.3295 39.2677Z" fill="white"/>
<path d="M54.4566 45.6006C54.0721 46.1862 53.5169 46.6986 52.6625 47.0647L43.4367 51.7128C41.8135 52.5179 39.8487 52.5179 38.2257 51.7494L28.658 47.0281C27.9319 46.662 27.3767 46.1862 26.9922 45.564L40.6603 38.9761L54.4566 45.6006Z" fill="white"/>
<path d="M55.0068 34.2541V43.3674C55.0068 44.1726 54.836 44.9411 54.4515 45.5634L40.6553 38.9755V25.3604C41.4241 25.397 42.193 25.6532 43.0473 26.0557L52.2733 30.5209C53.8536 31.3262 55.0068 32.6803 55.0068 34.2541Z" fill="#7F51C8"/>
<path opacity="0.7" d="M40.7675 25.7233V39.3383L27.0995 45.9262C26.6296 45.2308 26.416 44.4257 26.416 43.5472V34.5071C26.416 32.8968 27.2276 31.7988 28.8934 30.9936L38.6746 26.1625C39.3581 25.833 40.0842 25.6867 40.7675 25.7233Z" fill="#53BAE4"/>
</svg>
