<svg width="48" height="48" viewBox="0 0 48 48" fill="none" xmlns="http://www.w3.org/2000/svg">
<g clip-path="url(#clip0)">
<path d="M23.8467 47.7617C36.8254 47.7617 47.3467 37.2404 47.3467 24.2617C47.3467 11.283 36.8254 0.761719 23.8467 0.761719C10.868 0.761719 0.34668 11.283 0.34668 24.2617C0.34668 37.2404 10.868 47.7617 23.8467 47.7617Z" fill="url(#paint0_linear)"/>
<path d="M19.5396 35.0329C18.7782 35.0329 18.9076 34.7454 18.645 34.0204L16.4062 26.6526L33.6396 16.4287" fill="#C8DAEA"/>
<path d="M19.5381 35.0321C20.1256 35.0321 20.3851 34.7635 20.7131 34.4446L23.8464 31.3979L19.938 29.041" fill="#A9C9DD"/>
<path d="M19.94 29.0415L29.4105 36.0385C30.4913 36.6348 31.2711 36.3259 31.5403 35.0352L35.3953 16.8691C35.7899 15.2868 34.7922 14.5689 33.7582 15.0383L11.1218 23.7668C9.57667 24.3866 9.58587 25.2486 10.8402 25.6327L16.6492 27.4459L30.0976 18.9614C30.7325 18.5764 31.3153 18.7832 30.8371 19.2078" fill="url(#paint1_linear)"/>
</g>
<defs>
<linearGradient id="paint0_linear" x1="31.6957" y1="8.61072" x2="19.9457" y2="36.0117" gradientUnits="userSpaceOnUse">
<stop stop-color="#37AEE2"/>
<stop offset="1" stop-color="#1E96C8"/>
</linearGradient>
<linearGradient id="paint1_linear" x1="26.7949" y1="24.2631" x2="30.4624" y2="32.6191" gradientUnits="userSpaceOnUse">
<stop stop-color="#EFF7FC"/>
<stop offset="1" stop-color="white"/>
</linearGradient>
<clipPath id="clip0">
<rect width="47" height="47" fill="white" transform="translate(0.34668 0.761719)"/>
</clipPath>
</defs>
</svg>
