<svg width="48" height="48" viewBox="0 0 48 48" fill="none" xmlns="http://www.w3.org/2000/svg">
<path fill-rule="evenodd" clip-rule="evenodd" d="M47.5469 24.2617C47.5469 37.2404 37.0256 47.7617 24.0469 47.7617C11.0682 47.7617 0.546875 37.2404 0.546875 24.2617C0.546875 11.283 11.0682 0.761719 24.0469 0.761719C37.0256 0.761719 47.5469 11.283 47.5469 24.2617ZM34.775 20.6779C34.775 27.6833 29.4383 35.7617 19.6794 35.7617L19.6797 35.7614C16.6831 35.7614 13.8949 34.8839 11.5469 33.38C11.9622 33.4291 12.3847 33.4534 12.8124 33.4534C15.2986 33.4534 17.5861 32.6063 19.4019 31.1842C17.0798 31.1413 15.1212 29.6085 14.4457 27.5021C14.769 27.5641 15.1015 27.5977 15.4429 27.5977C15.927 27.5977 16.3961 27.5326 16.8419 27.4111C14.4142 26.9254 12.5854 24.7818 12.5854 22.2143C12.5854 22.1906 12.5854 22.1689 12.5862 22.1466C13.3009 22.544 14.1186 22.7828 14.989 22.8097C13.5647 21.8598 12.628 20.2361 12.628 18.3968C12.628 17.4258 12.8908 16.5157 13.3464 15.7322C15.9632 18.9399 19.8733 21.0495 24.2828 21.2712C24.1918 20.8831 24.1452 20.4784 24.1452 20.0624C24.1452 17.1359 26.5211 14.7617 29.4511 14.7617C30.9773 14.7617 32.3556 15.4062 33.3238 16.4367C34.5325 16.1984 35.6677 15.7571 36.6928 15.1498C36.296 16.3875 35.4551 17.4257 34.3597 18.0821C35.4329 17.9539 36.4559 17.6697 37.4065 17.2474C36.6963 18.3105 35.796 19.2443 34.76 19.9926C34.7703 20.22 34.775 20.4484 34.775 20.6779Z" fill="#1DA1F2"/>
</svg>
