<svg id="Layer_1" data-name="Layer 1" xmlns="http://www.w3.org/2000/svg" viewBox="0 0 1056.6 993.96"><defs><style>.cls-1{fill:#e6edff;}.cls-2{fill:#bfd2ff;}.cls-3{fill:#485070;}.cls-4{fill:#ff6ea1;}.cls-5{fill:#ffc1a6;}.cls-6{fill:#e3856d;}.cls-17,.cls-22,.cls-24,.cls-25,.cls-7,.cls-8{fill:none;}.cls-10,.cls-17,.cls-22,.cls-25,.cls-7,.cls-8,.cls-9{stroke:#485070;}.cls-24,.cls-25,.cls-7,.cls-8{stroke-linecap:round;}.cls-10,.cls-17,.cls-22,.cls-24,.cls-25,.cls-7,.cls-9{stroke-miterlimit:10;}.cls-10,.cls-17,.cls-24,.cls-7,.cls-8,.cls-9{stroke-width:0.75px;}.cls-8{stroke-linejoin:round;}.cls-9{fill:#dce4ff;}.cls-10{fill:#bac5ef;}.cls-11{fill:#545d78;}.cls-12{fill:#333;}.cls-13{fill:#fefeff;}.cls-14{fill:#628aec;}.cls-15{fill:#ffb861;}.cls-16{fill:#3fd4c7;}.cls-18{fill:#fff;}.cls-19{fill:#9c5240;}.cls-20{fill:#cf9378;}.cls-21{fill:#66a3f2;}.cls-22,.cls-25{stroke-width:0.4px;}.cls-23{fill:#b3b3b3;}.cls-24{stroke:#b3b3b3;}.cls-26{fill:#757e96;}.cls-27{fill:#f7b699;}.cls-28{fill:#c46e58;}.cls-29{fill:#f4ae2d;}.cls-30{fill:#c8ddf7;}</style></defs><g id="OBJECTS"><path class="cls-1" d="M937.15,924.68H36.06a21.13,21.13,0,0,1-21.14-21.14h0A21.11,21.11,0,0,1,36,882.41H937.15a21.13,21.13,0,0,1,21.14,21.13h0A21.16,21.16,0,0,1,937.15,924.68Z"/><path class="cls-2" d="M945,510.14l-1.15-.69c-27.33-15.92-59.57-22.05-90.63-29.72-28.86-7.12-61.26-16.62-83.42-37.72-26.94-25.55-23.18-60.75-12.83-92.77,10.88-33.61,21.14-67.44,16.34-103.11a199.31,199.31,0,0,0-52.87-110.35c-45.13-47.32-115-72.4-182-65.32C448.59,80,374.79,142,318.76,209.05c-36.77,44-58.46,94-100.4,135.86-41.45,41.33-88,78.58-122.9,125.42-46.38,62.32-69,141.85-54,216.74S111.62,830.36,187,857.39c48,17.22,100.71,17.58,152,17.72,106.7.26,213.54.55,319.88-7.55,70-5.32,140.89-14.58,204.65-42.4s120.21-76.58,141.11-139.95C1025.49,622.25,1003.92,545.27,945,510.14Z"/><path class="cls-1" d="M87.72,361.61a35.59,35.59,0,0,0-9.17-15.72l-7.12-5.58a35.37,35.37,0,0,0-18-4.75H51.69A27,27,0,0,0,38,338.64,26.39,26.39,0,0,0,26.49,346a26.75,26.75,0,0,0-7.37,11.45,26.83,26.83,0,0,0-3.06,13.72c.4,3.16.83,6.32,1.26,9.51a35.62,35.62,0,0,0,9.1,15.65l7.12,5.58a35.34,35.34,0,0,0,18,4.75h1.76A26.84,26.84,0,0,0,67,403.61a26.57,26.57,0,0,0,11.45-7.37,26.74,26.74,0,0,0,7.38-11.47A27,27,0,0,0,88.91,371Z"/><circle class="cls-2" cx="964.7" cy="325.56" r="76.98"/><path class="cls-3" d="M657.13,153.68c-2.06-1.52-4.63-2.77-5.41-5.22-1.31-3.9,2.9-8,1.85-11.88-.85-3.35-4.75-4.75-8.26-5.2s-7.34-1-9.29-3.85c-1.64-2.37-1.26-5.51-1.64-8.38a15.28,15.28,0,0,0-10.76-12.42c-5.94-1.69-11.12,3.7-16.08,5.86a17.08,17.08,0,0,0-9.95,12.83,41,41,0,0,0,.9,17,122.59,122.59,0,0,1,3.25,16.79,49.45,49.45,0,0,1-2.68,17.93,18.74,18.74,0,0,0,.74,13.5c2.16,3.7,6.5,5.41,10.61,6.6A58.06,58.06,0,0,0,635,199.57a33.21,33.21,0,0,0,20.36-10.76,26.58,26.58,0,0,0,8.1-11.16C666.64,169.22,664.26,158.81,657.13,153.68Z"/><path class="cls-4" d="M616,124.92a13.45,13.45,0,0,1-1.26,10.4c-.59,1-1.52,2.07-2.7,2s-2.1-1.57-2.52-2.85a46.27,46.27,0,0,1-2.24-11c-.19-2.37.24-6.41,3.5-5.63C613.26,118.44,615.31,122.71,616,124.92Z"/><path class="cls-4" d="M616,180.86c-2.38,8.33-16,12.37-23.75,2.75a39.63,39.63,0,0,1-2.71-3.68c-8.43,1.66-21,5.32-26.58,12.14a21.81,21.81,0,0,0-3.52,7.77c-2.92,10-5.36,20.11-7.29,30.35a6.78,6.78,0,0,0,0,3.52,7.72,7.72,0,0,0,2.9,3.2c11.64,9.17,14.7,24,18.53,37.36,5.82,20.34,8.48,48.44,14.25,68.77,19,1.45,98.33-16.63,107.88-24.89-13.66-24.64-24.75-69.08-29-99.95-1.86-13.12-7-25.59-12-37.87-1.19-2.87-2.23-9.5-4.42-11.35-2.9-2.37-30.52,1.71-33.44,1.81,0,1.63.17,3.27.21,4.89A16.69,16.69,0,0,1,616,180.86Z"/><path class="cls-5" d="M587.68,167.41a36.68,36.68,0,0,0-3.73-8.22,23.36,23.36,0,0,0,13-4.41,38.87,38.87,0,0,0,5.23-4.61c.59-.59,1.47-2.09,2.37-3.18-1.26,1.47,1.83,9.69,2.38,11.37a29.57,29.57,0,0,0,5.63,9.79c2.49,2.78,4.13,3.25,4.58,7.13a28.78,28.78,0,0,1-1.83,12.56,12.14,12.14,0,0,1-4.32,6.25,11.15,11.15,0,0,1-8.74.76c-4.92-1.29-11.67-5.39-13.42-10.53-.93-2.68,0-4.08.35-6.84A26.17,26.17,0,0,0,587.68,167.41Z"/><path class="cls-6" d="M589.35,176.2v-.85a36.51,36.51,0,0,0-1.64-7.94,37.14,37.14,0,0,0-3.73-8.22,23.35,23.35,0,0,0,13-4.41,38.87,38.87,0,0,0,5.23-4.61c.59-.59,1.47-2.09,2.37-3.18.15,1.52.36,3,.62,4.53A31.9,31.9,0,0,1,589.35,176.2Z"/><path class="cls-3" d="M558,141a36.46,36.46,0,0,0,12.49,19.6,15.65,15.65,0,0,0,5.61,3.08,7.09,7.09,0,0,0,6.12-1c2.38-1.9,2.81-5.32,3-8.39a70.09,70.09,0,0,0-.54-17.12,27.14,27.14,0,0,0-7.68-15c-3.44-3.18-12.87-7.79-17-3.39C555.45,123.45,556.61,135.32,558,141Z"/><path class="cls-5" d="M562.93,127.56c.81-5.39,6.89-1.4,11.88-3.68,4.3-2,7.55-3.71,12.4-3.35a17.77,17.77,0,0,1,11.61,5.15c.81.86,1.55,1.71,2.24,2.59a60.39,60.39,0,0,1,5,9.93v.24a33.35,33.35,0,0,1-4.44,19,17.51,17.51,0,0,1-15.16,9.17,15,15,0,0,1-9.64-3.76,33,33,0,0,1-7.13-9.36C566.88,148.27,562.13,133.47,562.93,127.56Z"/><path class="cls-3" d="M586.45,137.65c-5.87-1.38-11.88-2.23-17.32-4.89a19.39,19.39,0,0,1-9.33-9.24c-1.81-4.16-.57-7.13,1.83-10.69a25.75,25.75,0,0,1,14.79-10.47c6-1.57,13.42.73,19.15,2.73A23.43,23.43,0,0,1,606,111.88c4.75,5.63,6.25,15.32,5.87,22.45A38,38,0,0,1,610.1,143c-.68,2.38-1.9,5.06-4.75,5.39-1.87.24-5.67-5.15-7.6-6.34a34.87,34.87,0,0,0-9.92-4Z"/><path class="cls-3" d="M577.42,144.11a1.74,1.74,0,1,0,1.58-1.88h0a1.71,1.71,0,0,0-1.55,1.86Z"/><path class="cls-7" d="M580,139.17a5.47,5.47,0,0,0-3.45.45"/><path class="cls-3" d="M566.88,146.94a1.73,1.73,0,0,0,1.9,1.55,1.73,1.73,0,1,0-.35-3.45h0A1.75,1.75,0,0,0,566.88,146.94Z"/><path class="cls-7" d="M569.25,142.05a5.25,5.25,0,0,0-3.42.45"/><path class="cls-7" d="M573,147.18a6,6,0,0,1-.68,4.41,1.78,1.78,0,0,0-.41,1.1,1.07,1.07,0,0,0,.93.78,3.39,3.39,0,0,0,1.26-.19"/><path class="cls-7" d="M581.7,155.8a6.82,6.82,0,0,1-5.77,2.11"/><path class="cls-5" d="M606.47,138a6.32,6.32,0,1,1-6.93-5.66,6.32,6.32,0,0,1,6.93,5.66Z"/><path class="cls-8" d="M601.13,135.85a2.73,2.73,0,0,0-2.38,1.21,2.77,2.77,0,0,0-.16,2.66,1.84,1.84,0,0,1,2-.52,1.9,1.9,0,0,1,1.22,1.71"/><rect class="cls-9" x="231.28" y="548.97" width="542.57" height="322.65" rx="20.76"/><path class="cls-10" d="M814,872.05H191.11A25.89,25.89,0,0,0,217,897.94H788.13A25.89,25.89,0,0,0,814,872.05Z"/><rect class="cls-11" x="244.3" y="561.65" width="516.54" height="299.85" rx="16.22"/><path class="cls-12" d="M509.87,555.05a4,4,0,1,1-4-4,4,4,0,0,1,4,4Z"/><rect class="cls-13" x="297.55" y="257.29" width="410.01" height="602.45"/><polygon class="cls-1" points="540.23 811.96 485.67 743.98 438.21 804.78 397.07 760.34 402.46 755.35 437.73 793.48 485.57 732.17 538.71 798.37 569.56 735.4 634.66 723.88 635.92 731.1 574.5 741.96 540.23 811.96"/><path class="cls-4" d="M644.69,727.52a9.5,9.5,0,1,0-9.5,9.5h.12A9.5,9.5,0,0,0,644.69,727.52Z"/><path class="cls-14" d="M549.25,805.19a9.5,9.5,0,1,0-9.62,9.38h.12A9.5,9.5,0,0,0,549.25,805.19Z"/><path class="cls-15" d="M580.32,738.7a9.5,9.5,0,1,0-9.5,9.5A9.5,9.5,0,0,0,580.32,738.7Z"/><circle class="cls-15" cx="485.26" cy="738.68" r="9.41"/><circle class="cls-4" cx="439.09" cy="798.01" r="9.41"/><path class="cls-16" d="M411.2,759.75a9.5,9.5,0,1,0-9.5,9.5A9.5,9.5,0,0,0,411.2,759.75Z"/><polyline class="cls-17" points="360.42 700.23 360.42 828.46 646.59 828.46"/><rect class="cls-15" x="383.2" y="495.5" width="43.68" height="101.45"/><rect class="cls-4" x="450.7" y="445.86" width="43.68" height="151.09"/><path class="cls-7" d="M375.05,466.45a402.71,402.71,0,0,0,137.2-102.8"/><polygon class="cls-3" points="516.33 358.95 513.22 367.81 511.94 363.92 507.92 363.11 516.33 358.95"/><rect class="cls-16" x="518.23" y="377.34" width="43.68" height="219.61"/><rect class="cls-14" x="585.76" y="473.39" width="43.68" height="123.56"/><polyline class="cls-17" points="357.5 381.44 357.5 597.28 649.3 597.28"/><rect class="cls-1" x="355.84" y="618.14" width="293.03" height="14.75"/><rect class="cls-1" x="413.93" y="326.01" width="176.1" height="14.75"/><rect class="cls-1" x="355.48" y="300.24" width="293.03" height="14.75"/><rect class="cls-1" x="355.84" y="645.19" width="293.03" height="14.75"/><rect class="cls-1" x="355.84" y="672.24" width="293.03" height="14.75"/><path class="cls-4" d="M637.75,169.57c-3.42.81-6.79,1.76-10.16,2.71A4.45,4.45,0,0,0,626,173a4.06,4.06,0,0,0-1,2.18,44,44,0,0,0,7.72,33.51c2.09,2.62,4.56,4.9,6.82,7.34s5.23,4.64,7.13,7.13c2.37,3,3.3,7.77,4.37,11.31a109.6,109.6,0,0,1,4.56,25.08c.38,5.63.64,12,5,15.67s11.09,2.69,15.51-.73a29.8,29.8,0,0,0,8.84-14,112.47,112.47,0,0,0,6.86-43c-.64-13.28-4.75-29.29-13.28-39.79-5.74-7.12-15.2-10.16-24.27-10.3A68.08,68.08,0,0,0,637.75,169.57Z"/><path class="cls-17" d="M645.88,249.07q4.74-25.57,9.5-51.16"/><path class="cls-17" d="M649.18,201.17c1.09,2.77,2.18,5.55,3.25,8.33"/><path class="cls-5" d="M584.9,285.87a12.23,12.23,0,0,1,3.78-.72c11.54-.23,22.78-1.42,34.42-2.61q11.68-1.17,23.32-1.33c6.25,0,13.49,1.26,19.6-.45s10.83-3.63,14.06-9a85.32,85.32,0,0,0,4.2-7.9,8.11,8.11,0,0,0,1.1-4.76c-.5-2.37-3.09-3.77-5.63-4.75-5.4-2-8.74-5.08-14.94-5.72a64.16,64.16,0,0,0-19.29,1.52c-12.35,2.59-24.7,3.66-36.84,7.27A328.89,328.89,0,0,0,568.92,273a41.74,41.74,0,0,0-13.07,7.91,13.68,13.68,0,0,0-1.35,18.55,6.25,6.25,0,0,0,5.58,2.37c2.38-.4,3.8-3.4,1.9-4.27C574.45,302.33,574.79,289.45,584.9,285.87Z"/><path class="cls-4" d="M545.9,287.84v-.76l-.57,1.4Z"/><path class="cls-4" d="M578.25,191.38a8.16,8.16,0,0,0-3.16-3.3c-4-2.38-12.49,1.26-16.12,3.25-.78.43-1.53.9-2.26,1.4A59.71,59.71,0,0,0,545.17,203c-1.17,1.28-2.38,2.56-3.42,3.87-16.75,19.36-27.58,40.66-24.87,66.5.59,5.54,1.68,11.52,5.82,15.28a14.7,14.7,0,0,0,12.42,3.18,22.09,22.09,0,0,0,11-5.84L546,287l.62-1.52c6.6-6.42,8.14-15.28,9.76-23.92h0L572.13,223C574.64,216.75,582.74,199.81,578.25,191.38Z"/><path class="cls-5" d="M551.48,382.63c7.25-11.87-5.93-13.75-7.86-24.3a11.78,11.78,0,0,1,0-3.84c1.83-11.52,2.64-22.88,3.54-34.59q.93-11.76,2.88-23.39c.85-5.23,2.89-11,3.13-16.44-.12-1.73-.31-3.47-.59-5.15A18,18,0,0,0,541.72,266a20.77,20.77,0,0,0-19,3.8,55,55,0,0,0-3.52,6.32,66.73,66.73,0,0,0-1.4,17.32c.43,12.63-.71,25.06.81,37.6a305.13,305.13,0,0,0,8.84,41.52,38.89,38.89,0,0,0,5.77,14,14.39,14.39,0,0,0,19,3.68,6.52,6.52,0,0,0,3.44-5.25C555.57,382.75,552.77,380.85,551.48,382.63Z"/><path class="cls-17" d="M552.62,275.2a134.67,134.67,0,0,1,18.06-43.68"/><path class="cls-17" d="M564.5,241.07l6.18-4"/><path class="cls-18" d="M198,539c8.84,10.1,12.45,23.75,15.47,36.49q5.79,24.76,11.64,49.47A58.22,58.22,0,0,1,227,636.88a85.35,85.35,0,0,1-3.13,20.64c-1.93,7.88-6.65,7.41-13.68,6.7-11.12-1.1-26.13-4.47-33.73-13.52-3.56-4.3-4.75-10.07-5.73-15.56-1.42-7.55-2.82-15.1-4.25-22.68-5.77-30.88-11.54-62.73-5-93.44A58.62,58.62,0,0,1,198,539Z"/><path class="cls-19" d="M214.27,636.71c4.92,2.38,9.5,5.32,14.25,8.17,7.51,4.52,15.35,7.7,23,11.88a22.79,22.79,0,0,0,6.82,2.78c4.11.73,8.46-.81,12.59-.26,5.56.76,10.28,5.7,12.28,12.23,3.4,11-4.54,6.89-9.79,5.94l-12.28-2.26a368.56,368.56,0,0,0-48-5.23c-9-.47-24.73-.26-31.43-8.43-3.25-4-6.86-21.37-2.59-25.55a6.84,6.84,0,0,1,2.76-1.5,41.87,41.87,0,0,1,25.75-.41A52.46,52.46,0,0,1,214.27,636.71Z"/><path class="cls-3" d="M208.45,763.93h-157a9.34,9.34,0,0,1-9.5-9.17v-.17h0a9.33,9.33,0,0,1,9.33-9.33H208.45a9.34,9.34,0,0,1,9.34,9.33h0a9.34,9.34,0,0,1-9.34,9.34Z"/><rect class="cls-3" x="34.78" y="570.51" width="152.96" height="85.22" rx="15.04"/><rect class="cls-3" x="54.35" y="641.89" width="9.5" height="113.39"/><rect class="cls-3" x="156.84" y="641.89" width="9.5" height="113.39"/><rect class="cls-3" x="120.21" y="759.23" width="9.5" height="137.74"/><rect class="cls-3" x="48.81" y="759.23" width="9.5" height="137.74"/><rect class="cls-3" x="201.11" y="759.23" width="9.5" height="137.74"/><rect class="cls-3" x="152.35" y="759.23" width="9.5" height="137.74"/><path class="cls-20" d="M305.6,807.59c-5.37,1.14-9.07,1.4-15.44,2.37q-13.89,2-27.86,3.18c2.38,16.75,4.75,31.48,5.2,34.42,2.38,12.83,1.09,45,6.82,57.17,7,.86,13-.28,19.52-.83C297.33,871.69,300.18,839.44,305.6,807.59Z"/><path class="cls-21" d="M257.12,835.76a41.45,41.45,0,0,0,.6,7.86,43.16,43.16,0,0,0,29,12.33,50.06,50.06,0,0,0,17.89-2.5q1-18.81,2.23-37.62c1-16.32,1.88-32.64,3.92-48.86a236.16,236.16,0,0,0,.24-43.85c-4.16-15.94-14.75-20.31-14.75-20.31S266.67,691.1,244,686.19c-27.84-6.11-56.13-10.64-84.11-16.63-13.44-2.92-35.93-2.37-42.75,12.33-8.17,16.86,7.93,39.47,20.76,49.36,13.35,10.16,29.81,15.29,46.2,18.85a299.47,299.47,0,0,0,70.71,6.82C254.06,756.87,257.1,829.91,257.12,835.76Z"/><path class="cls-3" d="M254.79,757h0c-5.15-5.13-10-10.57-15.2-15.7-7.69-7.65-15.18-15.51-22.82-23.2-15.18-15.28-30.45-30.48-45.3-46.08-3.89-.81-7.79-1.62-11.69-2.38-13.44-2.92-35.93-2.37-42.75,12.33-8,16.79,8,39.4,20.88,49.29,13.35,10.16,29.81,15.29,46.2,18.85a299.47,299.47,0,0,0,70.71,6.82Z"/><path class="cls-22" d="M255,761.53c0-7.43,1-16.51,1-23.94"/><path class="cls-17" d="M274.1,695.62c-19.9-6.39-38-12.31-67.29-16.27"/><path class="cls-23" d="M271,913.76h63.7v6.89H273.23a2.38,2.38,0,0,1-2.38-2.38v-4.61Z"/><path class="cls-3" d="M333.77,915.63a6.16,6.16,0,0,0,.59-1,8.72,8.72,0,0,0-3.23-9.91,28.63,28.63,0,0,0-10.57-4.56,175.24,175.24,0,0,0-23.94-5.53c-2.16-.29-25.37-2.38-25.25-3.47-.35,5.87-.73,11.71-1.09,17.55a18.67,18.67,0,0,0,0,6.91Z"/><path class="cls-3" d="M281.85,886.35a11.06,11.06,0,0,1,12.82-.36,13.72,13.72,0,0,1,5.66,11.88,3.27,3.27,0,0,1-.83,2.37,3.6,3.6,0,0,1-2.38.62l-11,.12c-2.38,0-5.18.57-6.77-1.47C276.6,895.85,279.19,889.08,281.85,886.35Z"/><path class="cls-24" d="M306.05,896.32a5.07,5.07,0,0,0-5.11,3.19"/><path class="cls-24" d="M307.36,901.91a6.54,6.54,0,0,1,5.41-3.09"/><path class="cls-24" d="M315.43,902.76a3.67,3.67,0,0,1,3.35-2.37"/><path class="cls-20" d="M200.09,798.94q-12.26,1.71-24.53,2.85c6.2,30.47,9.05,61.52,14.11,92.21,7,0,13.3-1.52,20.68-1.36,1.43-9.28,4.26-64.44,8.63-96.79A158.87,158.87,0,0,1,200.09,798.94Z"/><path class="cls-21" d="M176.77,842.31c1.68,6.87,3.66,11.09,10.43,13.78a38.91,38.91,0,0,0,18.55,2.59A31,31,0,0,0,221,851.55s8.74-130.14-2.11-146.81c-13.3-20.41-42.38-24.61-65.06-29.57-19.83-4.37-39.93-7.94-60-11.88-4.9,18.57-1.36,40.38,5.72,57.5v.27a39.41,39.41,0,0,0,33,23.75,301,301,0,0,0,31.92,1C164.56,745.92,170.73,817.73,176.77,842.31Z"/><path class="cls-22" d="M164.89,750.58c0-7.43,1-16.51,1.05-23.94"/><path class="cls-23" d="M188,912.76h63.71v6.84H190.28a2.37,2.37,0,0,1-2.37-2.37v-4.61Z"/><path class="cls-3" d="M250.8,914.64a5.2,5.2,0,0,0,.62-1,8.76,8.76,0,0,0-3.23-9.91,29,29,0,0,0-10.57-4.56,178.25,178.25,0,0,0-23.94-5.53c-2.16-.28-25.37-2.38-25.27-3.47l-1.07,17.56a18.25,18.25,0,0,0,0,6.91Z"/><path class="cls-3" d="M199,885.35a11,11,0,0,1,12.8-.36,13.75,13.75,0,0,1,5.68,11.88,3.26,3.26,0,0,1-.84,2.38,3.5,3.5,0,0,1-2.37.61h-11c-2.38,0-5.18.57-6.77-1.47C193.66,894.85,196.34,888,199,885.35Z"/><path class="cls-24" d="M223.08,895.33a5.07,5.07,0,0,0-5.1,3.18"/><path class="cls-24" d="M224.41,900.91a6.6,6.6,0,0,1,5.42-3.09"/><path class="cls-24" d="M232.47,901.76a3.73,3.73,0,0,1,3.37-2.37"/><path class="cls-18" d="M91.21,688.49c.57,3,1.14,6,1.69,9,10.33-5.39,22.68-4.23,34.39-4.23a158.18,158.18,0,0,0,73.63-18.38A101,101,0,0,1,198.17,656c0-6.51-2.73-12.83-2.73-19.34-.43-8.81,0-17.64.35-26.46.83-16.62,2-33.53-1.16-49.88a73.37,73.37,0,0,0-12.54-30c-3-4-7.13-9.23-11.64-11.54s-12.09-1.64-17.51-2.11a45.35,45.35,0,0,0-11.87,0,39.77,39.77,0,0,0-13.52,5.7c-22.49,13.49-25.22,35.25-32,58.67-3.37,11.71-8.69,22.77-12.07,34.46A66.57,66.57,0,0,0,81,635.64c.15,6.15,2.38,11.62,3.64,17.67Q87.94,670.89,91.21,688.49Z"/><path class="cls-25" d="M154.84,538A21.65,21.65,0,0,0,170,543.13a9.45,9.45,0,0,0,5.34-1.69,4.56,4.56,0,0,0,1.71-5"/><path class="cls-25" d="M149.67,587.12a54.62,54.62,0,0,0,33.25,35"/><path class="cls-25" d="M164.25,599.54a25.38,25.38,0,0,0,16.41,8.81"/><path class="cls-25" d="M135.53,598.57a116.71,116.71,0,0,0,29.93,48.35"/><path class="cls-22" d="M187.29,537.17c6.46,11.11,6.56,17.43,8,27.24a209.08,209.08,0,0,1,2.24,33.25c-.26,18.62-4.37,35.63-.22,54.11"/><path class="cls-20" d="M173.78,513.2a38.7,38.7,0,0,1,4-8.81,25.25,25.25,0,0,1-14-4.75,41.77,41.77,0,0,1-5.6-4.94c-.64-.64-1.59-2.38-2.57-3.42-1,11.18-5.2,21.71-14.75,28.1A37.25,37.25,0,0,0,155.32,533c5,2.88,17.36,8.46,17.65-1.61,0-3.3-1.24-6.34-.95-9.69A38.27,38.27,0,0,1,173.78,513.2Z"/><path class="cls-19" d="M172,522.61v-.88a41.13,41.13,0,0,1,5.78-17.34,25.25,25.25,0,0,1-14-4.75,41.85,41.85,0,0,1-5.61-4.94c-.64-.64-1.59-2.38-2.56-3.42-.17,1.64-.38,3.25-.69,4.75A34.29,34.29,0,0,0,172,522.61Z"/><path class="cls-18" d="M99,539c-8.84,10.1-12.47,23.75-15.47,36.49Q77.58,600.29,71.71,625c-1.33,5.73-3.49,13.54-2.23,19.38A25.16,25.16,0,0,0,81,660c5.87,3.54,14.8,5.13,21.38,2.14s13.54-5.92,18.12-11.45c3.56-4.3,4.75-10.07,5.73-15.56,1.42-7.55,2.82-15.11,4.25-22.68,5.77-30.88,11.54-62.73,5-93.44A58.6,58.6,0,0,0,99,539Z"/><path class="cls-22" d="M135.63,569.73c-12.85,3.33-11.71,19.76-12.87,29.9A296,296,0,0,1,114.23,644"/><path class="cls-22" d="M126,578.14a24.31,24.31,0,0,1,7.79-11.45"/><path class="cls-20" d="M118.38,639.68c6.89,1.52,13.66,3.71,20.41,5.77,10.73,3.23,21.61,5.11,32.51,8a38.4,38.4,0,0,0,9.51,1.66c5.51,0,10.85-2.19,16.36-2.38a22.36,22.36,0,0,1,18.58,10.08c6.74,10.3-4.45,7.55-11.48,7.45L187.81,670c-21.56-.31-42,.78-63.61,2.58-11.87,1-32.25,3.76-42.75-3.23C76.37,666,68,649.51,72.66,644.57a9.14,9.14,0,0,1,3.26-1.9,70.6,70.6,0,0,1,33.39-4.56A89.52,89.52,0,0,1,118.38,639.68Z"/><rect class="cls-3" x="153.78" y="693.48" width="148.29" height="6.75" rx="2.87"/><path class="cls-26" d="M317.05,700.23H190.33l11-72.81a5.13,5.13,0,0,1,5-4.41H323a4.93,4.93,0,0,1,4.82,5,3.51,3.51,0,0,1-.07.72Z"/><circle class="cls-18" cx="264.15" cy="660.11" r="8.41"/><path class="cls-20" d="M198.88,466.83c-1.45-5.65-7.5-.71-13-2.61-4.75-1.66-8.45-3.13-13.59-2.23a19,19,0,0,0-11.87,6.77,33.6,33.6,0,0,0-2.14,3A66.09,66.09,0,0,0,154,482.89v.26A35.88,35.88,0,0,0,160.83,503a18.72,18.72,0,0,0,17.15,8.1,15.93,15.93,0,0,0,9.88-5.06,35.08,35.08,0,0,0,6.56-10.76C197,489.38,200.47,473.06,198.88,466.83Z"/><path class="cls-3" d="M172.16,472.35a3.2,3.2,0,0,1,.14-.86l1.5-7.13c6,4.47,12.42,10.81,20.14,13.38a14.73,14.73,0,0,0,16.13-5.09,18.76,18.76,0,0,0,1.66-2.8,22.63,22.63,0,0,1,1.05-2.49,5.39,5.39,0,0,1-6.73-1.48,21.87,21.87,0,0,1-3.34-6.67,31.06,31.06,0,0,0-10.79-13.68,24.53,24.53,0,0,0-16.62-4.35,21.05,21.05,0,0,0-10.19,4.09,17.68,17.68,0,0,0-3.88,3.89c-.5.69-2.61,4.47-1.75,5.21a4.3,4.3,0,0,0-4.75-.15,10.31,10.31,0,0,0-3.52,3.87,32.86,32.86,0,0,0-3.85,21.38,41.57,41.57,0,0,0,2.85,9c1,2.38,2.57,5.18,5.54,5.25,4.13,0,3.65-6.82,4.75-10.38.45-1.4.35-3.14,2-3.56s4.41,2.78,5.72.16a5,5,0,0,0,0-3.11,4.19,4.19,0,0,1,.19-3.09H171A1.46,1.46,0,0,0,172.16,472.35Z"/><path class="cls-7" d="M162,443.84a15.33,15.33,0,0,0-1.68,15.23"/><path class="cls-7" d="M150.64,453a6.68,6.68,0,0,1,8.38,1.31"/><circle class="cls-3" cx="183.37" cy="486.1" r="1.85"/><path class="cls-7" d="M181.92,481.11a5.68,5.68,0,0,1,3.73.12"/><path class="cls-3" d="M196.91,488a1.86,1.86,0,1,1-1.85-1.85h0A1.85,1.85,0,0,1,196.91,488Z"/><path class="cls-7" d="M193.63,483a5.69,5.69,0,0,1,3.71.12"/><path class="cls-7" d="M190.26,489a6.49,6.49,0,0,0,1.21,4.63,1.84,1.84,0,0,1,.55,1.12,1.16,1.16,0,0,1-.88.93,3.21,3.21,0,0,1-1.38,0"/><path class="cls-7" d="M181.92,499a7.48,7.48,0,0,0,6.42,1.64"/><path class="cls-20" d="M153.59,482.75A6.79,6.79,0,1,0,160.4,476h0A6.79,6.79,0,0,0,153.59,482.75Z"/><path class="cls-8" d="M159,479.85a3,3,0,0,1,2.64,1,3.09,3.09,0,0,1,.5,2.8,2,2,0,0,0-2.85.18,2,2,0,0,0-.5,1.46"/><path class="cls-3" d="M913.87,871.08c-.19-.86-24.44,3.39-27.12,3.8l-.31.26c-8.39,7.12-19,11-29.43,14.77a10,10,0,0,0-4.39,2.52c-4.75,5.53,5.29,7.93,8.86,8.22A66.68,66.68,0,0,0,878.72,899c11.69-2,23.59-1.38,35.15-4.23a2,2,0,0,0,1.24-.64,2,2,0,0,0,.28-1.07A71,71,0,0,0,913.87,871.08Z"/><path class="cls-26" d="M860.76,700.51c5.87,58.38,16.63,118.31,23.23,176.62,13.68,1.19,18.65.29,31.93-2,8.71-63.44,12.39-94.06,4.53-158.43-.8-6.6,0-61.3-.33-68.33-1.4-41.83,4.18-89.6-20.93-124.92-6.36-8.93-16.74-15.77-27.31-14.94a24.75,24.75,0,0,0-18.15,10.86c-13,17.6-5.72,65.46-3.42,86.36C853.38,633.48,858,672.7,860.76,700.51Z"/><path class="cls-11" d="M864.9,736.83c2.37-10.12,5.27-20.12,8.12-30.12,10-35,14.11-70.92,19.12-106.89a166,166,0,0,0,2.21-25.67c-.14-8.74-1.31-17.51-2-26.13a225.28,225.28,0,0,0-4.82-35.46,26.49,26.49,0,0,0-15.56-4,24.75,24.75,0,0,0-18.14,10.86c-13,17.6-5.73,65.46-3.42,86.36,3.06,27.72,7.67,66.94,10.45,94.75C862,712.43,863.38,724.57,864.9,736.83Z"/><path class="cls-3" d="M820.34,879.18h-.72a93.65,93.65,0,0,1-23.42-.12,8.83,8.83,0,0,0-3,0,8.29,8.29,0,0,0-2.37,1.16,70.47,70.47,0,0,1-23.76,9c-4.75.9-10,1.4-13.8,4.44-1.78,1.45-3.18,4.09-1.82,5.94a5,5,0,0,0,1.87,1.35c7.29,3.42,18.31,2.09,26.13,1.64,12.66-.69,25.2,0,37.69-2.37a3.06,3.06,0,0,0,1.43-.55,3.43,3.43,0,0,0,.95-2,97.79,97.79,0,0,0,1.88-10.5c.16-1.37,1-6.38,0-7.57A1.37,1.37,0,0,0,820.34,879.18Z"/><path class="cls-26" d="M851.31,516.55c-28.79-.45-37.6,29.59-41,52.7q-10.87,73.21-15.23,147.27c-1.44,24.51-3.37,45.13-4.18,69.74-.85,25.2-2.23,68.88-1.14,93.84a2.35,2.35,0,0,0,.41,1.43,2.37,2.37,0,0,0,1.57.59,175.7,175.7,0,0,0,31.78.45,2.74,2.74,0,0,0,1.42-.4c.45-.31-3.61-1.93-3.44-2.38,8.1-25,13.65-69.73,16.2-95.86,5.29-54.63,16.62-107.84,37-158.31C895.09,577.81,906.53,517.47,851.31,516.55Z"/><path class="cls-17" d="M863.11,655.1a761.88,761.88,0,0,0,29.72-84.59"/><path class="cls-11" d="M857,581.3h.29q4,.63,7.91,1.14c1.94.23,3.89.45,5.84.61l1.92.19,4.75.34h5A181.75,181.75,0,0,0,919.74,581c-1.83-22.06-6.65-43.32-19.48-61.35-6.34-8.9-16.74-15.77-27.31-14.94a24.68,24.68,0,0,0-18.12,10.86,23.55,23.55,0,0,0-2.55,4.44c-25-.57-36,24.63-41.63,45.89A94.72,94.72,0,0,0,828.58,574,168.41,168.41,0,0,0,857,581.3Z"/><path class="cls-27" d="M869.5,359.64a38.48,38.48,0,0,0-.68-9.64,25.23,25.23,0,0,0,14.75.4,40.62,40.62,0,0,0,7-2.66c.81-.38,2.37-1.57,3.59-2.37-2.93,10.83-2.71,22.16,4,31.47a37.09,37.09,0,0,1-18.27,7.76c-5.67,1-19.24,1.86-16-7.67,1.07-3.13,3.37-5.53,4.27-8.76A39.77,39.77,0,0,0,869.5,359.64Z"/><path class="cls-28" d="M882.64,350.61a25.08,25.08,0,0,1-13.82-.61,38.48,38.48,0,0,1,.68,9.64,40.31,40.31,0,0,1-1.33,8.6l-.28.85a7.9,7.9,0,0,0,1.66-.28A33.68,33.68,0,0,0,882.64,350.61Z"/><path class="cls-27" d="M862.16,307.43c3.33-4.75,7.3,1.95,13.12,2.09,5.08.15,9,0,13.51,2.66a19,19,0,0,1,8.74,10.48,36.51,36.51,0,0,1,.93,3.56,67.34,67.34,0,0,1,0,11.88v.23a35.92,35.92,0,0,1-13.33,16.23,18.82,18.82,0,0,1-19,1.61,16,16,0,0,1-7.48-8.19,35.41,35.41,0,0,1-2.38-12.38C856.08,329.24,858.48,312.73,862.16,307.43Z"/><path class="cls-3" d="M868.74,318.57c-4.56.64-8.29,1.38-12.47-1.07a14.93,14.93,0,0,1-6.67-8.43,19.33,19.33,0,0,1-.57-3.2v-2.71a5.35,5.35,0,0,0,6.79,1,22.13,22.13,0,0,0,5.49-5.08A30.79,30.79,0,0,1,876.18,290a24.81,24.81,0,0,1,17.17,1.75,21.31,21.31,0,0,1,8.12,7.39,18.59,18.59,0,0,1,2.38,5c.21.83.85,5.11-.19,5.49a4.29,4.29,0,0,1,4.58,1.57,10.05,10.05,0,0,1,1.81,4.75A32.28,32.28,0,0,1,907.94,333a131.47,131.47,0,0,1-5.78,11.88,19,19,0,0,1-7.83,7.74,28,28,0,0,1-13.83,1.66,9.72,9.72,0,0,1-9.5-5.94,19.87,19.87,0,0,1-1.19-6.19c0-.88-.47-7,.24-7.37a7.26,7.26,0,0,1-2.78,1,2.58,2.58,0,0,1-2.54-1.24,3.89,3.89,0,0,1,.12-2.73Z"/><path class="cls-7" d="M904.78,298.69A15.39,15.39,0,0,1,901,313.56"/><path class="cls-7" d="M912.19,311.3a6.75,6.75,0,0,0-8.32-1.68"/><path class="cls-27" d="M879.53,338.19a6.79,6.79,0,1,1-4-8.74,6.79,6.79,0,0,1,4,8.74Z"/><path class="cls-8" d="M875.42,333.56a2.89,2.89,0,0,0-2.85,0,3,3,0,0,0-1.43,2.38,2,2,0,0,1,2.54,2.68"/><path class="cls-27" d="M785.25,415.17a6.35,6.35,0,0,1,4-4.75c2.09-.71,5.63-.71,6.34-2.82.33-1.05.69-1.45-.17-2.16a5.15,5.15,0,0,0-3.06-1.1,9.24,9.24,0,0,0-8.48,4.75c-.5.93-1.21,2.14-2.21,1.86a1.94,1.94,0,0,1-1-1.07c-1.18-2.76.46-5.87,2-8.44a14.29,14.29,0,0,1,4.75-5.29,14,14,0,0,1,7.79-1c5.34.38,11,.79,15.51,4,1.19.83,2.37,1.8,3.44,2.66a39.17,39.17,0,0,0,10.17,4.54c-1.09,3.82-2.21,7.64-3.3,11.49a1.15,1.15,0,0,1-.31.53,1,1,0,0,1-.64,0c-6.51-1.6-14-2.93-20.55-4A49,49,0,0,0,785.25,415.17Z"/><path class="cls-18" d="M821,397.76a41.12,41.12,0,0,0-8.86,26.7l12.54,5c1.45-6.62,2.87-13.25,4.32-19.88.43-2,2.21-6.22,1.07-7.86S823.07,398.71,821,397.76Z"/><path class="cls-11" d="M864.16,413.46a91.48,91.48,0,0,0-10.78-5.67c-6.46-2.9-13.23-5.28-19.72-7.51a58.9,58.9,0,0,0-7.58-2.37c-7.12,7.53-9.5,20.28-8.66,30.87,7.43,6.51,18.31,10.38,26.5,15.49a87.5,87.5,0,0,0,14.25,7.86,24.93,24.93,0,0,0,15.89,1.36,10,10,0,0,0,6.58-4.92,11.74,11.74,0,0,0,.81-5.18A37.25,37.25,0,0,0,864.16,413.46Z"/><path class="cls-27" d="M741.69,455.24a19.63,19.63,0,0,1-1.37-16.46,7.12,7.12,0,0,1,4-4.56,6.33,6.33,0,0,1,6.58,2.71,30.49,30.49,0,0,1,3.21,6.84,31.51,31.51,0,0,0,4.08,7.13,18,18,0,0,1,4.33,7.12,7.14,7.14,0,0,1-2,6.2C754.52,470.14,744.59,460.47,741.69,455.24Z"/><polygon class="cls-29" points="808.89 451.61 772.86 469.09 725.16 425.81 761.22 408.33 808.89 451.61"/><polygon class="cls-18" points="803 449.81 772.05 464.82 730.84 427.43 761.81 412.42 803 449.81"/><polygon class="cls-30" points="766.51 420.33 740.79 432.8 738.27 430.52 764 418.05 766.51 420.33"/><polygon class="cls-30" points="779.65 432.25 753.92 444.72 751.41 442.44 777.13 430 779.65 432.25"/><polygon class="cls-30" points="784 436.22 758.27 448.69 755.78 446.41 781.5 433.94 784 436.22"/><polygon class="cls-30" points="788.37 440.16 762.64 452.63 760.13 450.35 785.85 437.88 788.37 440.16"/><polygon class="cls-30" points="792.71 444.1 766.99 456.57 764.47 454.32 790.2 441.85 792.71 444.1"/><polygon class="cls-30" points="797.06 448.07 771.34 460.54 768.82 458.26 794.57 445.79 797.06 448.07"/><polygon class="cls-3" points="760.27 415.93 738.63 426.43 729.44 418.07 751.08 407.6 760.27 415.93"/><path class="cls-27" d="M745.42,451.28a10.72,10.72,0,0,0-1,1.35c-2.73,4.37,2.54,8.43,5.91,10.81,7.6,5.34,16.91,7.93,25.77,10.5,5,1.45,19.43-2.12,15.44-10-2.73-5.34-10.78-8.43-16.08-9.85-5.51-1-10.21-3.33-12.28-8.91-.9-2.37-1.28-5.13-2.09-7.65a3.61,3.61,0,0,0-.92-1.68,1.45,1.45,0,0,0-1.79-.19,1.77,1.77,0,0,0-.54.92c-1.55,4.3,1.21,7.48-4.09,10-1.75.83-3.68,1.3-5.39,2.23A11.08,11.08,0,0,0,745.42,451.28Z"/><path class="cls-18" d="M772,446.62A41.11,41.11,0,0,0,766,474.1l13,3.64,2.13-20.22c.22-2,1.52-6.43.24-7.93S774.09,447.26,772,446.62Z"/><path class="cls-18" d="M861.14,368.14a16.18,16.18,0,0,1,9.62-3l26.42-2.37q2.49,8.83,5,17.67c0-.24-28.51.88-31.28.81s-12.14.83-13.33-1.85S859,370.21,861.14,368.14Z"/><path class="cls-26" d="M919,515c0-9.39.54-18.74,1.14-28.1.78-12.19,1.71-24.37,1.85-36.6a247.19,247.19,0,0,0-3-45.39c-.64-3.73-1.42-7.42-2.37-11-.19-.76-.38-1.54-.6-2.37-2.82-6.72-8.14-15.65-15.24-19.62a29.86,29.86,0,0,0-3.54,0q-12.25.81-24.37,2.71c-5.56.85-9.5,1.56-13.59,5.82-10.43,10.85-20.21,35.17-22.94,50.14-2.59,14.25-1.57,15.1-3.07,29.5q-2.64,25.73-7.48,51.16C823.07,525.43,819,541,807.15,549.4c19.67,8.24,39.58,16.62,60.64,19.85s43.76,1.1,61.76-10.47C921,545.81,919,530.51,919,515Z"/><path class="cls-26" d="M870.38,418.36a10.3,10.3,0,0,0-3.28-4.09,9.16,9.16,0,0,0-5.41-1.26c-8.24.38-14.77,7.13-19.17,14.09s-7.81,14.87-14.08,20.21c-11,9.36-37.34,1.73-49.6-1-9.33,9.12-10.33,19.69-5.49,32,16.44,7.12,51,24.34,68.89,15.82a37.78,37.78,0,0,0,14.75-14,107.78,107.78,0,0,0,6-10.57,101.62,101.62,0,0,0,9.91-24.92A39.43,39.43,0,0,0,870.38,418.36Z"/><path class="cls-26" d="M877.7,388.69a17.38,17.38,0,0,0-21.38-2.38c-3.87,2.38-5.84,7.44-7.84,11.41A110.65,110.65,0,0,0,842.17,413c-1.76,5.35-3.12,10.81-4.76,16.2-2.7,8.82-6.22,17.41-8.24,26.42s-2.37,18.67.91,27.24c4.75,12.26,21,5.75,28.17-1.07,6.17-5.87,9.14-14.25,11.87-22.35s5.56-16.22,8.31-24.35A95.76,95.76,0,0,0,884,410.38C884.42,402.18,883,394.32,877.7,388.69Z"/><path class="cls-17" d="M834,439.59a171.9,171.9,0,0,1,19.93-51.14"/><path class="cls-17" d="M883.26,424.22l-10.62,28.51c-2.54,6.84-4.94,15.58-9.76,21.21s-9.29,11.87-15.18,16.39a28.82,28.82,0,0,1-20.17,6.84"/><path class="cls-17" d="M887.13,426.74a20,20,0,0,0-7.63,7.77"/><path class="cls-3" d="M776.16,422.58,771.91,425l2.16-4.32L799.65,394a1.42,1.42,0,0,1,2,0l0,0h0a1.5,1.5,0,0,1,0,2.07Z"/></g></svg>